<?xml version="1.0" encoding="UTF-8" standalone="no"?>
<!DOCTYPE svg PUBLIC "-//W3C//DTD SVG 1.1//EN" "http://www.w3.org/Graphics/SVG/1.1/DTD/svg11.dtd">
<svg xmlns="http://www.w3.org/2000/svg" xmlns:xlink="http://www.w3.org/1999/xlink" version="1.1" width="1190.55pt" height="841.89pt" viewBox="0 0 1190.55 841.89">
<path transform="matrix(1,0,0,-1,183.6,398.99003)" stroke-width="1" stroke-linecap="butt" stroke-miterlimit="10" stroke-linejoin="miter" fill="none" stroke="#191924" d="M 0 0 L -.5 0 L -1 -.1 L -1.5 -.2 L -2 -.4 L -2.5 -.7 L -2.9 -1 L -3.2 -1.3 L -3.6 -1.7 L -3.9 -2.1 L -4.1 -2.6 L -4.3 -3.1 L -4.4 -3.5 L -4.5 -4.1 L -4.5 -4.6 L -4.5 -5.1 L -4.4 -5.6 L -4.2 -6.1 L -4 -6.5 L -3.7 -7 L -3.4 -7.4 L -3.1 -7.7 L -2.7 -8.1 L -2.2 -8.3 L -1.8 -8.6 L -1.3 -8.7 L -.8 -8.8 L -.3 -8.9 L .2 -8.9 L .7 -8.8 L 1.2 -8.7 L 1.7 -8.6 L 2.2 -8.3 L 2.6 -8.1 L 3 -7.7 L 3.4 -7.4 L 3.7 -7 L 3.9 -6.5 L 4.1 -6.1 L 4.3 -5.6 L 4.4 -5.1 L 4.4 -4.6 L 4.4 -4.1 L 4.4 -3.5 L 4.2 -3.1 L 4 -2.6 L 3.8 -2.1 L 3.5 -1.7 L 3.2 -1.3 L 2.8 -1 L 2.4 -.7 L 1.9 -.4 L 1.5 -.2 L 1 -.1 L .5 0 L 0 0 M 6.4 -7 L -6.4 -1.9 "/>
<symbol id="font_0_27">
<path d="M .1328125 .07421875 C .1796875 .07421875 .22135417 .092447917 .2578125 .12890625 C .296875 .16796875 .31640626 .2513021 .31640626 .37890626 C .31640626 .50911459 .2955729 .59505209 .25390626 .63671877 C .22005208 .67057296 .1796875 .6875 .1328125 .6875 L .08984375 .6875 L .08984375 .07421875 L .1328125 .07421875 M .1328125 .76171877 C .21354167 .76171877 .27734376 .73828127 .32421876 .69140627 C .3841146 .63151046 .4140625 .52734377 .4140625 .37890626 C .4140625 .23307292 .38671876 .1328125 .33203126 .078125 C .2799479 .026041666 .21354167 0 .1328125 0 L 0 0 L 0 .76171877 L .1328125 .76171877 Z "/>
</symbol>
<symbol id="font_0_56">
<path d="M .2799479 .375 C .27734376 .40364585 .26822917 .42578126 .25260417 .44140626 C .23697917 .45703126 .21614583 .46484376 .19010417 .46484376 C .15625 .46484376 .1328125 .45833335 .11979167 .4453125 C .104166667 .4296875 .096354167 .4127604 .09635417 .39453126 C .096354167 .3815104 .102864589 .3684896 .11588542 .35546876 C .13411458 .3372396 .17317708 .31770835 .23307292 .296875 C .2799479 .28125 .3138021 .26302085 .3346354 .2421875 C .3580729 .21875 .36979167 .1875 .36979167 .1484375 C .36979167 .111979167 .35677085 .080729167 .33072917 .0546875 C .29427085 .018229166 .24739583 0 .19010417 0 C .12760417 0 .08072917 .015625 .049479169 .046875 C .015625002 .080729167 .0000000012417635 .13411458 .002604168 .20703125 L .08072917 .20703125 C .08072917 .14973958 .088541667 .11328125 .10416667 .09765625 C .122395839 .079427089 .14973958 .0703125 .18619792 .0703125 C .22265625 .0703125 .25 .079427089 .26822917 .09765625 C .28385417 .11328125 .29166667 .13151042 .29166667 .15234375 C .29166667 .16796875 .28385417 .18359375 .26822917 .19921875 C .25260417 .21484375 .22265625 .23046875 .17838542 .24609375 C .11328125 .26953126 .07031251 .29166667 .049479169 .3125 C .026041666 .3359375 .014322918 .36458335 .014322918 .3984375 C .014322918 .43229167 .028645834 .46354167 .057291669 .4921875 C .0859375 .5208333 .13020833 .53515627 .19010417 .53515627 C .2421875 .53515627 .28385417 .51953127 .31510417 .48828126 C .34635417 .45703126 .3606771 .41927085 .3580729 .375 L .2799479 .375 Z "/>
</symbol>
<use xlink:href="#font_0_27" transform="matrix(0,-16,-16,-0,189.2449,395.23344)" fill="#191924"/>
<use xlink:href="#font_0_56" transform="matrix(0,-16,-16,-0,189.2449,387.0251)" fill="#191924"/>
<path transform="matrix(1,0,0,-1,425.2,381.19)" stroke-width="1" stroke-linecap="butt" stroke-miterlimit="10" stroke-linejoin="miter" fill="none" stroke="#191924" d="M 0 0 L 0 .5 L -.1 1 L -.2 1.5 L -.4 2 L -.7 2.4 L -1 2.8 L -1.3 3.2 L -1.7 3.6 L -2.1 3.8 L -2.6 4.1 L -3.1 4.3 L -3.5 4.4 L -4.1 4.5 L -4.6 4.5 L -5.1 4.4 L -5.6 4.3 L -6.1 4.2 L -6.5 4 L -7 3.7 L -7.4 3.4 L -7.7 3 L -8.1 2.6 L -8.3 2.2 L -8.6 1.7 L -8.7 1.3 L -8.9 .8 L -8.9 .3 L -8.9 -.3 L -8.9 -.8 L -8.7 -1.3 L -8.6 -1.7 L -8.3 -2.2 L -8.1 -2.6 L -7.7 -3 L -7.4 -3.4 L -7 -3.7 L -6.5 -4 L -6.1 -4.2 L -5.6 -4.3 L -5.1 -4.4 L -4.6 -4.5 L -4.1 -4.5 L -3.5 -4.4 L -3.1 -4.3 L -2.6 -4.1 L -2.1 -3.8 L -1.7 -3.5 L -1.3 -3.2 L -1 -2.8 L -.7 -2.4 L -.4 -2 L -.2 -1.5 L -.1 -1 L 0 -.5 L 0 0 M -7 -6.4 L -1.9 6.4 "/>
<symbol id="font_0_53">
<path d="M .078125 .5859375 C .114583339 .6432292 .16145833 .671875 .21875 .671875 C .26302085 .671875 .30078126 .65625 .33203126 .625 C .37890626 .578125 .40234376 .50390627 .40234376 .40234376 C .40234376 .30859376 .37890626 .23828125 .33203126 .19140625 C .2955729 .15494792 .2565104 .13671875 .21484375 .13671875 C .15494792 .13671875 .109375 .16276042 .078125 .21484375 L .078125 0 L 0 0 L 0 .671875 L .078125 .671875 L .078125 .5859375 M .20703125 .60546877 C .18098958 .60546877 .15364583 .5911458 .125 .5625 C .09375 .53125 .078125 .4778646 .078125 .40234376 C .078125 .3294271 .096354167 .2747396 .1328125 .23828125 C .15364583 .21744792 .17708333 .20703125 .203125 .20703125 C .22916667 .20703125 .25260417 .21744792 .2734375 .23828125 C .30208335 .2669271 .31640626 .32291667 .31640626 .40625 C .31640626 .48958335 .30208335 .54557296 .2734375 .57421877 C .25260417 .59505209 .23046875 .60546877 .20703125 .60546877 Z "/>
</symbol>
<use xlink:href="#font_0_27" transform="matrix(16,0,0,-16,428.9546,386.75953)" fill="#191924"/>
<use xlink:href="#font_0_53" transform="matrix(16,0,0,-16,437.0171,388.94703)" fill="#191924"/>
<path transform="matrix(1,0,0,-1,568.1,384.79)" stroke-width="1" stroke-linecap="butt" stroke-miterlimit="10" stroke-linejoin="miter" fill="none" stroke="#191924" d="M 0 0 L -.5 0 L -1 -.1 L -1.5 -.2 L -1.9 -.4 L -2.4 -.7 L -2.8 -1 L -3.2 -1.3 L -3.5 -1.7 L -3.8 -2.1 L -4 -2.6 L -4.2 -3.1 L -4.4 -3.6 L -4.4 -4.1 L -4.4 -4.6 L -4.4 -5.1 L -4.3 -5.6 L -4.1 -6.1 L -3.9 -6.6 L -3.7 -7 L -3.3 -7.4 L -3 -7.8 L -2.6 -8.1 L -2.2 -8.4 L -1.7 -8.6 L -1.2 -8.8 L -.7 -8.9 L -.2 -8.9 L .3 -8.9 L .8 -8.9 L 1.3 -8.8 L 1.8 -8.6 L 2.2 -8.4 L 2.7 -8.1 L 3.1 -7.8 L 3.4 -7.4 L 3.7 -7 L 4 -6.6 L 4.2 -6.1 L 4.4 -5.6 L 4.5 -5.1 L 4.5 -4.6 L 4.5 -4.1 L 4.4 -3.6 L 4.3 -3.1 L 4.1 -2.6 L 3.9 -2.1 L 3.6 -1.7 L 3.2 -1.3 L 2.9 -1 L 2.5 -.7 L 2 -.4 L 1.5 -.2 L 1.1 -.1 L .5 0 L 0 0 M 6.4 -7 L -6.4 -1.9 "/>
<symbol id="font_0_4b">
<path d="M .078125 .44140626 C .09375 .4622396 .106770839 .4778646 .1171875 .48828126 C .1484375 .51953127 .19010417 .53515627 .2421875 .53515627 C .28645835 .53515627 .3216146 .52213546 .34765626 .49609376 C .37109376 .47265626 .3828125 .44010417 .3828125 .3984375 L .3828125 0 L .3046875 0 L .3046875 .37109376 C .3046875 .4049479 .2955729 .4309896 .27734376 .44921876 C .26171876 .46484376 .24088542 .47265626 .21484375 .47265626 C .18880208 .47265626 .16145833 .45833335 .1328125 .4296875 C .096354167 .39322917 .078125 .3450521 .078125 .28515626 L .078125 0 L 0 0 L 0 .76171877 L .078125 .76171877 L .078125 .44140626 Z "/>
</symbol>
<use xlink:href="#font_0_27" transform="matrix(0,-16,-16,-0,573.8112,381.0602)" fill="#191924"/>
<use xlink:href="#font_0_4b" transform="matrix(0,-16,-16,-0,573.8112,372.9352)" fill="#191924"/>
<symbol id="font_0_8a9">
<path d="M .0859375 .11458333 C .36979167 .17708333 .5833333 .32421876 .7265625 .55598959 L .796875 .4856771 C .6640625 .2721354 .45833335 .12109375 .1796875 .032552083 C .171875 .0013020821 .15885417 -.0000000012417635 .140625 .028645833 L .0859375 .11458333 M .05859375 .58723959 C .123697917 .55338546 .19010417 .51171877 .2578125 .4622396 L .1953125 .38020835 C .1171875 .4375 .052083333 .47916667 0 .5052083 L .05859375 .58723959 M .16796875 .8177083 C .23828125 .7786458 .3046875 .7369792 .3671875 .6927083 L .3125 .61067709 C .2421875 .66015627 .17708333 .70182296 .1171875 .73567709 L .16796875 .8177083 Z "/>
</symbol>
<symbol id="font_0_8d5">
<path d="M .3046875 .48828126 L .625 .56640627 L .64453127 .578125 L .70703127 .515625 C .71744796 .5052083 .7135417 .49739585 .6953125 .4921875 C .6484375 .41666667 .5989583 .34375 .546875 .2734375 L .48046876 .31640626 C .52213546 .37109376 .56119796 .4283854 .59765627 .48828126 L .328125 .421875 L .4609375 .02734375 L .3828125 0 L .25390626 .40625 L .02734375 .34375 L 0 .421875 L .2265625 .47265626 L .1640625 .66015627 L .24609375 .67578127 C .26953126 .67578127 .2734375 .6666667 .2578125 .6484375 L .3046875 .48828126 Z "/>
</symbol>
<symbol id="font_0_8c7">
<path d="M .07421875 .0859375 C .3997396 .16145833 .5703125 .3346354 .5859375 .60546877 L 0 .60546877 L 0 .69140627 L .59375 .69140627 L .6484375 .703125 L .69140627 .6640625 C .68098959 .31770835 .4986979 .096354167 .14453125 0 L .07421875 .0859375 Z "/>
</symbol>
<symbol id="font_0_8ba">
<path d="M .08984375 .50390627 C .21744792 .4674479 .34635417 .41796876 .4765625 .35546876 L .4296875 .265625 C .29166667 .3359375 .17838542 .3828125 .08984375 .40625 L .08984375 0 L 0 0 L 0 .78125 L .078125 .78125 C .109375 .7786458 .11328125 .7682292 .08984375 .75 L .08984375 .50390627 Z "/>
</symbol>
<symbol id="font_0_36">
<path d="M .1640625 .4765625 C .21875 .4296875 .2734375 .390625 .328125 .359375 C .38802085 .32552085 .41796876 .27604167 .41796876 .2109375 C .41796876 .14583333 .3984375 .09375 .359375 .0546875 C .32291667 .018229166 .2721354 0 .20703125 0 C .14453125 0 .096354167 .016927084 .0625 .05078125 C .020833334 .092447917 0 .14192708 0 .19921875 L 0 .23828125 L .08984375 .23828125 L .08984375 .203125 C .08984375 .16145833 .100260417 .13020833 .12109375 .109375 C .14192708 .088541667 .16796875 .078125 .19921875 .078125 C .24088542 .078125 .2721354 .088541667 .29296876 .109375 C .31640626 .1328125 .328125 .16276042 .328125 .19921875 C .328125 .23828125 .30989585 .26953126 .2734375 .29296876 C .20833333 .3346354 .14713542 .37890626 .08984375 .42578126 C .048177083 .4596354 .026041666 .5052083 .0234375 .5625 C .020833334 .6197917 .040364583 .66796877 .08203125 .70703127 C .12109375 .74348959 .1640625 .76171877 .2109375 .76171877 C .26822917 .76171877 .3125 .74609377 .34375 .71484377 C .3828125 .67578127 .40104167 .62109377 .3984375 .55078127 L .30859376 .55078127 C .3138021 .59505209 .3033854 .6302083 .27734376 .65625 C .2591146 .6744792 .23697917 .68359377 .2109375 .68359377 C .18489583 .68359377 .16276042 .6744792 .14453125 .65625 C .12109375 .6328125 .109375 .60546877 .109375 .57421877 C .109375 .54036459 .12760417 .5078125 .1640625 .4765625 Z "/>
</symbol>
<symbol id="font_0_44">
<path d="M .296875 .29296876 C .265625 .2747396 .22916667 .2591146 .1875 .24609375 C .15625 .23567708 .13151042 .22135417 .11328125 .203125 C .100260417 .19010417 .09375 .171875 .09375 .1484375 C .09375 .122395839 .100260417 .102864589 .11328125 .08984375 C .12630208 .076822917 .14713542 .0703125 .17578125 .0703125 C .22265625 .0703125 .26302085 .09765625 .296875 .15234375 L .296875 .29296876 M .296875 .05859375 C .2578125 .01953125 .20963542 0 .15234375 0 C .10546875 0 .067708339 .014322917 .0390625 .04296875 C .013020833 .069010417 0 .1015625 0 .140625 C 0 .18229167 .014322917 .21744792 .04296875 .24609375 C .069010417 .2721354 .098958339 .2903646 .1328125 .30078126 C .22135417 .3294271 .26953126 .34895835 .27734376 .359375 C .2903646 .375 .296875 .390625 .296875 .40625 C .296875 .421875 .2890625 .4361979 .2734375 .44921876 C .26041667 .4596354 .23697917 .46484376 .203125 .46484376 C .17708333 .46484376 .15625 .45703126 .140625 .44140626 C .119791667 .4205729 .108072917 .39322917 .10546875 .359375 L .01953125 .359375 C .022135416 .41145835 .040364583 .4544271 .07421875 .48828126 C .10546875 .51953127 .1484375 .53515627 .203125 .53515627 C .265625 .53515627 .30989585 .52213546 .3359375 .49609376 C .36197917 .4700521 .375 .4375 .375 .3984375 L .375 .08984375 C .375 .05859375 .38541667 .028645834 .40625 0 L .3125 0 C .30208335 .010416667 .296875 .029947916 .296875 .05859375 Z "/>
</symbol>
<symbol id="font_0_49">
<path d="M .2109375 .53515627 L .37109376 .53515627 L .37109376 .47265626 L .2109375 .47265626 L .2109375 0 L .1328125 0 L .1328125 .23828125 L .1328125 .47265626 L 0 .47265626 L 0 .53515627 L .1328125 .53515627 L .1328125 .6328125 C .1328125 .71875 .18098958 .76171877 .27734376 .76171877 C .3346354 .76171877 .3763021 .7552083 .40234376 .7421875 L .40234376 .6640625 C .37890626 .6770833 .3359375 .6848958 .2734375 .6875 C .23177083 .6901042 .2109375 .67317709 .2109375 .63671877 L .2109375 .53515627 Z "/>
</symbol>
<symbol id="font_0_57">
<path d="M .125 .47265626 L 0 .47265626 L 0 .53515627 L .125 .53515627 L .125 .70703127 L .203125 .70703127 L .203125 .53515627 L .37890626 .53515627 L .37890626 .47265626 L .203125 .47265626 L .203125 .1171875 C .203125 .088541667 .22395833 .07421875 .265625 .07421875 C .30989585 .07421875 .35546876 .084635417 .40234376 .10546875 L .40234376 .0234375 C .3372396 .0078125 .2877604 0 .25390626 0 C .16796875 0 .125 .033854169 .125 .1015625 L .125 .47265626 Z "/>
</symbol>
<symbol id="font_0_8c6">
<path d="M .58984377 .66015627 C .61067709 .66015627 .6276042 .6666667 .640625 .6796875 C .6536458 .6927083 .66015627 .70963546 .66015627 .73046877 C .66015627 .75130209 .6536458 .7682292 .640625 .78125 C .6276042 .7942708 .61067709 .80078127 .58984377 .80078127 C .56901046 .80078127 .5520833 .7942708 .5390625 .78125 C .5260417 .7682292 .51953127 .75130209 .51953127 .73046877 C .51953127 .70963546 .5260417 .6927083 .5390625 .6796875 C .5520833 .6666667 .56901046 .66015627 .58984377 .66015627 M .58984377 .62109377 C .55859377 .62109377 .53255209 .63151046 .51171877 .65234377 C .4908854 .67317709 .48046876 .69921877 .48046876 .73046877 C .48046876 .76171877 .4908854 .78776046 .51171877 .80859377 C .53255209 .82942709 .55859377 .83984377 .58984377 .83984377 C .62109377 .83984377 .64713546 .82942709 .66796877 .80859377 C .68880209 .78776046 .69921877 .76171877 .69921877 .73046877 C .69921877 .69921877 .68880209 .67317709 .66796877 .65234377 C .64713546 .63151046 .62109377 .62109377 .58984377 .62109377 M .5859375 .4921875 C .5989583 .46875 .58723959 .46484376 .55078127 .48046876 C .4049479 .44140626 .2513021 .41145835 .08984375 .390625 L .08984375 .13671875 C .08984375 .102864589 .106770839 .0859375 .140625 .0859375 L .58984377 .0859375 L .58203127 0 L .125 0 C .041666669 0 0 .033854169 0 .1015625 L 0 .71484377 L .078125 .71484377 C .106770839 .70963546 .110677089 .69921877 .08984375 .68359377 L .08984375 .484375 C .2669271 .5052083 .421875 .53776046 .5546875 .58203127 L .5859375 .4921875 Z "/>
</symbol>
<symbol id="font_0_8e5">
<path d="M .765625 .48958335 C .6276042 .203125 .39583335 .052083333 .0703125 .036458333 C .057291669 .0026041654 .044270833 -.0000000012417635 .03125 .028645833 L 0 .13020833 C .33854167 .13802083 .56640627 .27734376 .68359377 .54817709 L .765625 .48958335 M .21484375 .48958335 C .14453125 .5546875 .078125 .60807296 .015625 .64973959 L .08203125 .7317708 C .13671875 .6979167 .20572917 .64192709 .2890625 .56380209 L .21484375 .48958335 Z "/>
</symbol>
<symbol id="font_0_33">
<path d="M .08984375 .6875 L .08984375 .3984375 L .1796875 .3984375 C .2265625 .3984375 .26302085 .41145835 .2890625 .4375 C .3125 .4609375 .32421876 .49609376 .32421876 .54296877 C .32421876 .58984377 .3125 .625 .2890625 .6484375 C .26302085 .6744792 .2265625 .6875 .1796875 .6875 L .08984375 .6875 M .203125 .76171877 C .265625 .76171877 .31510417 .74348959 .3515625 .70703127 C .390625 .66796877 .41015626 .61328127 .41015626 .54296877 C .41015626 .47265626 .390625 .41796876 .3515625 .37890626 C .31510417 .3424479 .265625 .32421876 .203125 .32421876 L .08984375 .32421876 L .08984375 0 L 0 0 L 0 .76171877 L .203125 .76171877 Z "/>
</symbol>
<symbol id="font_0_4c">
<path d="M .078125 0 L 0 0 L 0 .53515627 L .078125 .53515627 L .078125 0 M .078125 .76171877 L .078125 .66015627 L 0 .66015627 L 0 .76171877 L .078125 .76171877 Z "/>
</symbol>
<symbol id="font_0_51">
<path d="M .3046875 .3828125 C .3046875 .40625 .296875 .42578126 .28125 .44140626 C .265625 .45703126 .24479167 .46484376 .21875 .46484376 C .19010417 .46484376 .16145833 .45052085 .1328125 .421875 C .096354167 .38541667 .078125 .33854167 .078125 .28125 L .078125 0 L 0 0 L 0 .53515627 L .078125 .53515627 L .078125 .43359376 C .091145839 .4518229 .106770839 .4700521 .125 .48828126 C .15625 .51953127 .1953125 .53515627 .2421875 .53515627 C .28385417 .53515627 .31770835 .52213546 .34375 .49609376 C .36979167 .4700521 .3828125 .43489585 .3828125 .390625 L .3828125 0 L .3046875 0 L .3046875 .3828125 Z "/>
</symbol>
<symbol id="font_0_8c1">
<path d="M .79296877 .01953125 C .72786459 .22526042 .6432292 .3893229 .5390625 .51171877 L .62109377 .57421877 C .75130209 .41015626 .84375 .23697917 .8984375 .0546875 L .79296877 .01953125 M .32421876 .484375 C .3450521 .47135417 .3424479 .4596354 .31640626 .44921876 C .26953126 .28515626 .19401042 .13541667 .08984375 0 L 0 .05859375 C .114583339 .19661458 .19140625 .3528646 .23046875 .52734377 L .32421876 .484375 Z "/>
</symbol>
<symbol id="font_0_898">
<path d="M .73828127 .62890627 C .73828127 .3450521 .6015625 .13541667 .328125 0 L .25390626 .07421875 C .50651046 .18880208 .63411459 .3606771 .63671877 .58984377 L .09375 .58984377 L .1015625 .359375 L .01171875 .359375 L 0 .67578127 L .30859376 .67578127 L .30859376 .87109377 L .38671876 .87109377 C .41796876 .86848959 .421875 .85807296 .3984375 .83984377 L .3984375 .67578127 L .69140627 .67578127 L .73828127 .62890627 Z "/>
</symbol>
<symbol id="font_0_8aa">
<path d="M .796875 .4856771 C .6640625 .2721354 .45833335 .12109375 .1796875 .032552083 C .171875 .0013020821 .15885417 -.0000000012417635 .140625 .028645833 L .0859375 .11458333 C .36979167 .17708333 .5833333 .32421876 .7265625 .55598959 L .796875 .4856771 M .1953125 .38020835 C .1171875 .4375 .052083333 .47916667 0 .5052083 L .05859375 .58723959 C .123697917 .55338546 .19010417 .51171877 .2578125 .4622396 L .1953125 .38020835 M .3125 .61067709 C .2421875 .66015627 .17708333 .70182296 .1171875 .73567709 L .16796875 .8177083 C .23828125 .7786458 .3046875 .7369792 .3671875 .6927083 L .3125 .61067709 M .63671877 .87630209 C .68098959 .84244796 .72526046 .8020833 .76953127 .7552083 L .71875 .70442709 C .671875 .75651046 .6276042 .79817709 .5859375 .82942709 L .63671877 .87630209 M .54296877 .8098958 C .58723959 .7734375 .63151046 .7317708 .67578127 .6848958 L .625 .6380208 C .5807292 .6848958 .53515627 .72786459 .48828126 .76692709 L .54296877 .8098958 Z "/>
</symbol>
<symbol id="font_0_8a2">
<path d="M .67578127 .609375 C .62630209 .32552085 .46354167 .122395839 .1875 0 L .1171875 .07421875 C .37239585 .17838542 .5260417 .3580729 .578125 .61328127 L .265625 .61328127 C .20572917 .51432296 .14322917 .43489585 .078125 .375 L 0 .42578126 C .13541667 .54817709 .22265625 .69140627 .26171876 .85546877 L .3515625 .82421877 C .3671875 .81640627 .36458335 .80859377 .34375 .80078127 C .33333335 .76692709 .3190104 .73307296 .30078126 .69921877 L .58203127 .69921877 L .6171875 .71875 L .6875 .6484375 C .7057292 .6302083 .70182296 .6171875 .67578127 .609375 M .69921877 .703125 C .65755209 .7630208 .6171875 .80859377 .578125 .83984377 L .62890627 .8828125 C .67317709 .84375 .71484377 .79817709 .75390627 .74609377 L .69921877 .703125 M .8125 .75 C .7708333 .8020833 .73307296 .84375 .69921877 .875 L .74609377 .921875 C .78515627 .8854167 .8229167 .84375 .859375 .796875 L .8125 .75 Z "/>
</symbol>
<symbol id="font_0_2b">
<path d="M 0 0 L 0 .76171877 L .08984375 .76171877 L .08984375 .45703126 L .3125 .45703126 L .3125 .76171877 L .40234376 .76171877 L .40234376 0 L .3125 0 L .3125 .19140625 L .3125 .3828125 L .08984375 .3828125 L .08984375 0 L 0 0 Z "/>
</symbol>
<symbol id="font_0_52">
<path d="M .0625 .47265626 C .104166667 .51432296 .15364583 .53515627 .2109375 .53515627 C .265625 .53515627 .3138021 .51432296 .35546876 .47265626 C .3971354 .4309896 .41796876 .36197917 .41796876 .265625 C .41796876 .171875 .3971354 .104166667 .35546876 .0625 C .3138021 .020833334 .265625 0 .2109375 0 C .15364583 0 .104166667 .020833334 .0625 .0625 C .020833334 .104166667 0 .171875 0 .265625 C 0 .36197917 .020833334 .4309896 .0625 .47265626 M .2109375 .46484376 C .1796875 .46484376 .15234375 .453125 .12890625 .4296875 C .100260417 .40104167 .0859375 .34635417 .0859375 .265625 C .0859375 .1875 .100260417 .13411458 .12890625 .10546875 C .15234375 .08203125 .1796875 .0703125 .2109375 .0703125 C .23958333 .0703125 .265625 .08203125 .2890625 .10546875 C .31770835 .13411458 .33203126 .1875 .33203126 .265625 C .33203126 .34635417 .31770835 .40104167 .2890625 .4296875 C .265625 .453125 .23958333 .46484376 .2109375 .46484376 Z "/>
</symbol>
<symbol id="font_0_58">
<path d="M .30078126 .078125 C .2591146 .026041666 .20572917 0 .140625 0 C .096354167 0 .0625 .01171875 .0390625 .03515625 C .013020833 .061197919 0 .09375 0 .1328125 L 0 .53515627 L .078125 .53515627 L .078125 .15234375 C .078125 .12109375 .084635417 .098958339 .09765625 .0859375 C .110677089 .072916667 .1328125 .06640625 .1640625 .06640625 C .20052083 .06640625 .23177083 .079427089 .2578125 .10546875 C .28645835 .13411458 .30078126 .17057292 .30078126 .21484375 L .30078126 .53515627 L .37890626 .53515627 L .37890626 0 L .30078126 0 L .30078126 .078125 Z "/>
</symbol>
<symbol id="font_0_4a">
<path d="M .08203125 .375 C .05078125 .40364585 .03515625 .44270835 .03515625 .4921875 C .03515625 .5494792 .05078125 .59375 .08203125 .625 C .110677089 .6536458 .14713542 .66796877 .19140625 .66796877 C .23567708 .66796877 .27083335 .65494796 .296875 .62890627 C .3359375 .66015627 .37890626 .67317709 .42578126 .66796877 L .42578126 .59375 C .3893229 .6041667 .35416667 .6041667 .3203125 .59375 C .33854167 .5729167 .34765626 .5390625 .34765626 .4921875 C .34765626 .44270835 .33203126 .40234376 .30078126 .37109376 C .2721354 .3424479 .23567708 .328125 .19140625 .328125 C .16796875 .328125 .14583333 .33333335 .125 .34375 C .1015625 .33072917 .08984375 .31640626 .08984375 .30078126 C .08984375 .2903646 .095052089 .2799479 .10546875 .26953126 C .118489589 .2565104 .15494792 .25 .21484375 .25 C .2955729 .25 .34895835 .23697917 .375 .2109375 C .3984375 .1875 .41015626 .16145833 .41015626 .1328125 C .41015626 .098958339 .3984375 .0703125 .375 .046875 C .34375 .015625 .2877604 0 .20703125 0 C .12109375 0 .0625 .015625 .03125 .046875 C .010416667 .067708339 0 .08984375 0 .11328125 C 0 .14713542 .0234375 .17838542 .0703125 .20703125 C .036458333 .22526042 .01953125 .2513021 .01953125 .28515626 C .01953125 .3190104 .040364583 .34895835 .08203125 .375 M .125 .1875 C .088541667 .16666667 .0703125 .14453125 .0703125 .12109375 C .0703125 .110677089 .076822917 .098958339 .08984375 .0859375 C .110677089 .065104167 .15104167 .0546875 .2109375 .0546875 C .26302085 .0546875 .2981771 .063802089 .31640626 .08203125 C .3294271 .095052089 .3359375 .109375 .3359375 .125 C .3359375 .13802083 .33072917 .14973958 .3203125 .16015625 C .30729167 .17317708 .27734376 .1796875 .23046875 .1796875 C .20703125 .1796875 .171875 .18229167 .125 .1875 M .19140625 .6015625 C .17057292 .6015625 .15234375 .59375 .13671875 .578125 C .12109375 .5625 .11328125 .5338542 .11328125 .4921875 C .11328125 .45833335 .12109375 .43359376 .13671875 .41796876 C .15234375 .40234376 .17057292 .39453126 .19140625 .39453126 C .21223958 .39453126 .23046875 .40234376 .24609375 .41796876 C .26171876 .43359376 .26953126 .45833335 .26953126 .4921875 C .26953126 .5338542 .26171876 .5625 .24609375 .578125 C .23046875 .59375 .21223958 .6015625 .19140625 .6015625 Z "/>
</symbol>
<symbol id="font_0_3">
<path d="M 0 0 Z "/>
</symbol>
<symbol id="font_0_b">
<path d="M .1953125 0 C .065104167 .12760417 0 .27734376 0 .44921876 C 0 .62109377 .065104167 .7708333 .1953125 .8984375 L .23828125 .85546877 C .118489589 .74348959 .05859375 .60807296 .05859375 .44921876 C .05859375 .2903646 .118489589 .15494792 .23828125 .04296875 L .1953125 0 Z "/>
</symbol>
<symbol id="font_0_45">
<path d="M .078125 .44921876 C .119791667 .50651046 .16796875 .53515627 .22265625 .53515627 C .2643229 .53515627 .30078126 .51953127 .33203126 .48828126 C .3736979 .4466146 .39453126 .3763021 .39453126 .27734376 C .39453126 .17317708 .3736979 .100260417 .33203126 .05859375 C .29296876 .01953125 .25260417 0 .2109375 0 C .16145833 0 .1171875 .022135416 .078125 .06640625 L .078125 0 L 0 0 L 0 .76171877 L .078125 .76171877 L .078125 .44921876 M .078125 .25390626 C .078125 .17838542 .091145839 .12760417 .1171875 .1015625 C .140625 .078125 .16536458 .06640625 .19140625 .06640625 C .22265625 .06640625 .24739583 .075520839 .265625 .09375 C .29947917 .12760417 .31640626 .18619792 .31640626 .26953126 C .31640626 .3502604 .30078126 .40625 .26953126 .4375 C .2513021 .45572917 .22786458 .46484376 .19921875 .46484376 C .17057292 .46484376 .14322917 .4518229 .1171875 .42578126 C .091145839 .3997396 .078125 .3424479 .078125 .25390626 Z "/>
</symbol>
<symbol id="font_0_c">
<path d="M .23828125 .44921876 C .23828125 .27734376 .17317708 .12760417 .04296875 0 L 0 .04296875 C .119791667 .15494792 .1796875 .2903646 .1796875 .44921876 C .1796875 .60807296 .119791667 .74348959 0 .85546877 L .04296875 .8984375 C .17317708 .7708333 .23828125 .62109377 .23828125 .44921876 Z "/>
</symbol>
<use xlink:href="#font_0_8a9" transform="matrix(16,0,0,-16,211.5464,531.06039)" fill="#191924"/>
<use xlink:href="#font_0_8d5" transform="matrix(16,0,0,-16,227.6714,531.28958)" fill="#191924"/>
<use xlink:href="#font_0_8c7" transform="matrix(16,0,0,-16,244.0464,530.60208)" fill="#191924"/>
<use xlink:href="#font_0_8ba" transform="matrix(16,0,0,-16,263.4214,530.78958)" fill="#191924"/>
<use xlink:href="#font_0_36" transform="matrix(16,0,0,-16,209.9839,548.934)" fill="#191924"/>
<use xlink:href="#font_0_4b" transform="matrix(16,0,0,-16,218.2339,548.934)" fill="#191924"/>
<use xlink:href="#font_0_44" transform="matrix(16,0,0,-16,226.1089,548.934)" fill="#191924"/>
<use xlink:href="#font_0_49" transform="matrix(16,0,0,-16,234.1089,548.934)" fill="#191924"/>
<use xlink:href="#font_0_57" transform="matrix(16,0,0,-16,241.9839,548.934)" fill="#191924"/>
<use xlink:href="#font_0_8c6" transform="matrix(16,0,0,-16,327.81593,530.35208)" fill="#191924"/>
<use xlink:href="#font_0_8e5" transform="matrix(16,0,0,-16,342.81593,530.81039)" fill="#191924"/>
<use xlink:href="#font_0_33" transform="matrix(16,0,0,-16,325.06593,548.934)" fill="#191924"/>
<use xlink:href="#font_0_4c" transform="matrix(16,0,0,-16,335.50343,548.934)" fill="#191924"/>
<use xlink:href="#font_0_51" transform="matrix(16,0,0,-16,341.12843,548.934)" fill="#191924"/>
<use xlink:href="#font_0_8c1" transform="matrix(16,0,0,-16,475.8994,529.36056)" fill="#191924"/>
<use xlink:href="#font_0_898" transform="matrix(16,0,0,-16,493.2744,531.17306)" fill="#191924"/>
<use xlink:href="#font_0_8aa" transform="matrix(16,0,0,-16,509.2744,530.75637)" fill="#191924"/>
<use xlink:href="#font_0_8e5" transform="matrix(16,0,0,-16,525.7119,530.50637)" fill="#191924"/>
<use xlink:href="#font_0_8a2" transform="matrix(16,0,0,-16,540.8369,531.11056)" fill="#191924"/>
<use xlink:href="#font_0_2b" transform="matrix(16,0,0,-16,475.8369,548.63)" fill="#191924"/>
<use xlink:href="#font_0_52" transform="matrix(16,0,0,-16,483.7119,548.63)" fill="#191924"/>
<use xlink:href="#font_0_58" transform="matrix(16,0,0,-16,491.9619,548.63)" fill="#191924"/>
<use xlink:href="#font_0_56" transform="matrix(16,0,0,-16,500.04527,548.63)" fill="#191924"/>
<use xlink:href="#font_0_4c" transform="matrix(16,0,0,-16,510.3994,548.63)" fill="#191924"/>
<use xlink:href="#font_0_51" transform="matrix(16,0,0,-16,516.0244,548.63)" fill="#191924"/>
<use xlink:href="#font_0_4a" transform="matrix(16,0,0,-16,523.7744,550.755)" fill="#191924"/>
<use xlink:href="#font_0_3" transform="matrix(16,0,0,-16,531.0869,548.755)" fill="#191924"/>
<use xlink:href="#font_0_b" transform="matrix(16,0,0,-16,542.7744,550.1925)" fill="#191924"/>
<use xlink:href="#font_0_2b" transform="matrix(16,0,0,-16,547.8369,548.63)" fill="#191924"/>
<use xlink:href="#font_0_58" transform="matrix(16,0,0,-16,555.9619,548.63)" fill="#191924"/>
<use xlink:href="#font_0_45" transform="matrix(16,0,0,-16,563.8994,548.63)" fill="#191924"/>
<use xlink:href="#font_0_c" transform="matrix(16,0,0,-16,571.5244,550.1925)" fill="#191924"/>
<symbol id="font_0_46">
<path d="M .30859376 .3515625 C .3033854 .39322917 .29166667 .4231771 .2734375 .44140626 C .2578125 .45703126 .23828125 .46484376 .21484375 .46484376 C .18619792 .46484376 .16015625 .453125 .13671875 .4296875 C .10546875 .3984375 .08984375 .33984376 .08984375 .25390626 C .08984375 .18359375 .104166667 .13411458 .1328125 .10546875 C .15625 .08203125 .18229167 .0703125 .2109375 .0703125 C .23697917 .0703125 .26041667 .080729167 .28125 .1015625 C .30729167 .12760417 .3190104 .16927083 .31640626 .2265625 L .40625 .2265625 C .40885417 .15364583 .3893229 .096354167 .34765626 .0546875 C .3111979 .018229166 .265625 0 .2109375 0 C .15625 0 .108072917 .020833334 .06640625 .0625 C .022135416 .106770839 0 .17057292 0 .25390626 C 0 .3502604 .024739584 .4231771 .07421875 .47265626 C .115885417 .51432296 .16276042 .53515627 .21484375 .53515627 C .2669271 .53515627 .30859376 .51953127 .33984376 .48828126 C .3736979 .4544271 .3919271 .40885417 .39453126 .3515625 L .30859376 .3515625 Z "/>
</symbol>
<symbol id="font_0_f">
<path d="M .0390625 0 L 0 0 L .0390625 .10546875 L 0 .10546875 L 0 .19140625 L .08984375 .19140625 L .08984375 .10546875 L .0390625 0 Z "/>
</symbol>
<symbol id="font_0_47">
<path d="M .3203125 .078125 C .27864585 .026041666 .23177083 0 .1796875 0 C .140625 0 .102864589 .018229166 .06640625 .0546875 C .022135416 .098958339 0 .17317708 0 .27734376 C 0 .36328126 .024739584 .4309896 .07421875 .48046876 C .110677089 .51692709 .15104167 .53515627 .1953125 .53515627 C .2421875 .53515627 .28385417 .515625 .3203125 .4765625 L .3203125 .76171877 L .3984375 .76171877 L .3984375 0 L .3203125 0 L .3203125 .078125 M .203125 .46484376 C .1796875 .46484376 .15755208 .4544271 .13671875 .43359376 C .102864589 .3997396 .0859375 .3450521 .0859375 .26953126 C .0859375 .18359375 .100260417 .12630208 .12890625 .09765625 C .14713542 .079427089 .17057292 .0703125 .19921875 .0703125 C .22265625 .0703125 .24609375 .08203125 .26953126 .10546875 C .3033854 .13932292 .3203125 .19661458 .3203125 .27734376 C .3203125 .3502604 .3033854 .40364585 .26953126 .4375 C .2513021 .45572917 .22916667 .46484376 .203125 .46484376 Z "/>
</symbol>
<symbol id="font_0_48">
<path d="M .3984375 .18359375 C .390625 .12630208 .37109376 .08203125 .33984376 .05078125 C .3059896 .016927084 .26302085 0 .2109375 0 C .15364583 0 .108072917 .016927084 .07421875 .05078125 C .024739584 .100260417 0 .171875 0 .265625 C 0 .36197917 .022135416 .43229167 .06640625 .4765625 C .10546875 .515625 .15234375 .53515627 .20703125 .53515627 C .2513021 .53515627 .29166667 .51953127 .328125 .48828126 C .375 .44921876 .3971354 .375 .39453126 .265625 L .0859375 .265625 C .0859375 .1796875 .1015625 .125 .1328125 .1015625 C .15104167 .083333339 .17708333 .07421875 .2109375 .07421875 C .23958333 .07421875 .26302085 .083333339 .28125 .1015625 C .296875 .1171875 .3059896 .14453125 .30859376 .18359375 L .3984375 .18359375 M .3046875 .328125 C .30729167 .38020835 .2955729 .41796876 .26953126 .44140626 C .24609375 .4622396 .22265625 .47135417 .19921875 .46875 C .17317708 .46614585 .1484375 .453125 .125 .4296875 C .104166667 .40885417 .091145839 .375 .0859375 .328125 L .3046875 .328125 Z "/>
</symbol>
<use xlink:href="#font_0_44" transform="matrix(20,0,0,-20,672.7531,258.19526)" fill="#191924"/>
<use xlink:href="#font_0_45" transform="matrix(20,0,0,-20,621.73129,253.47528)" fill="#191924"/>
<use xlink:href="#font_0_46" transform="matrix(20,0,0,-20,597.53506,345.87528)" fill="#191924"/>
<use xlink:href="#font_0_f" transform="matrix(20,0,0,-20,608.3944,347.98466)" fill="#191924"/>
<use xlink:href="#font_0_47" transform="matrix(20,0,0,-20,617.4569,345.87528)" fill="#191924"/>
<use xlink:href="#font_0_48" transform="matrix(20,0,0,-20,698.6313,336.45527)" fill="#191924"/>
<use xlink:href="#font_0_f" transform="matrix(20,0,0,-20,709.3344,338.56465)" fill="#191924"/>
<use xlink:href="#font_0_49" transform="matrix(20,0,0,-20,718.55319,336.45527)" fill="#191924"/>
<use xlink:href="#font_0_4a" transform="matrix(20,0,0,-20,606.5751,279.83155)" fill="#191924"/>
<path transform="matrix(1,0,0,-1,171.3,411.19)" stroke-width="1" stroke-linecap="butt" stroke-miterlimit="10" stroke-linejoin="miter" fill="none" stroke="#191924" d="M 0 0 L .1 -.9 L .1 -1.7 L .3 -2.5 L .5 -3.2 L .8 -4 L 1.1 -4.8 L 1.4 -5.5 L 1.9 -6.2 L 2.3 -6.8 L 2.9 -7.5 L 3.4 -8.1 L 4 -8.6 L 4.7 -9.1 L 5.4 -9.5 L 6.1 -9.9 L 6.8 -10.3 L 7.6 -10.6 L 8.3 -10.8 L 9.1 -11 L 9.9 -11.1 L 10.7 -11.2 L 11.6 -11.2 L 12.4 -11.1 L 13.2 -11 L 14 -10.8 L 14.7 -10.6 L 15.5 -10.3 L 16.2 -9.9 L 16.9 -9.5 L 17.6 -9.1 L 18.3 -8.6 L 18.9 -8.1 L 19.4 -7.5 L 20 -6.8 L 20.4 -6.2 L 20.8 -5.5 L 21.2 -4.8 L 21.5 -4 L 21.8 -3.2 L 22 -2.5 L 22.2 -1.7 L 22.2 -.9 L 22.3 0 M 22.3 31.2 L 22.2 32 L 22.2 32.8 L 22 33.6 L 21.8 34.4 L 21.5 35.1 L 21.2 35.9 L 20.8 36.6 L 20.4 37.3 L 20 38 L 19.4 38.6 L 18.9 39.2 L 18.3 39.7 L 17.6 40.2 L 16.9 40.7 L 16.2 41 L 15.5 41.4 L 14.7 41.7 L 14 41.9 L 13.2 42.1 L 12.4 42.2 L 11.6 42.3 L 10.7 42.3 L 9.9 42.2 L 9.1 42.1 L 8.3 41.9 L 7.6 41.7 L 6.8 41.4 L 6.1 41 L 5.4 40.7 L 4.7 40.2 L 4 39.7 L 3.4 39.2 L 2.9 38.6 L 2.3 38 L 1.9 37.3 L 1.4 36.6 L 1.1 35.9 L .8 35.1 L .5 34.4 L .3 33.6 L .1 32.8 L .1 32 L 0 31.2 M 384.6 14.1 L 384.6 13.3 L 384.7 12.5 L 384.9 11.7 L 385.1 10.9 L 385.3 10.2 L 385.6 9.4 L 386 8.7 L 386.4 8 L 386.9 7.3 L 387.4 6.7 L 388 6.1 L 388.6 5.6 L 389.2 5.1 L 389.9 4.6 L 390.6 4.2 L 391.4 3.9 L 392.1 3.6 L 392.9 3.4 L 393.7 3.2 L 394.5 3.1 L 395.3 3 L 396.1 3 L 396.9 3.1 L 397.7 3.2 L 398.5 3.4 L 399.3 3.6 L 400.1 3.9 L 400.8 4.2 L 401.5 4.6 L 402.2 5.1 L 402.8 5.6 L 403.4 6.1 L 404 6.7 L 404.5 7.3 L 405 8 L 405.4 8.7 L 405.8 9.4 L 406.1 10.2 L 406.4 10.9 L 406.6 11.7 L 406.7 12.5 L 406.8 13.3 L 406.8 14.1 M 406.8 45.3 L 406.8 46.1 L 406.7 46.9 L 406.6 47.7 L 406.4 48.5 L 406.1 49.3 L 405.8 50.1 L 405.4 50.8 L 405 51.5 L 404.5 52.1 L 404 52.8 L 403.4 53.3 L 402.8 53.9 L 402.2 54.4 L 401.5 54.8 L 400.8 55.2 L 400.1 55.6 L 399.3 55.9 L 398.5 56.1 L 397.7 56.3 L 396.9 56.4 L 396.1 56.4 L 395.3 56.4 L 394.5 56.4 L 393.7 56.3 L 392.9 56.1 L 392.1 55.9 L 391.4 55.6 L 390.6 55.2 L 389.9 54.8 L 389.2 54.4 L 388.6 53.9 L 388 53.3 L 387.4 52.8 L 386.9 52.1 L 386.4 51.5 L 386 50.8 L 385.6 50.1 L 385.3 49.3 L 385.1 48.5 L 384.9 47.7 L 384.7 46.9 L 384.6 46.1 L 384.6 45.3 "/>
<path transform="matrix(1,0,0,-1,413,368.99003)" stroke-width="1" stroke-linecap="butt" stroke-miterlimit="10" stroke-linejoin="miter" fill="none" stroke="#191924" d="M 0 0 L -.9 0 L -1.7 -.1 L -2.5 -.2 L -3.2 -.4 L -4 -.7 L -4.8 -1 L -5.5 -1.4 L -6.2 -1.8 L -6.8 -2.3 L -7.5 -2.8 L -8.1 -3.4 L -8.6 -4 L -9.1 -4.6 L -9.5 -5.3 L -9.9 -6 L -10.3 -6.7 L -10.6 -7.5 L -10.8 -8.3 L -11 -9.1 L -11.1 -9.9 L -11.2 -10.7 L -11.2 -11.5 L -11.1 -12.3 L -11 -13.1 L -10.8 -13.9 L -10.6 -14.7 L -10.3 -15.4 L -9.9 -16.2 L -9.5 -16.9 L -9.1 -17.5 L -8.6 -18.2 L -8.1 -18.8 L -7.5 -19.4 L -6.8 -19.9 L -6.2 -20.3 L -5.5 -20.8 L -4.8 -21.1 L -4 -21.5 L -3.2 -21.7 L -2.5 -21.9 L -1.7 -22.1 L -.9 -22.2 L 0 -22.2 M 31.2 -22.2 L 32 -22.2 L 32.8 -22.1 L 33.6 -21.9 L 34.4 -21.7 L 35.1 -21.5 L 35.9 -21.1 L 36.6 -20.8 L 37.3 -20.3 L 38 -19.9 L 38.6 -19.4 L 39.2 -18.8 L 39.7 -18.2 L 40.2 -17.5 L 40.6 -16.9 L 41 -16.2 L 41.4 -15.4 L 41.7 -14.7 L 41.9 -13.9 L 42.1 -13.1 L 42.2 -12.3 L 42.3 -11.5 L 42.3 -10.7 L 42.2 -9.9 L 42.1 -9.1 L 41.9 -8.3 L 41.7 -7.5 L 41.4 -6.7 L 41 -6 L 40.6 -5.3 L 40.2 -4.6 L 39.7 -4 L 39.2 -3.4 L 38.6 -2.8 L 38 -2.3 L 37.3 -1.8 L 36.6 -1.4 L 35.9 -1 L 35.1 -.7 L 34.4 -.4 L 33.6 -.2 L 32.8 -.1 L 32 0 L 31.2 0 "/>
<path transform="matrix(1,0,0,-1,382.3208,283.60383)" stroke-width="1" stroke-linecap="round" stroke-dasharray="86.4,3.6,3.6,3.6" stroke-linejoin="round" fill="none" stroke="#191924" d="M 0 0 L 0 8.504 "/>
<path transform="matrix(1,0,0,-1,368.1475,297.77705)" stroke-width="1" stroke-linecap="round" stroke-dasharray="86.4,3.6,3.6,3.6" stroke-dashoffset="21.53" stroke-linejoin="round" fill="none" stroke="#191924" d="M 0 0 L -140.54 0 "/>
<path transform="matrix(1,0,0,-1,382.3208,311.95033)" stroke-width="1" stroke-linecap="round" stroke-dasharray="86.4,3.6,3.6,3.6" stroke-linejoin="round" fill="none" stroke="#191924" d="M 0 0 L 0 -8.504 "/>
<path transform="matrix(1,0,0,-1,396.494,297.77705)" stroke-width="1" stroke-linecap="round" stroke-dasharray="86.4,3.6,3.6,3.6" stroke-dashoffset="21.698" stroke-linejoin="round" fill="none" stroke="#191924" d="M 0 0 L 140.204 0 "/>
<path transform="matrix(1,0,0,-1,654.6208,269.4306)" stroke-width="1" stroke-linecap="round" stroke-dasharray="86.4,3.6,3.6,3.6" stroke-dashoffset="81.879" stroke-linejoin="round" fill="none" stroke="#191924" d="M 0 0 L 0 19.843 "/>
<path transform="matrix(1,0,0,-1,626.2743,297.77705)" stroke-width="1" stroke-linecap="round" stroke-dasharray="86.4,3.6,3.6,3.6" stroke-dashoffset="81.879" stroke-linejoin="round" fill="none" stroke="#191924" d="M 0 0 L -19.843 0 "/>
<path transform="matrix(1,0,0,-1,654.6208,326.12355)" stroke-width="1" stroke-linecap="round" stroke-dasharray="86.4,3.6,3.6,3.6" stroke-dashoffset="81.879" stroke-linejoin="round" fill="none" stroke="#191924" d="M 0 0 L 0 -19.842 "/>
<path transform="matrix(1,0,0,-1,682.9672,297.77705)" stroke-width="1" stroke-linecap="round" stroke-dasharray="86.4,3.6,3.6,3.6" stroke-dashoffset="81.879" stroke-linejoin="round" fill="none" stroke="#191924" d="M 0 0 L 19.843 0 "/>
<path transform="matrix(1,0,0,-1,382.3,297.79005)" stroke-width="1" stroke-linecap="round" stroke-linejoin="round" fill="none" stroke="#191924" d="M 0 0 L 0 14.1 M 0 0 L -14.2 0 M 0 0 L 0 -14.2 M 0 0 L 14.1 0 "/>
<path transform="matrix(1,0,0,-1,654.6,297.79005)" stroke-width="1" stroke-linecap="round" stroke-linejoin="round" fill="none" stroke="#191924" d="M 0 0 L 0 14.1 M 0 0 L -14.2 0 M 0 0 L 0 -14.2 M 0 0 L 14.1 0 "/>
<path transform="matrix(1,0,0,-1,234.1989,457.94563)" stroke-width="1" stroke-linecap="round" stroke-dasharray="86.4,3.6,3.6,3.6" stroke-dashoffset="-8.192" stroke-linejoin="round" fill="none" stroke="#191924" d="M 0 0 L 297.184 0 "/>
<path transform="matrix(1,0,0,-1,382.3208,496.49684)" stroke-width="1" stroke-linecap="round" stroke-dasharray="86.4,3.6,3.6,3.6" stroke-dashoffset="53.249" stroke-linejoin="round" fill="none" stroke="#191924" d="M 0 0 L 0 77.102 "/>
<path transform="matrix(1,0,0,-1,210.6,551.49)" stroke-width="1" stroke-linecap="round" stroke-linejoin="round" fill="none" stroke="#191924" d="M 0 0 L 64.1 0 M 64.1 0 L 90.4 70.8 M 90.4 70.8 L 91.1 60.6 M 83.2 63.5 L 90.4 70.8 M 114.9 0 L 147 0 M 147 0 L 166.9 59.5 M 166.9 59.5 L 168 49.3 M 159.9 51.9 L 166.9 59.5 M 367 .3 L 263.1 .3 M 263.1 .3 L 239.8 59.5 M 239.8 59.5 L 247.2 52.3 M 239.3 49.2 L 239.8 59.5 "/>
<path transform="matrix(1,0,0,-1,680.3,261.29005)" stroke-width="1" stroke-linecap="round" stroke-linejoin="round" fill="none" stroke="#191924" d="M 0 0 L -9.8 0 M -9.8 0 L -20.3 -21.9 M -58.2 4.7 L -48.1 4.7 M -48.1 4.7 L -38 -11.2 M -82.3 -87.6 L -52.2 -87.6 M -52.2 -87.6 L -37.9 -45 M -37.9 -45 L -36.9 -55.3 M -44.9 -52.6 L -37.9 -45 M 45.8 -78.2 L 15.9 -78.2 M 15.9 -78.2 L 1.2 -45 M 1.2 -45 L 8.9 -51.9 M 1.1 -55.3 L 1.2 -45 M -73.2 -19 L -63.1 -19 M -63.1 -19 L -46.8 -36.3 M -46.8 -36.3 L -56.3 -32.4 M -50.1 -26.6 L -46.8 -36.3 "/>
<path transform="matrix(1,0,0,-1,633.5984,289.27314)" stroke-width="1" stroke-linecap="round" stroke-dasharray="86.4,3.6,3.6,3.6" stroke-dashoffset="83.296" stroke-linejoin="round" fill="none" stroke="#0000ff" d="M 0 0 L 0 -17.008 "/>
<path transform="matrix(1,0,0,-1,675.6431,289.27314)" stroke-width="1" stroke-linecap="round" stroke-dasharray="86.4,3.6,3.6,3.6" stroke-dashoffset="83.296" stroke-linejoin="round" fill="none" stroke="#0000ff" d="M 0 0 L 0 -17.008 "/>
<path transform="matrix(1,0,0,-1,171.3,411.19)" stroke-width="1" stroke-linecap="round" stroke-linejoin="round" fill="none" stroke="#191924" d="M 0 0 L 0 31.2 M 22.3 31.2 L 22.3 0 M 68.1 -24.1 L 23.9 -24.1 M 68.1 -69.5 L 23.9 -69.5 M 26.7 -24.1 L 26.7 31.2 M 26.7 -24.1 L 26.7 -69.5 M 26.7 -24.1 L 31 -33.5 M 22.5 -33.5 L 26.7 -24.1 M 26.7 -69.5 L 22.5 -60.1 M 31 -60.1 L 26.7 -69.5 M 384.6 14.1 L 384.6 45.3 M 406.8 45.3 L 406.8 14.1 M 353.8 -12.8 L 414.1 -12.8 M 353.8 -80.8 L 414.1 -80.8 M 411.3 -12.8 L 411.3 45.3 M 411.3 -12.8 L 411.3 -80.8 M 411.3 -12.8 L 415.5 -22.1 M 407 -22.1 L 411.3 -12.8 M 411.3 -80.8 L 407 -71.5 M 415.5 -71.5 L 411.3 -80.8 "/>
<path transform="matrix(1,0,0,-1,413,368.99003)" stroke-width="1" stroke-linecap="round" stroke-linejoin="round" fill="none" stroke="#191924" d="M 0 0 L 31.2 0 M 31.2 -22.2 L 0 -22.2 M -39.2 -52.2 L -39.2 -23.8 M -22.2 -52.2 L -22.2 -23.8 M -39.2 -26.6 L -57.2 -26.6 M -39.2 -26.6 L -22.2 -26.6 M -22.2 -26.6 L 31.2 -26.6 M -39.2 -26.6 L -48.6 -30.9 M -48.6 -22.4 L -39.2 -26.6 M -22.2 -26.6 L -12.9 -22.4 M -12.9 -30.9 L -22.2 -26.6 "/>
<path transform="matrix(1,0,0,-1,658.8,285.69)" d="M 0 0 L .4 -.2 L .8 -.3 L 1.2 -.3 L 1.6 -.3 L 2 -.2 L 2.4 -.1 L 2.7 .1 L 3 .3 L 3.3 .6 L 3.6 .9 L 3.8 1.3 L 3.9 1.7 L 4 2.1 L 4.1 2.5 L 4 2.9 L 4 3.3 L 3.8 3.6 L 3.6 4 L 3.4 4.3 L 3.1 4.6 L 2.8 4.9 L 2.4 5.1 L 2.1 5.2 L 1.7 5.3 L 1.3 5.3 L .9 5.3 L .5 5.2 L .1 5.1 L -.3 4.9 L -.6 4.7 L -.9 4.4 L -1.1 4.1 L -1.3 3.7 L -1.5 3.4 L -1.6 3 L -1.6 2.6 L -1.6 2.2 L -1.5 1.8 L -1.4 1.4 L -1.2 1 L -.9 .7 L -.7 .4 L -.3 .2 L 0 0 L 1.2 2.5 M -15 10.9 L -14.7 11.1 L -14.4 11.4 L -14.2 11.7 L -14 12.1 L -13.8 12.4 L -13.7 12.8 L -13.7 13.2 L -13.7 13.6 L -13.8 14 L -14 14.4 L -14.2 14.8 L -14.4 15.1 L -14.7 15.4 L -15 15.6 L -15.4 15.8 L -15.7 16 L -16.1 16 L -16.5 16.1 L -16.9 16.1 L -17.3 16 L -17.7 15.8 L -18.1 15.6 L -18.4 15.4 L -18.7 15.1 L -18.9 14.8 L -19.1 14.4 L -19.3 14.1 L -19.3 13.7 L -19.4 13.3 L -19.4 12.9 L -19.3 12.5 L -19.1 12.1 L -18.9 11.7 L -18.7 11.4 L -18.4 11.1 L -18.1 10.9 L -17.7 10.7 L -17.4 10.5 L -17 10.4 L -16.6 10.4 L -16.2 10.4 L -15.8 10.5 L -15.4 10.7 L -15 10.9 L -16.5 13.2 " fill="#191924"/>
<path transform="matrix(1,0,0,-1,242.2,320.49)" stroke-width="1" stroke-linecap="round" stroke-linejoin="round" fill="none" stroke="#000000" d="M 0 0 L 94.7 0 M 94.7 45.3 L 0 45.3 M 0 45.3 L -1.7 43.6 M -1.7 1.7 L 0 0 M 280.1 -11.4 L 281.8 -9.7 M 281.8 55 L 280.1 56.7 M 280.1 56.7 L 96.4 56.7 M 96.4 -11.4 L 280.1 -11.4 M 96.4 56.7 L 94.7 55 M 94.7 -9.7 L 96.4 -11.4 M 140.1 31.2 L 141.4 31.1 L 142.7 30.8 L 143.9 30.2 L 145.1 29.5 L 146.1 28.7 L 147 27.7 L 147.6 26.5 L 148.2 25.3 L 148.5 24 L 148.6 22.7 L 148.5 21.3 L 148.2 20 L 147.6 18.8 L 147 17.7 L 146.1 16.6 L 145.1 15.8 L 143.9 15.1 L 142.7 14.6 L 141.4 14.3 L 140.1 14.2 L 138.7 14.3 L 137.4 14.6 L 136.2 15.1 L 135.1 15.8 L 134.1 16.6 L 133.2 17.7 L 132.5 18.8 L 132 20 L 131.7 21.3 L 131.6 22.7 L 131.7 24 L 132 25.3 L 132.5 26.5 L 133.2 27.7 L 134.1 28.7 L 135.1 29.5 L 136.2 30.2 L 137.4 30.8 L 138.7 31.1 L 140.1 31.2 M 140.1 30 L 138.8 29.9 L 137.6 29.6 L 136.5 29.1 L 135.4 28.4 L 134.5 27.5 L 133.8 26.5 L 133.2 25.4 L 132.9 24.2 L 132.7 23 L 132.8 21.7 L 133 20.5 L 133.5 19.3 L 134.1 18.3 L 135 17.3 L 135.9 16.6 L 137 15.9 L 138.2 15.5 L 139.4 15.3 L 140.7 15.3 L 141.9 15.5 L 143.1 15.9 L 144.2 16.6 L 145.2 17.3 L 146 18.3 L 146.7 19.3 L 147.1 20.5 L 147.4 21.7 L 147.4 23 L 147.3 24.2 L 146.9 25.4 L 146.3 26.5 L 145.6 27.5 L 144.7 28.4 L 143.7 29.1 L 142.5 29.6 L 141.3 29.9 L 140.1 30 M 0 22.7 L 0 20.5 L 0 18.4 L 0 16.3 L 0 14.2 L 0 12.3 L 0 10.4 L 0 8.6 L 0 7 L 0 5.5 L 0 4.2 L 0 3 L 0 2 L 0 1.2 L 0 .6 L 0 .2 L 0 0 M 0 45.3 L 0 45.3 L 0 45.1 L 0 44.7 L 0 44.1 L 0 43.3 L 0 42.3 L 0 41.1 L 0 39.8 L 0 38.3 L 0 36.7 L 0 34.9 L 0 33.1 L 0 31.1 L 0 29.1 L 0 27 L 0 24.8 L 0 22.7 M -1.7 22.7 L -1.7 24.8 L -1.7 26.8 L -1.7 28.8 L -1.7 30.8 L -1.7 32.7 L -1.7 34.5 L -1.7 36.1 L -1.7 37.7 L -1.7 39.1 L -1.7 40.3 L -1.7 41.3 L -1.7 42.2 L -1.7 42.9 L -1.7 43.3 L -1.7 43.6 M -1.7 1.7 L -1.7 1.7 L -1.7 2 L -1.7 2.5 L -1.7 3.1 L -1.7 4 L -1.7 5 L -1.7 6.3 L -1.7 7.6 L -1.7 9.2 L -1.7 10.8 L -1.7 12.6 L -1.7 14.5 L -1.7 16.5 L -1.7 18.5 L -1.7 20.6 L -1.7 22.7 M 281.8 22.7 L 281.8 20.1 L 281.8 17.5 L 281.8 15 L 281.8 12.6 L 281.8 10.1 L 281.8 7.8 L 281.8 5.6 L 281.8 3.5 L 281.8 1.5 L 281.8 -.4 L 281.8 -2.1 L 281.8 -3.7 L 281.8 -5.1 L 281.8 -6.3 L 281.8 -7.4 L 281.8 -8.2 L 281.8 -8.9 L 281.8 -9.3 L 281.8 -9.6 L 281.8 -9.7 M 281.8 55 L 281.8 54.9 L 281.8 54.7 L 281.8 54.2 L 281.8 53.6 L 281.8 52.7 L 281.8 51.7 L 281.8 50.4 L 281.8 49 L 281.8 47.5 L 281.8 45.7 L 281.8 43.9 L 281.8 41.9 L 281.8 39.7 L 281.8 37.5 L 281.8 35.2 L 281.8 32.8 L 281.8 30.3 L 281.8 27.8 L 281.8 25.2 L 281.8 22.7 M 280.1 22.7 L 280.1 25.3 L 280.1 27.9 L 280.1 30.5 L 280.1 33 L 280.1 35.5 L 280.1 37.9 L 280.1 40.2 L 280.1 42.4 L 280.1 44.5 L 280.1 46.5 L 280.1 48.3 L 280.1 49.9 L 280.1 51.4 L 280.1 52.8 L 280.1 53.9 L 280.1 54.8 L 280.1 55.6 L 280.1 56.2 L 280.1 56.5 L 280.1 56.7 M 280.1 -11.4 L 280.1 -11.3 L 280.1 -11.2 L 280.1 -10.8 L 280.1 -10.3 L 280.1 -9.5 L 280.1 -8.6 L 280.1 -7.4 L 280.1 -6.1 L 280.1 -4.6 L 280.1 -3 L 280.1 -1.2 L 280.1 .8 L 280.1 2.9 L 280.1 5.1 L 280.1 7.4 L 280.1 9.8 L 280.1 12.3 L 280.1 14.8 L 280.1 17.4 L 280.1 20 L 280.1 22.7 M 131.6 22.7 L 131.7 21.3 L 132 19.9 L 132.6 18.6 L 133.4 17.4 L 134.3 16.4 L 135.4 15.5 L 136.7 14.8 L 138.1 14.4 L 139.5 14.2 L 140.9 14.2 L 142.3 14.5 L 143.6 14.9 L 144.8 15.6 L 145.9 16.5 L 146.9 17.5 L 147.6 18.8 L 148.2 20.1 L 148.5 21.5 L 148.6 22.9 L 148.4 24.3 L 148 25.7 L 147.4 26.9 L 146.6 28.1 L 145.7 29.1 L 144.5 29.9 L 143.2 30.6 L 141.8 31 L 140.4 31.2 L 139 31.1 L 137.6 30.8 L 136.3 30.3 L 135.1 29.6 L 134.1 28.7 L 133.1 27.6 L 132.4 26.3 L 131.9 25 L 131.6 22.7 M 96.4 22.7 L 96.4 20 L 96.4 17.4 L 96.4 14.8 L 96.4 12.3 L 96.4 9.8 L 96.4 7.4 L 96.4 5.1 L 96.4 2.9 L 96.4 .8 L 96.4 -1.2 L 96.4 -3 L 96.4 -4.6 L 96.4 -6.1 L 96.4 -7.4 L 96.4 -8.6 L 96.4 -9.5 L 96.4 -10.3 L 96.4 -10.8 L 96.4 -11.2 L 96.4 -11.3 L 96.4 -11.4 M 96.4 56.7 L 96.4 56.7 L 96.4 56.5 L 96.4 56.2 L 96.4 55.6 L 96.4 54.8 L 96.4 53.9 L 96.4 52.8 L 96.4 51.4 L 96.4 49.9 L 96.4 48.3 L 96.4 46.5 L 96.4 44.5 L 96.4 42.4 L 96.4 40.2 L 96.4 37.9 L 96.4 35.5 L 96.4 33 L 96.4 30.5 L 96.4 27.9 L 96.4 25.3 L 96.4 22.7 M 94.7 22.7 L 94.7 25.2 L 94.7 27.8 L 94.7 30.3 L 94.7 32.8 L 94.7 35.2 L 94.7 37.5 L 94.7 39.7 L 94.7 41.9 L 94.7 43.9 L 94.7 45.7 L 94.7 47.5 L 94.7 49 L 94.7 50.4 L 94.7 51.7 L 94.7 52.7 L 94.7 53.6 L 94.7 54.2 L 94.7 54.7 L 94.7 54.9 L 94.7 55 M 94.7 -9.7 L 94.7 -9.6 L 94.7 -9.3 L 94.7 -8.9 L 94.7 -8.2 L 94.7 -7.4 L 94.7 -6.3 L 94.7 -5.1 L 94.7 -3.7 L 94.7 -2.1 L 94.7 -.4 L 94.7 1.5 L 94.7 3.5 L 94.7 5.6 L 94.7 7.8 L 94.7 10.1 L 94.7 12.6 L 94.7 15 L 94.7 17.5 L 94.7 20.1 L 94.7 22.7 "/>
<path transform="matrix(1,0,0,-1,374.9,491.99003)" stroke-width="1" stroke-linecap="round" stroke-linejoin="round" fill="none" stroke="#000000" d="M 0 0 L -1.1 1.1 M 15.9 1.1 L 14.7 0 M 15.9 1.1 L 15.9 66.9 M 14.7 0 L 0 0 M -1.1 66.9 L -1.1 1.1 M -1.1 66.9 L 0 68 M 14.7 68 L 0 68 M 14.7 68 L 15.9 66.9 M -1.1 11.3 L -132.7 11.3 M 51 11.3 L 15.9 11.3 M 15.9 56.7 L 51 56.7 M -132.7 56.7 L -1.1 56.7 M -1.1 11.3 L -1.1 56.7 M 15.9 56.7 L 15.9 11.3 M -132.7 11.3 L -134.4 13 M -134.4 13 L -134.4 55 M -134.4 55 L -132.7 56.7 M 51 56.7 L 52.7 55 M 52.7 13 L 52.7 55 M 52.7 13 L 51 11.3 M -1.1 11.3 L -36.3 11.3 M -36.3 56.7 L -1.1 56.7 M 15.9 56.7 L 147.4 56.7 M 147.4 11.3 L 147.4 11.4 L 147.4 11.7 L 147.4 12.2 L 147.4 12.9 L 147.4 13.8 L 147.4 14.9 L 147.4 16.2 L 147.4 17.6 L 147.4 19.1 L 147.4 20.8 L 147.4 22.7 L 147.4 24.6 L 147.4 26.6 L 147.4 28.6 L 147.4 30.8 L 147.4 32.9 L 147.4 35.1 L 147.4 37.2 L 147.4 39.3 L 147.4 41.4 L 147.4 43.4 L 147.4 45.3 L 147.4 47.1 L 147.4 48.8 L 147.4 50.4 L 147.4 51.8 L 147.4 53.1 L 147.4 54.2 L 147.4 55 L 147.4 55.8 L 147.4 56.3 L 147.4 56.6 L 147.4 56.7 M 147.4 11.3 L 15.9 11.3 M -1.1 56.7 L -1.1 68 M 15.9 68 L 15.7 68 L 15.3 67.9 L 15 67.8 M -.2 67.8 L -.3 67.8 L -.8 67.9 L -1.1 68 M 15.9 68 L 15.9 56.7 M -1.1 0 L -1 0 L -.6 .1 L -.2 .2 M 15 .2 L 15 .2 L 15.5 .1 L 15.9 0 M -1.1 0 L -1.1 11.3 M 15.9 11.3 L 15.9 0 M 15.9 68 L 147.4 68 M -36.3 68 L -1.1 68 M -1.1 0 L -36.3 0 M 147.4 0 L 15.9 0 M 149.1 9.6 L 149.1 1.7 M 149.1 1.7 L 147.4 0 M 147.4 11.3 L 149.1 9.6 M 147.4 68 L 149.1 66.3 M 149.1 58.4 L 147.4 56.7 M 149.1 66.3 L 149.1 58.4 M -36.3 0 L -38 1.7 M -38 9.6 L -38 1.7 M -38 9.6 L -36.3 11.3 M -38 66.3 L -36.3 68 M -36.3 56.7 L -38 58.4 M -38 9.6 L -38 9.7 L -38 10 L -38 10.5 L -38 11.3 M -38 56.7 L -38 56.7 L -38 57.4 L -38 58 L -38 58.3 L -38 58.4 M 149.1 58.4 L 149.1 58.3 L 149.1 58 L 149.1 57.4 L 149.1 56.7 L 149.1 55.8 L 149.1 54.7 L 149.1 53.4 L 149.1 52 L 149.1 50.4 L 149.1 48.7 L 149.1 46.8 L 149.1 44.9 L 149.1 42.8 L 149.1 40.7 L 149.1 38.5 L 149.1 36.2 L 149.1 34 L 149.1 31.7 L 149.1 29.5 L 149.1 27.3 L 149.1 25.2 L 149.1 23.1 L 149.1 21.2 L 149.1 19.3 L 149.1 17.6 L 149.1 16 L 149.1 14.5 L 149.1 13.3 L 149.1 12.2 L 149.1 11.3 L 149.1 10.5 L 149.1 10 L 149.1 9.7 L 149.1 9.6 M -38 66.3 L -38 58.4 "/>
<path transform="matrix(1,0,0,-1,339.9,423.99003)" stroke-width="1" stroke-linecap="round" stroke-linejoin="round" fill="none" stroke="#191924" d="M 0 0 L -3 -3 M 12.7 0 L 1.4 -11.3 M 25.5 0 L 14.1 -11.3 M 33.9 -4.3 L 26.9 -11.3 M 57.9 -56.7 L 50.9 -63.7 M 70.6 -56.7 L 59.3 -68 M 83.3 -56.7 L 72 -68 M 96.1 -56.7 L 84.7 -68 M 108.8 -56.7 L 97.5 -68 M 121.5 -56.7 L 110.2 -68 M 134.2 -56.7 L 122.9 -68 M 147 -56.7 L 135.6 -68 M 159.7 -56.7 L 148.4 -68 M 172.4 -56.7 L 161.1 -68 M 183.8 -58.1 L 173.8 -68 M 50.9 0 L 50.9 0 M 63.7 0 L 52.3 -11.3 M 76.4 0 L 65 -11.3 M 89.1 0 L 77.8 -11.3 M 101.8 0 L 90.5 -11.3 M 114.6 0 L 103.2 -11.3 M 127.3 0 L 116 -11.3 M 140 0 L 128.7 -11.3 M 152.8 0 L 141.4 -11.3 M 165.5 0 L 154.1 -11.3 M 178.2 0 L 166.9 -11.3 M 184.1 -6.8 L 179.6 -11.3 M 7 -56.7 L -2.8 -66.5 M 19.7 -56.7 L 8.4 -68 M 32.4 -56.7 L 21.1 -68 M 33.9 -68 L 33.8 -68 M 50.9 -54.9 L 57.5 -56.7 M 50.9 -45.6 L 87.3 -55.4 M 50.9 -36.3 L 87.7 -46.2 M 50.9 -27 L 87.7 -36.8 M 50.9 -17.6 L 87.7 -27.5 M 62.1 -11.3 L 87.7 -18.2 M -99.4 -51.9 L -81.6 -56.7 M -99.4 -42.6 L -46.9 -56.7 M -99.4 -33.3 L -12.1 -56.7 M -99.4 -24 L 22.7 -56.7 M -99.4 -14.7 L 33.9 -50.4 M -77 -11.3 L 33.9 -41 M -42.3 -11.3 L 33.9 -31.7 M -7.5 -11.3 L 33.9 -22.4 M 27.3 -11.3 L 33.9 -13.1 M 50.9 -31 L 42.6 0 M 50.9 -65.7 L 33.9 -2.3 M 42.2 -68 L 33.9 -37 "/>
<path transform="matrix(1,0,0,-1,621.7,306.29005)" stroke-width="1" stroke-linecap="round" stroke-linejoin="round" fill="none" stroke="#000000" d="M 0 0 L 65.8 0 M 0 0 L -1.1 1.1 M -1.1 1.1 L -1.1 15.8 M -1.1 15.8 L 0 17 M 65.8 17 L 0 17 M 65.8 17 L 66.9 15.8 M 66.9 1.1 L 66.9 15.8 M 66.9 1.1 L 65.8 0 M 11.8 17 L 53.9 17 M 53.9 0 L 11.8 0 M 53.9 0 L 53.2 -1.6 L 52.4 -3.1 L 51.5 -4.5 L 50.5 -5.8 L 49.4 -7.1 L 48.2 -8.3 L 46.9 -9.3 L 45.5 -10.3 L 44.1 -11.2 L 42.6 -12 L 41.1 -12.7 L 39.5 -13.2 L 37.9 -13.7 L 36.2 -14 L 34.6 -14.2 L 32.9 -14.2 L 31.2 -14.2 L 29.5 -14 L 27.9 -13.7 L 26.2 -13.2 L 24.7 -12.7 L 23.1 -12 L 21.6 -11.2 L 20.2 -10.3 L 18.8 -9.3 L 17.6 -8.3 L 16.4 -7.1 L 15.3 -5.8 L 14.2 -4.5 L 13.3 -3.1 L 12.5 -1.6 L 11.8 0 M 11.8 17 L 12.5 18.5 L 13.3 20 L 14.2 21.4 L 15.3 22.7 L 16.4 24 L 17.6 25.2 L 18.8 26.3 L 20.2 27.3 L 21.6 28.2 L 23.1 28.9 L 24.7 29.6 L 26.2 30.1 L 27.9 30.6 L 29.5 30.9 L 31.2 31.1 L 32.9 31.1 L 34.6 31.1 L 36.2 30.9 L 37.9 30.6 L 39.5 30.1 L 41.1 29.6 L 42.6 28.9 L 44.1 28.2 L 45.5 27.3 L 46.9 26.3 L 48.2 25.2 L 49.4 24 L 50.5 22.7 L 51.5 21.4 L 52.4 20 L 53.2 18.5 L 53.9 17 M 53.9 17 L 65.8 17 M 65.8 0 L 65.8 0 M 65.8 16.9 L 65.8 16.9 L 65.8 17 M 65.8 0 L 53.9 0 M -.1 17 L -.1 16.9 M -.1 0 L -.1 0 M -.1 17 L 11.8 17 M 11.8 0 L -.1 0 M 65.8 0 L 65.2 -2 L 64.6 -3.9 L 63.8 -5.8 L 62.8 -7.6 L 61.8 -9.4 L 60.7 -11.1 L 59.5 -12.7 L 58.2 -14.3 L 56.8 -15.7 L 55.3 -17.1 L 53.7 -18.4 L 52.1 -19.6 L 50.3 -20.7 L 48.6 -21.7 L 46.7 -22.6 L 44.8 -23.4 L 42.9 -24 L 40.9 -24.6 L 39 -25 L 36.9 -25.3 L 34.9 -25.5 L 32.9 -25.6 L 30.8 -25.5 L 28.8 -25.3 L 26.8 -25 L 24.8 -24.6 L 22.8 -24 L 20.9 -23.4 L 19 -22.6 L 17.2 -21.7 L 15.4 -20.7 L 13.7 -19.6 L 12 -18.4 L 10.5 -17.1 L 9 -15.7 L 7.6 -14.3 L 6.3 -12.7 L 5 -11.1 L 3.9 -9.4 L 2.9 -7.6 L 2 -5.8 L 1.2 -3.9 L .5 -2 L -.1 0 M 53.9 0 L 53.2 -1.6 L 52.4 -3.1 L 51.5 -4.5 L 50.5 -5.8 L 49.4 -7.1 L 48.2 -8.3 L 46.9 -9.3 L 45.5 -10.3 L 44.1 -11.2 L 42.6 -12 L 41.1 -12.7 L 39.5 -13.2 L 37.9 -13.7 L 36.2 -14 L 34.6 -14.2 L 32.9 -14.2 L 31.2 -14.2 L 29.5 -14 L 27.9 -13.7 L 26.2 -13.2 L 24.7 -12.7 L 23.1 -12 L 21.6 -11.2 L 20.2 -10.3 L 18.8 -9.3 L 17.6 -8.3 L 16.4 -7.1 L 15.3 -5.8 L 14.2 -4.5 L 13.3 -3.1 L 12.5 -1.6 L 11.8 0 M -.1 17 L .5 18.9 L 1.2 20.8 L 2 22.7 L 2.9 24.5 L 3.9 26.3 L 5 28 L 6.3 29.6 L 7.6 31.2 L 9 32.7 L 10.5 34.1 L 12 35.4 L 13.7 36.6 L 15.4 37.7 L 17.2 38.6 L 19 39.5 L 20.9 40.3 L 22.8 41 L 24.8 41.5 L 26.8 41.9 L 28.8 42.2 L 30.8 42.4 L 32.9 42.5 L 34.9 42.4 L 36.9 42.2 L 39 41.9 L 40.9 41.5 L 42.9 41 L 44.8 40.3 L 46.7 39.5 L 48.6 38.6 L 50.3 37.7 L 52.1 36.6 L 53.7 35.4 L 55.3 34.1 L 56.8 32.7 L 58.2 31.2 L 59.5 29.6 L 60.7 28 L 61.8 26.3 L 62.8 24.5 L 63.8 22.7 L 64.6 20.8 L 65.2 18.9 L 65.8 17 M 11.8 17 L 12.5 18.5 L 13.3 20 L 14.2 21.4 L 15.3 22.7 L 16.4 24 L 17.6 25.2 L 18.8 26.3 L 20.2 27.3 L 21.6 28.2 L 23.1 28.9 L 24.7 29.6 L 26.2 30.1 L 27.9 30.6 L 29.5 30.9 L 31.2 31.1 L 32.9 31.1 L 34.6 31.1 L 36.2 30.9 L 37.9 30.6 L 39.5 30.1 L 41.1 29.6 L 42.6 28.9 L 44.1 28.2 L 45.5 27.3 L 46.9 26.3 L 48.2 25.2 L 49.4 24 L 50.5 22.7 L 51.5 21.4 L 52.4 20 L 53.2 18.5 L 53.9 17 "/>
<path transform="matrix(1,0,0,-1,650.1,264.09004)" stroke-width="1" stroke-linecap="round" stroke-linejoin="round" fill="none" stroke="#191924" d="M 0 0 L -7 -7 M 12.2 -.6 L 1.5 -11.3 M 21.3 -4.2 L 16 -9.5 M 28.5 -9.7 L 20.5 -17.7 M 34 -16.9 L 25.7 -25.2 M -16.8 -42.2 L -25.1 -50.6 M -11.8 -50 L -19.6 -57.8 M -3.9 -54.8 L -12.4 -63.3 M 7.4 -56.2 L -3.2 -66.9 M 34.2 -42.2 L 33.3 -43.1 M -13.5 -47.6 L -11.2 -48.2 M 1.4 -42.2 L 22.2 -47.8 M -13.3 -19.7 L 7.5 -25.2 M -4.2 -12.8 L 9.6 -16.5 M 34.7 -42.2 L 30.1 -25.2 M 25.4 -42.2 L 20.8 -25.2 M 16.1 -42.2 L 11.5 -25.2 M 6.7 -42.2 L 2.2 -25.2 M -2.6 -42.2 L -7.1 -25.2 M -11.9 -42.2 L -16.4 -25.2 M -21.2 -42.2 L -25.6 -25.8 M 12.4 -17.2 L 22.5 -19.9 M -9.1 -9.1 L -23.7 -23.7 M -8.4 -48.9 L 13.1 -54.7 M 31.2 -45.2 L 8.9 -67.5 "/>
<path transform="matrix(1,0,0,-1,446.1,122.390018)" stroke-width="1" stroke-linecap="round" stroke-linejoin="round" fill="none" stroke="#000000" d="M 0 0 L -.8 .5 M -11.3 .5 L -12.1 0 M -121.1 -78.2 L -121.1 -79.6 M -106.3 -105.3 L -105.1 -106 M -93.7 -107.1 L -25.6 -67.8 M -48.3 -28.5 L -116.4 -67.9 M -61 -34.3 L -61 -35.7 M -38.1 -75.2 L -36.9 -75.9 M 75.9 56.3 L -53.9 -18.7 M -19.9 -77.6 L 110 -2.6 M 117 13 L 117 14.3 M 94.2 53.9 L 93 54.6 M 0 0 L .2 -.2 L 1.1 -.9 L 1.8 -1.7 L 2.3 -2.5 L 2.4 -3.4 L 2.3 -4.2 L 2 -5.1 L 1.3 -5.9 L .5 -6.6 L -.2 -7 M -11.3 .5 L -12.2 -.2 L -12.9 -.9 L -13.3 -1.7 L -13.4 -2.6 L -13.3 -3.4 L -12.9 -4.2 L -12.2 -4.9 L -11.3 -5.6 L -10.1 -6.1 L -8.9 -6.5 L -7.5 -6.7 L -6.1 -6.8 L -4.6 -6.7 L -3.2 -6.5 L -2 -6.1 L -.8 -5.6 L .1 -4.9 L .8 -4.2 L 1.2 -3.4 L 1.3 -2.6 L 1.2 -1.7 L .8 -.9 L .1 -.2 L -.8 .5 L -2 1 L -3.2 1.4 L -4.6 1.6 L -6.1 1.7 L -7.5 1.6 L -8.9 1.4 L -10.1 1 L -11.3 .5 M -106.3 -71.1 L -108 -70.2 L -109.6 -69.6 L -111.3 -69.2 L -112.8 -69 L -114.3 -69.2 L -115.7 -69.5 L -116.9 -70.1 L -118 -71 L -119 -72 L -119.8 -73.3 L -120.4 -74.8 L -120.8 -76.4 L -121 -78.2 L -121.1 -80.1 L -121 -82.2 L -120.6 -84.3 L -120.1 -86.4 L -119.4 -88.6 L -118.5 -90.8 L -117.5 -92.9 L -116.3 -95 L -115 -97 L -113.6 -98.9 L -112 -100.6 L -110.5 -102.2 L -108.8 -103.6 L -107.1 -104.8 L -105.4 -105.8 L -103.7 -106.5 L -102.1 -107 L -100.5 -107.3 L -99 -107.3 L -97.6 -107.1 L -96.2 -106.6 L -95.1 -105.9 L -94 -104.9 L -93.2 -103.8 L -92.4 -102.4 L -91.9 -100.8 L -91.6 -99.1 L -91.4 -97.2 L -91.5 -95.3 L -91.7 -93.2 L -92.2 -91 L -92.8 -88.9 L -93.6 -86.7 L -94.5 -84.5 L -95.6 -82.4 L -96.9 -80.4 L -98.3 -78.4 L -99.7 -76.6 L -101.3 -74.9 L -102.9 -73.5 L -104.6 -72.2 L -106.3 -71.1 M -105.1 -69 L -103.3 -70.1 L -101.6 -71.5 L -99.9 -73 L -98.2 -74.7 L -96.7 -76.6 L -95.2 -78.6 L -93.9 -80.7 L -92.7 -82.9 L -91.6 -85.1 L -90.8 -87.4 L -90 -89.7 L -89.5 -91.9 L -89.2 -94.1 L -89 -96.2 L -89.1 -98.3 L -89.3 -100.1 L -89.8 -101.9 L -90.4 -103.4 L -91.2 -104.8 L -92.1 -105.9 L -93.3 -106.9 L -94.5 -107.5 L -95.9 -108 L -97.4 -108.2 L -99 -108.1 L -100.7 -107.8 L -102.4 -107.3 L -104.2 -106.5 L -105.1 -106 M -121.1 -78.2 L -121.1 -77.7 L -121 -75.8 L -120.6 -74 L -120.1 -72.3 L -119.4 -70.9 L -118.5 -69.6 L -117.4 -68.6 L -116.2 -67.8 L -114.9 -67.2 L -113.5 -66.9 L -111.9 -66.8 L -110.3 -67 L -108.6 -67.4 L -106.8 -68.1 L -105.1 -69 M -36.9 -20.4 L -34.8 -21.7 L -32.6 -23.3 L -30.5 -25.1 L -28.5 -27 L -26.5 -29.2 L -24.6 -31.4 L -22.8 -33.8 L -21.1 -36.4 L -19.5 -39 L -18.1 -41.7 L -16.8 -44.4 L -15.7 -47.2 L -14.8 -50 L -14 -52.8 L -13.5 -55.5 L -13.1 -58.2 L -12.9 -60.8 L -12.9 -63.3 L -13.1 -65.6 L -13.5 -67.9 L -14 -69.9 L -14.8 -71.8 L -15.7 -73.5 L -16.8 -75 L -18.1 -76.3 L -19.5 -77.4 L -21.1 -78.2 L -22.8 -78.8 L -24.6 -79.1 L -26.5 -79.2 L -28.5 -79 L -30.5 -78.6 L -32.6 -78 L -34.8 -77.1 L -36.9 -75.9 M -61 -34.3 L -61 -33 L -60.8 -30.7 L -60.4 -28.4 L -59.8 -26.4 L -59 -24.5 L -58.1 -22.8 L -57 -21.3 L -55.7 -20 L -54.3 -18.9 L -52.7 -18.1 L -51.1 -17.5 L -49.3 -17.2 L -47.4 -17.1 L -45.4 -17.3 L -43.3 -17.7 L -41.2 -18.3 L -39.1 -19.2 L -36.9 -20.4 M -38.1 -22.5 L -40.2 -21.4 L -42.3 -20.5 L -44.4 -19.9 L -46.4 -19.5 L -48.3 -19.3 L -50.2 -19.5 L -51.9 -19.8 L -53.5 -20.5 L -55 -21.3 L -56.4 -22.4 L -57.6 -23.7 L -58.6 -25.3 L -59.4 -27 L -60.1 -28.9 L -60.6 -31 L -60.9 -33.3 L -61 -35.7 L -61 -35.9 M -38.3 -75.1 L -38.1 -75.2 L -36 -76.3 L -33.9 -77.2 L -31.9 -77.8 L -29.9 -78.2 L -27.9 -78.3 L -26.1 -78.2 L -24.4 -77.9 L -22.7 -77.2 L -21.2 -76.4 L -19.9 -75.3 L -18.7 -74 L -17.7 -72.4 L -16.8 -70.7 L -16.1 -68.8 L -15.7 -66.7 L -15.4 -64.4 L -15.3 -62 L -15.4 -59.5 L -15.7 -57 L -16.1 -54.3 L -16.8 -51.6 L -17.7 -48.9 L -18.7 -46.2 L -19.9 -43.5 L -21.2 -40.8 L -22.7 -38.2 L -24.4 -35.7 L -26.1 -33.4 L -27.9 -31.1 L -29.9 -29 L -31.9 -27.1 L -33.9 -25.3 L -36 -23.8 L -38.1 -22.5 M -12.1 -6 L -11 -6.6 L -9.8 -7.1 L -8.5 -7.5 L -7.1 -7.8 L -5.7 -7.9 L -4.3 -8 L -2.9 -7.9 L -1.6 -7.6 L -.5 -7.1 L .5 -6.5 L 1.3 -5.8 L 1.9 -5 L 2.3 -4.1 L 2.4 -3.2 L 2.4 -2.2 L 2 -1.2 L 1.5 -.4 L .7 .4 L -.2 1 L -1.3 1.5 L -2.5 1.8 L -3.9 2 L -5.2 2 L -6.6 1.8 L -8 1.6 L -9.4 1.2 L -10.1 .9 M -11.4 .4 L -11.8 .2 L -12.8 -.4 L -13.5 -1 L -14.1 -1.7 L -14.4 -2.3 L -14.6 -3 L -14.4 -3.7 L -14.1 -4.3 L -13.5 -5 L -12.1 -6 M 93 54.6 L 90.8 55.7 L 88.7 56.6 L 86.6 57.3 L 84.5 57.7 L 82.5 57.9 L 80.6 57.8 L 78.8 57.5 L 77.1 56.9 L 75.9 56.3 M 110 -2.6 L 110.3 -2.4 L 111.8 -1.3 L 113 0 L 114.1 1.5 L 115.1 3.2 L 115.8 5.1 L 116.4 7.1 L 116.8 9.4 L 117 11.7 L 117 14.2 L 116.8 16.8 L 116.4 19.5 L 115.8 22.2 L 115.1 25 L 114.1 27.8 L 113 30.6 L 111.8 33.3 L 110.3 36 L 108.8 38.6 L 107.1 41.1 L 105.3 43.6 L 103.4 45.8 L 101.4 48 L 99.4 49.9 L 97.3 51.7 L 95.1 53.3 L 93 54.6 M -38.1 -28.9 L -36.3 -30.1 L -34.5 -31.5 L -32.7 -33.1 L -31 -34.8 L -29.4 -36.7 L -27.8 -38.8 L -26.4 -41 L -25.2 -43.2 L -24 -45.5 L -23 -47.9 L -22.2 -50.3 L -21.6 -52.6 L -21.2 -54.9 L -20.9 -57.2 L -20.9 -59.3 L -21 -61.4 L -21.4 -63.2 L -21.9 -65 L -22.6 -66.5 L -23.5 -67.8 L -24.6 -69 L -25.8 -69.9 L -27.1 -70.5 L -28.6 -70.9 L -30.2 -71.1 L -31.3 -71.1 M -53.9 -31.8 L -53.2 -30.5 L -52.2 -29.3 L -51.1 -28.2 L -49.8 -27.5 L -48.4 -26.9 L -46.9 -26.6 L -45.2 -26.6 L -43.5 -26.8 L -41.8 -27.3 L -40 -28 L -38.1 -28.9 M -37.5 -29.3 L -38.7 -28.7 L -40.4 -28.1 L -42.1 -27.6 L -43.8 -27.5 L -45.3 -27.5 L -46.8 -27.9 L -48.1 -28.4 L -48.3 -28.5 M -25.6 -67.8 L -25.1 -67.5 L -24 -66.6 L -23 -65.4 L -22.2 -64.1 L -21.6 -62.5 L -21.2 -60.8 L -20.9 -58.9 L -20.9 -58.1 M 94.2 53.9 L 96.3 52.6 L 98.4 51 L 100.4 49.3 L 102.4 47.4 L 104.3 45.3 L 106.2 43 L 107.9 40.6 L 109.6 38.1 L 111 35.6 L 112.4 32.9 L 113.6 30.2 L 114.6 27.5 L 115.5 24.8 L 116.1 22.1 L 116.6 19.4 L 116.9 16.8 L 117 14.3 "/>
</svg>
