<?xml version="1.0" encoding="UTF-8" standalone="no"?>
<svg
   xmlns:dc="http://purl.org/dc/elements/1.1/"
   xmlns:cc="http://creativecommons.org/ns#"
   xmlns:rdf="http://www.w3.org/1999/02/22-rdf-syntax-ns#"
   xmlns:svg="http://www.w3.org/2000/svg"
   xmlns="http://www.w3.org/2000/svg"
   xmlns:sodipodi="http://sodipodi.sourceforge.net/DTD/sodipodi-0.dtd"
   xmlns:inkscape="http://www.inkscape.org/namespaces/inkscape"
   version="1.1"
   width="683.50043pt"
   height="345.91647pt"
   viewBox="0 0 683.5004 345.91647"
   id="svg520"
   sodipodi:docname="pin_optimizer1.svg"
   inkscape:version="0.92.3 (2405546, 2018-03-11)">
  <metadata
     id="metadata526">
    <rdf:RDF>
      <cc:Work
         rdf:about="">
        <dc:format>image/svg+xml</dc:format>
        <dc:type
           rdf:resource="http://purl.org/dc/dcmitype/StillImage" />
        <dc:title></dc:title>
      </cc:Work>
    </rdf:RDF>
  </metadata>
  <defs
     id="defs524" />
  <sodipodi:namedview
     pagecolor="#ffffff"
     bordercolor="#666666"
     borderopacity="1"
     objecttolerance="10"
     gridtolerance="10"
     guidetolerance="10"
     inkscape:pageopacity="0"
     inkscape:pageshadow="2"
     inkscape:window-width="2560"
     inkscape:window-height="1490"
     id="namedview522"
     showgrid="false"
     inkscape:zoom="1.3624116"
     inkscape:cx="522.51406"
     inkscape:cy="129.08445"
     inkscape:window-x="1878"
     inkscape:window-y="1878"
     inkscape:window-maximized="1"
     inkscape:current-layer="use422"
     fit-margin-top="10"
     fit-margin-left="0"
     fit-margin-right="10"
     fit-margin-bottom="10" />
  <path
     stroke-miterlimit="10"
     d="m 20.50005,162.1165 -0.4,0.1 h -0.4 l -0.4,0.2 -0.4,0.2 -0.4,0.2 -0.3,0.3 -0.3,0.3 -0.2,0.4 -0.2,0.4 -0.1,0.4 -0.1,0.4 v 0.5 l 0.1,0.4 0.1,0.4 0.1,0.4 0.2,0.4 0.3,0.4 0.3,0.3 0.3,0.2 0.4,0.3 0.4,0.1 0.4,0.1 0.4,0.1 h 0.5 l 0.4,-0.1 0.4,-0.1 0.4,-0.1 0.4,-0.3 0.3,-0.2 0.3,-0.3 0.3,-0.4 0.2,-0.4 0.1,-0.4 0.1,-0.4 0.1,-0.4 v -0.5 l -0.1,-0.4 -0.1,-0.4 -0.2,-0.4 -0.2,-0.4 -0.3,-0.3 -0.3,-0.3 -0.4,-0.2 -0.4,-0.2 -0.4,-0.2 h -0.4 l -0.5,-0.1 m 4.7,5.1 -9.3,-3.7"
     id="path269"
     inkscape:connector-curvature="0"
     style="fill:none;stroke:#191924;stroke-width:1;stroke-linecap:butt;stroke-linejoin:miter;stroke-miterlimit:10" />
  <symbol
     id="font_0_27"
     transform="translate(-166.79995,-235.87353)">
    <path
       d="m 0.1328125,0.07421875 c 0.046875,0 0.0885417,0.01822917 0.125,0.0546875 0.0390625,0.0390625 0.0585938,0.12239585 0.0585938,0.25000001 0,0.13020833 -0.0208334,0.21614583 -0.0625,0.25781251 C 0.22005208,0.67057296 0.1796875,0.6875 0.1328125,0.6875 H 0.08984375 V 0.07421875 H 0.1328125 m 0,0.68750002 c 0.0807292,0 0.14453126,-0.0234375 0.19140626,-0.0703125 0.0598958,-0.0598958 0.0898437,-0.1640625 0.0898437,-0.31250001 0,-0.14583334 -0.0273437,-0.24609376 -0.0820312,-0.30078126 C 0.2799479,0.02604167 0.21354167,0 0.1328125,0 H 0 v 0.76171877 z"
       id="path271"
       inkscape:connector-curvature="0" />
  </symbol>
  <symbol
     id="font_0_56"
     transform="translate(-166.79995,-235.87353)">
    <path
       d="m 0.2799479,0.375 c -0.002604,0.0286458 -0.0117187,0.0507813 -0.0273437,0.0664063 -0.015625,0.015625 -0.0364583,0.0234375 -0.0625,0.0234375 -0.0338542,0 -0.0572917,-0.00651 -0.0703125,-0.0195313 -0.015625,-0.015625 -0.0234375,-0.0325521 -0.0234375,-0.0507812 0,-0.0130209 0.0065104,-0.0260417 0.01953125,-0.0390625 C 0.13411458,0.3372396 0.17317708,0.31770835 0.23307292,0.296875 0.2799479,0.28125 0.3138021,0.26302085 0.3346354,0.2421875 0.3580729,0.21875 0.36979167,0.1875 0.36979167,0.1484375 c 0,-0.0364583 -0.0130208,-0.06770833 -0.0390625,-0.09375 C 0.29427085,0.01822917 0.24739583,0 0.19010417,0 c -0.0625,0 -0.109375,0.015625 -0.140625,0.046875 C 0.015625,0.08072917 0,0.13411458 0.00260417,0.20703125 h 0.078125 c 0,-0.0572917 0.0078125,-0.09375 0.0234375,-0.109375 0.0182292,-0.01822916 0.0455729,-0.02734375 0.0820312,-0.02734375 0.0364583,0 0.0638021,0.0091146 0.0820313,0.02734375 0.015625,0.015625 0.0234375,0.03385417 0.0234375,0.0546875 0,0.015625 -0.007813,0.03125 -0.0234375,0.046875 -0.015625,0.015625 -0.0455729,0.03125 -0.0898438,0.046875 -0.0651042,0.0234375 -0.10807291,0.0455729 -0.12890625,0.0664063 -0.0234375,0.0234375 -0.03515625,0.0520833 -0.03515625,0.0859375 0,0.0338542 0.01432291,0.0651042 0.04296875,0.09375 0.02864583,0.0286458 0.07291666,0.0429688 0.1328125,0.0429688 0.0520833,0 0.09375,-0.015625 0.125,-0.046875 0.03125,-0.03125 0.0455729,-0.0690104 0.0429687,-0.11328126 z"
       id="path274"
       inkscape:connector-curvature="0" />
  </symbol>
  <g
     id="use277"
     style="fill:#191924"
     transform="matrix(0,-11.547204,-11.5447,0,24.658142,159.45725)">
    <path
       inkscape:connector-curvature="0"
       id="path8628"
       d="m 0.1328125,0.07421875 c 0.046875,0 0.0885417,0.01822917 0.125,0.0546875 0.0390625,0.0390625 0.0585938,0.12239585 0.0585938,0.25000001 0,0.13020833 -0.0208334,0.21614583 -0.0625,0.25781251 C 0.22005208,0.67057296 0.1796875,0.6875 0.1328125,0.6875 H 0.08984375 V 0.07421875 H 0.1328125 m 0,0.68750002 c 0.0807292,0 0.14453126,-0.0234375 0.19140626,-0.0703125 0.0598958,-0.0598958 0.0898437,-0.1640625 0.0898437,-0.31250001 0,-0.14583334 -0.0273437,-0.24609376 -0.0820312,-0.30078126 C 0.2799479,0.02604167 0.21354167,0 0.1328125,0 H 0 v 0.76171877 z" />
  </g>
  <g
     id="use279"
     style="fill:#191924"
     transform="matrix(0,-11.547204,-11.5447,0,24.658142,153.53335)">
    <path
       inkscape:connector-curvature="0"
       id="path8632"
       d="m 0.2799479,0.375 c -0.002604,0.0286458 -0.0117187,0.0507813 -0.0273437,0.0664063 -0.015625,0.015625 -0.0364583,0.0234375 -0.0625,0.0234375 -0.0338542,0 -0.0572917,-0.00651 -0.0703125,-0.0195313 -0.015625,-0.015625 -0.0234375,-0.0325521 -0.0234375,-0.0507812 0,-0.0130209 0.0065104,-0.0260417 0.01953125,-0.0390625 C 0.13411458,0.3372396 0.17317708,0.31770835 0.23307292,0.296875 0.2799479,0.28125 0.3138021,0.26302085 0.3346354,0.2421875 0.3580729,0.21875 0.36979167,0.1875 0.36979167,0.1484375 c 0,-0.0364583 -0.0130208,-0.06770833 -0.0390625,-0.09375 C 0.29427085,0.01822917 0.24739583,0 0.19010417,0 c -0.0625,0 -0.109375,0.015625 -0.140625,0.046875 C 0.015625,0.08072917 0,0.13411458 0.00260417,0.20703125 h 0.078125 c 0,-0.0572917 0.0078125,-0.09375 0.0234375,-0.109375 0.0182292,-0.01822916 0.0455729,-0.02734375 0.0820312,-0.02734375 0.0364583,0 0.0638021,0.0091146 0.0820313,0.02734375 0.015625,0.015625 0.0234375,0.03385417 0.0234375,0.0546875 0,0.015625 -0.007813,0.03125 -0.0234375,0.046875 -0.015625,0.015625 -0.0455729,0.03125 -0.0898438,0.046875 -0.0651042,0.0234375 -0.10807291,0.0455729 -0.12890625,0.0664063 -0.0234375,0.0234375 -0.03515625,0.0520833 -0.03515625,0.0859375 0,0.0338542 0.01432291,0.0651042 0.04296875,0.09375 0.02864583,0.0286458 0.07291666,0.0429688 0.1328125,0.0429688 0.0520833,0 0.09375,-0.015625 0.125,-0.046875 0.03125,-0.03125 0.0455729,-0.0690104 0.0429687,-0.11328126 z" />
  </g>
  <path
     stroke-miterlimit="10"
     d="m 259.40005,149.1165 -0.1,-0.5 -0.1,-0.4 -0.1,-0.4 -0.2,-0.4 -0.2,-0.3 -0.3,-0.4 -0.4,-0.2 -0.3,-0.3 -0.4,-0.1 -0.4,-0.2 h -0.4 l -0.5,-0.1 -0.4,0.1 -0.4,0.1 -0.4,0.1 -0.4,0.2 -0.4,0.3 -0.3,0.3 -0.2,0.3 -0.3,0.4 -0.1,0.4 -0.1,0.4 -0.1,0.5 v 0.4 l 0.1,0.4 0.1,0.4 0.1,0.4 0.3,0.4 0.2,0.3 0.3,0.3 0.4,0.3 0.4,0.2 0.4,0.2 0.4,0.1 h 0.4 0.5 l 0.4,-0.1 0.4,-0.1 0.4,-0.2 0.3,-0.2 0.4,-0.3 0.3,-0.3 0.2,-0.4 0.2,-0.4 0.1,-0.4 0.1,-0.4 0.1,-0.4 m -5.1,4.6 3.7,-9.2"
     id="path281"
     inkscape:connector-curvature="0"
     style="fill:none;stroke:#191924;stroke-width:1;stroke-linecap:butt;stroke-linejoin:miter;stroke-miterlimit:10" />
  <symbol
     id="font_0_53"
     transform="translate(-166.79995,-235.87353)">
    <path
       d="M 0.078125,0.5859375 C 0.11458334,0.6432292 0.16145833,0.671875 0.21875,0.671875 c 0.0442708,0 0.0820313,-0.015625 0.11328126,-0.046875 0.046875,-0.046875 0.0703125,-0.12109373 0.0703125,-0.22265624 0,-0.09375 -0.0234375,-0.16406251 -0.0703125,-0.21093751 -0.0364584,-0.0364583 -0.0755209,-0.0546875 -0.11718751,-0.0546875 -0.0598958,0 -0.10546875,0.0260417 -0.13671875,0.078125 V 0 H 0 V 0.671875 H 0.078125 V 0.5859375 M 0.20703125,0.6054688 C 0.18098958,0.60546877 0.15364583,0.5911458 0.125,0.5625 0.09375,0.53125 0.078125,0.4778646 0.078125,0.40234376 c 0,-0.0729167 0.01822917,-0.12760416 0.0546875,-0.16406251 0.0208333,-0.0208333 0.0442708,-0.03125 0.0703125,-0.03125 0.0260417,0 0.0494792,0.0104167 0.0703125,0.03125 0.0286458,0.0286458 0.0429688,0.0846354 0.0429688,0.16796875 0,0.0833333 -0.0143229,0.13932296 -0.0429688,0.16796877 -0.0208333,0.0208333 -0.0429687,0.03125 -0.0664063,0.03125 z"
       id="path283"
       inkscape:connector-curvature="0" />
  </symbol>
  <g
     id="use286"
     style="fill:#191924"
     transform="matrix(11.547204,0,0,-11.5447,262.05735,153.09924)">
    <path
       inkscape:connector-curvature="0"
       id="path8636"
       d="m 0.1328125,0.07421875 c 0.046875,0 0.0885417,0.01822917 0.125,0.0546875 0.0390625,0.0390625 0.0585938,0.12239585 0.0585938,0.25000001 0,0.13020833 -0.0208334,0.21614583 -0.0625,0.25781251 C 0.22005208,0.67057296 0.1796875,0.6875 0.1328125,0.6875 H 0.08984375 V 0.07421875 H 0.1328125 m 0,0.68750002 c 0.0807292,0 0.14453126,-0.0234375 0.19140626,-0.0703125 0.0598958,-0.0598958 0.0898437,-0.1640625 0.0898437,-0.31250001 0,-0.14583334 -0.0273437,-0.24609376 -0.0820312,-0.30078126 C 0.2799479,0.02604167 0.21354167,0 0.1328125,0 H 0 v 0.76171877 z" />
  </g>
  <g
     id="use288"
     style="fill:#191924"
     transform="matrix(11.547204,0,0,-11.5447,267.87605,154.67764)">
    <path
       inkscape:connector-curvature="0"
       id="path8640"
       d="M 0.078125,0.5859375 C 0.11458334,0.6432292 0.16145833,0.671875 0.21875,0.671875 c 0.0442708,0 0.0820313,-0.015625 0.11328126,-0.046875 0.046875,-0.046875 0.0703125,-0.12109373 0.0703125,-0.22265624 0,-0.09375 -0.0234375,-0.16406251 -0.0703125,-0.21093751 -0.0364584,-0.0364583 -0.0755209,-0.0546875 -0.11718751,-0.0546875 -0.0598958,0 -0.10546875,0.0260417 -0.13671875,0.078125 V 0 H 0 V 0.671875 H 0.078125 V 0.5859375 M 0.20703125,0.6054688 C 0.18098958,0.60546877 0.15364583,0.5911458 0.125,0.5625 0.09375,0.53125 0.078125,0.4778646 0.078125,0.40234376 c 0,-0.0729167 0.01822917,-0.12760416 0.0546875,-0.16406251 0.0208333,-0.0208333 0.0442708,-0.03125 0.0703125,-0.03125 0.0260417,0 0.0494792,0.0104167 0.0703125,0.03125 0.0286458,0.0286458 0.0429688,0.0846354 0.0429688,0.16796875 0,0.0833333 -0.0143229,0.13932296 -0.0429688,0.16796877 -0.0208333,0.0208333 -0.0429687,0.03125 -0.0664063,0.03125 z" />
  </g>
  <path
     stroke-miterlimit="10"
     d="m 405.10005,148.01647 h -0.4 l -0.4,0.1 -0.4,0.1 -0.4,0.2 -0.4,0.3 -0.3,0.2 -0.3,0.4 -0.2,0.3 -0.2,0.4 -0.1,0.4 -0.1,0.5 v 0.4 0.4 l 0.1,0.5 0.2,0.4 0.2,0.3 0.2,0.4 0.3,0.3 0.4,0.3 0.4,0.2 0.4,0.1 0.4,0.2 h 0.4 0.4 0.5 l 0.4,-0.2 0.4,-0.1 0.3,-0.2 0.4,-0.3 0.3,-0.3 0.2,-0.4 0.2,-0.3 0.2,-0.4 0.1,-0.5 v -0.4 -0.4 -0.5 l -0.2,-0.4 -0.2,-0.4 -0.2,-0.3 -0.3,-0.4 -0.3,-0.2 -0.3,-0.3 -0.4,-0.2 -0.4,-0.1 -0.5,-0.1 h -0.4 m 4.6,5 -9.2,-3.7"
     id="path290"
     inkscape:connector-curvature="0"
     style="fill:none;stroke:#191924;stroke-width:1;stroke-linecap:butt;stroke-linejoin:miter;stroke-miterlimit:10" />
  <symbol
     id="font_0_4b"
     transform="translate(-166.79995,-235.87353)">
    <path
       d="m 0.078125,0.44140626 c 0.015625,0.0208333 0.02864584,0.0364583 0.0390625,0.046875 0.03125,0.03125 0.0729167,0.046875 0.125,0.046875 0.0442708,0 0.0794271,-0.0130208 0.10546876,-0.0390625 0.0234375,-0.0234375 0.0351562,-0.0559896 0.0351562,-0.0976563 V 0 h -0.078125 v 0.37109376 c 0,0.0338541 -0.009115,0.0598958 -0.0273437,0.078125 -0.015625,0.015625 -0.0364583,0.0234375 -0.0625,0.0234375 -0.0260417,0 -0.0533854,-0.0143229 -0.0820313,-0.0429688 C 0.09635417,0.39322917 0.078125,0.3450521 0.078125,0.28515626 V 0 H 0 v 0.76171877 h 0.078125 z"
       id="path292"
       inkscape:connector-curvature="0" />
  </symbol>
  <g
     id="use295"
     style="fill:#191924"
     transform="matrix(0,-11.547204,-11.5447,0,409.22444,145.28405)">
    <path
       inkscape:connector-curvature="0"
       id="path8644"
       d="m 0.1328125,0.07421875 c 0.046875,0 0.0885417,0.01822917 0.125,0.0546875 0.0390625,0.0390625 0.0585938,0.12239585 0.0585938,0.25000001 0,0.13020833 -0.0208334,0.21614583 -0.0625,0.25781251 C 0.22005208,0.67057296 0.1796875,0.6875 0.1328125,0.6875 H 0.08984375 V 0.07421875 H 0.1328125 m 0,0.68750002 c 0.0807292,0 0.14453126,-0.0234375 0.19140626,-0.0703125 0.0598958,-0.0598958 0.0898437,-0.1640625 0.0898437,-0.31250001 0,-0.14583334 -0.0273437,-0.24609376 -0.0820312,-0.30078126 C 0.2799479,0.02604167 0.21354167,0 0.1328125,0 H 0 v 0.76171877 z" />
  </g>
  <g
     id="use297"
     style="fill:#191924"
     transform="matrix(0,-11.547204,-11.5447,0,409.22444,139.42025)">
    <path
       inkscape:connector-curvature="0"
       id="path8648"
       d="m 0.078125,0.44140626 c 0.015625,0.0208333 0.02864584,0.0364583 0.0390625,0.046875 0.03125,0.03125 0.0729167,0.046875 0.125,0.046875 0.0442708,0 0.0794271,-0.0130208 0.10546876,-0.0390625 0.0234375,-0.0234375 0.0351562,-0.0559896 0.0351562,-0.0976563 V 0 h -0.078125 v 0.37109376 c 0,0.0338541 -0.009115,0.0598958 -0.0273437,0.078125 -0.015625,0.015625 -0.0364583,0.0234375 -0.0625,0.0234375 -0.0260417,0 -0.0533854,-0.0143229 -0.0820313,-0.0429688 C 0.09635417,0.39322917 0.078125,0.3450521 0.078125,0.28515626 V 0 H 0 v 0.76171877 h 0.078125 z" />
  </g>
  <symbol
     id="font_0_8a9"
     transform="translate(-166.79995,-235.87353)">
    <path
       d="m 0.0859375,0.11458333 c 0.28385417,0.0625 0.4973958,0.20963543 0.640625,0.44140626 L 0.796875,0.4856771 C 0.6640625,0.2721354 0.45833335,0.12109375 0.1796875,0.03255208 0.171875,0.00130208 0.15885417,0 0.140625,0.02864583 L 0.0859375,0.11458333 M 0.05859375,0.58723959 C 0.12369792,0.55338546 0.19010417,0.51171877 0.2578125,0.4622396 l -0.0625,-0.0820313 C 0.1171875,0.4375 0.05208333,0.47916667 0,0.5052083 l 0.05859375,0.0820313 m 0.109375,0.23046871 C 0.23828125,0.7786458 0.3046875,0.7369792 0.3671875,0.6927083 L 0.3125,0.61067709 c -0.0703125,0.0494792 -0.13541667,0.0911459 -0.1953125,0.125 z"
       id="path299"
       inkscape:connector-curvature="0" />
  </symbol>
  <symbol
     id="font_0_8d5"
     transform="translate(-166.79995,-235.87353)">
    <path
       d="m 0.3046875,0.48828126 0.3203125,0.078125 0.0195313,0.0117187 0.0625,-0.0625 C 0.71744796,0.5052083 0.7135417,0.49739585 0.6953125,0.4921875 0.6484375,0.41666667 0.5989583,0.34375 0.546875,0.2734375 L 0.4804688,0.3164063 C 0.5221355,0.3710938 0.561198,0.42838544 0.59765631,0.4882813 L 0.328125,0.421875 0.4609375,0.02734375 0.3828125,0 0.25390626,0.40625 0.02734375,0.34375 0,0.421875 l 0.2265625,0.0507813 -0.0625,0.18750001 0.0820313,0.015625 c 0.0234375,0 0.0273438,-0.009115 0.0117188,-0.0273438 z"
       id="path302"
       inkscape:connector-curvature="0" />
  </symbol>
  <symbol
     id="font_0_8c7"
     transform="translate(-166.79995,-235.87353)">
    <path
       d="M 0.07421875,0.0859375 C 0.3997396,0.16145833 0.5703125,0.3346354 0.5859375,0.60546877 H 0 v 0.0859375 H 0.59375 L 0.6484375,0.703125 0.69140627,0.6640625 C 0.68098959,0.31770835 0.4986979,0.09635417 0.14453125,0 Z"
       id="path305"
       inkscape:connector-curvature="0" />
  </symbol>
  <symbol
     id="font_0_8ba"
     transform="translate(-166.79995,-235.87353)">
    <path
       d="M 0.08984375,0.50390627 C 0.21744792,0.4674479 0.34635417,0.41796876 0.4765625,0.35546876 L 0.4296875,0.265625 C 0.29166667,0.3359375 0.17838542,0.3828125 0.08984375,0.40625 V 0 H 0 V 0.78125 H 0.078125 C 0.109375,0.7786458 0.11328125,0.7682292 0.08984375,0.75 Z"
       id="path308"
       inkscape:connector-curvature="0" />
  </symbol>
  <symbol
     id="font_0_36"
     transform="translate(-166.79995,-235.87353)">
    <path
       d="M 0.1640625,0.4765625 C 0.21875,0.4296875 0.2734375,0.390625 0.328125,0.359375 0.3880208,0.3255208 0.4179688,0.2760417 0.4179688,0.2109375 0.4179688,0.1458333 0.3984375,0.09375 0.359375,0.0546875 0.32291667,0.01822917 0.2721354,0 0.20703125,0 0.14453125,0 0.09635417,0.01692708 0.0625,0.05078125 0.02083333,0.09244792 0,0.14192708 0,0.19921875 v 0.0390625 H 0.08984375 V 0.203125 c 0,-0.0416667 0.01041667,-0.0729167 0.03125,-0.09375 0.0208333,-0.02083333 0.046875,-0.03125 0.078125,-0.03125 0.0416667,0 0.0729167,0.01041667 0.09375,0.03125 0.0234375,0.0234375 0.0351562,0.0533854 0.0351562,0.0898438 0,0.0390625 -0.0182292,0.0703125 -0.0546875,0.09375 C 0.20833333,0.3346354 0.14713542,0.37890626 0.08984375,0.42578126 0.04817708,0.4596354 0.02604167,0.5052083 0.0234375,0.5625 0.0208333,0.6197917 0.04036458,0.66796877 0.08203125,0.70703127 c 0.0390625,0.0364583 0.08203125,0.0546875 0.12890625,0.0546875 0.0572917,0 0.1015625,-0.015625 0.1328125,-0.046875 0.0390625,-0.0390625 0.0572917,-0.09375 0.0546875,-0.1640625 H 0.3085938 C 0.3138018,0.59505207 0.3033858,0.63020827 0.2773438,0.65625 0.2591146,0.6744792 0.2369792,0.6835938 0.2109375,0.6835938 0.1848958,0.6835938 0.1627604,0.6744788 0.1445312,0.65625 0.12109375,0.6328125 0.109375,0.60546877 0.109375,0.57421877 c 0,-0.0338542 0.0182292,-0.0664063 0.0546875,-0.0976563 z"
       id="path311"
       inkscape:connector-curvature="0" />
  </symbol>
  <symbol
     id="font_0_44"
     transform="translate(-166.79995,-235.87353)">
    <path
       d="M 0.296875,0.29296876 C 0.265625,0.2747396 0.22916667,0.2591146 0.1875,0.24609375 0.15625,0.23567708 0.13151042,0.22135417 0.11328125,0.203125 0.10026042,0.19010417 0.09375,0.171875 0.09375,0.1484375 c 0,-0.0260417 0.0065104,-0.0455729 0.01953125,-0.05859375 0.0130208,-0.01302083 0.0338542,-0.01953125 0.0625,-0.01953125 0.046875,0 0.0872396,0.02734375 0.12109375,0.08203125 v 0.14062501 m 0,-0.23437501 C 0.2578125,0.01953125 0.20963542,0 0.15234375,0 0.10546875,0 0.06770834,0.01432292 0.0390625,0.04296875 0.01302083,0.06901042 0,0.1015625 0,0.140625 0,0.18229167 0.01432292,0.21744792 0.04296875,0.24609375 0.06901042,0.2721354 0.09895834,0.2903646 0.1328125,0.30078126 0.22135417,0.3294271 0.26953126,0.34895835 0.27734376,0.359375 0.2903646,0.375 0.296875,0.390625 0.296875,0.40625 c 0,0.015625 -0.007813,0.0299479 -0.0234375,0.0429688 -0.0130208,0.0104166 -0.0364583,0.015625 -0.0703125,0.015625 -0.0260417,0 -0.046875,-0.007813 -0.0625,-0.0234375 C 0.11979167,0.4205729 0.10807292,0.39322917 0.10546875,0.359375 h -0.0859375 c 0.0026042,0.0520833 0.02083333,0.0950521 0.0546875,0.12890626 0.03125,0.03125 0.07421875,0.046875 0.12890625,0.046875 0.0625,0 0.10677085,-0.0130208 0.1328125,-0.0390625 C 0.36197917,0.4700521 0.375,0.4375 0.375,0.3984375 V 0.08984375 C 0.375,0.05859375 0.38541667,0.02864583 0.40625,0 H 0.3125 C 0.30208335,0.01041667 0.296875,0.02994792 0.296875,0.05859375 Z"
       id="path314"
       inkscape:connector-curvature="0" />
  </symbol>
  <symbol
     id="font_0_49"
     transform="translate(-166.79995,-235.87353)">
    <path
       d="m 0.2109375,0.53515627 h 0.16015626 v -0.0625 H 0.2109375 V 0 H 0.1328125 V 0.23828125 0.47265626 H 0 v 0.0625 h 0.1328125 v 0.0976562 c 0,0.0859375 0.0481771,0.12890627 0.14453126,0.12890627 0.0572916,0 0.0989583,-0.00651 0.125,-0.0195313 V 0.6640625 C 0.37890626,0.6770833 0.3359375,0.6848958 0.2734375,0.6875 0.2317708,0.690104 0.2109375,0.6731771 0.2109375,0.6367188 Z"
       id="path317"
       inkscape:connector-curvature="0" />
  </symbol>
  <symbol
     id="font_0_57"
     transform="translate(-166.79995,-235.87353)">
    <path
       d="M 0.125,0.47265626 H 0 v 0.0625 h 0.125 v 0.171875 h 0.078125 v -0.171875 h 0.17578126 v -0.0625 H 0.203125 V 0.1171875 c 0,-0.02864583 0.0208333,-0.04296875 0.0625,-0.04296875 0.0442708,0 0.0898438,0.01041667 0.13671876,0.03125 V 0.0234375 C 0.3372396,0.0078125 0.2877604,0 0.25390626,0 0.16796875,0 0.125,0.03385417 0.125,0.1015625 Z"
       id="path320"
       inkscape:connector-curvature="0" />
  </symbol>
  <symbol
     id="font_0_8c6"
     transform="translate(-166.79995,-235.87353)">
    <path
       d="m 0.58984377,0.66015627 c 0.0208333,0 0.0377604,0.00651 0.0507812,0.0195312 0.0130208,0.0130208 0.0195313,0.029948 0.0195313,0.0507813 0,0.0208333 -0.00651,0.0377604 -0.0195313,0.0507812 -0.0130208,0.0130208 -0.0299479,0.0195313 -0.0507812,0.0195313 -0.0208333,0 -0.0377605,-0.00651 -0.0507813,-0.0195313 -0.0130208,-0.0130208 -0.0195312,-0.0299479 -0.0195312,-0.0507812 0,-0.0208333 0.00651,-0.0377605 0.0195312,-0.0507813 0.0130208,-0.0130208 0.029948,-0.0195312 0.0507813,-0.0195312 m 0,-0.0390625 c -0.03125,0 -0.0572917,0.0104167 -0.078125,0.03125 -0.0208334,0.0208333 -0.03125,0.046875 -0.03125,0.078125 0,0.03125 0.0104166,0.0572917 0.03125,0.078125 0.0208333,0.0208333 0.046875,0.03125 0.078125,0.03125 0.03125,0 0.0572917,-0.0104167 0.078125,-0.03125 0.0208333,-0.0208333 0.03125,-0.046875 0.03125,-0.078125 0,-0.03125 -0.0104167,-0.0572917 -0.03125,-0.078125 -0.0208333,-0.0208333 -0.046875,-0.03125 -0.078125,-0.03125 M 0.5859375,0.4921875 C 0.5989583,0.46875 0.58723959,0.46484376 0.55078127,0.48046876 0.4049479,0.44140626 0.2513021,0.41145835 0.08984375,0.390625 V 0.13671875 c 0,-0.0338542 0.01692709,-0.05078125 0.05078125,-0.05078125 H 0.58984377 L 0.58203127,0 H 0.125 C 0.04166667,0 0,0.03385417 0,0.1015625 v 0.61328127 h 0.078125 c 0.02864584,-0.005208 0.03255209,-0.015625 0.01171875,-0.03125 V 0.484375 C 0.2669271,0.5052083 0.421875,0.53776046 0.5546875,0.58203127 Z"
       id="path323"
       inkscape:connector-curvature="0" />
  </symbol>
  <symbol
     id="font_0_8e5"
     transform="translate(-166.79995,-235.87353)">
    <path
       d="M 0.765625,0.48958335 C 0.6276042,0.203125 0.39583335,0.05208333 0.0703125,0.03645833 0.05729167,0.00260417 0.04427083,0 0.03125,0.02864583 L 0,0.13020833 c 0.33854167,0.007813 0.56640627,0.14713543 0.68359377,0.41796876 L 0.765625,0.48958335 m -0.55078125,0 C 0.14453125,0.5546875 0.078125,0.60807296 0.015625,0.64973959 L 0.08203125,0.7317708 C 0.13671875,0.6979167 0.20572917,0.64192709 0.2890625,0.56380209 Z"
       id="path326"
       inkscape:connector-curvature="0" />
  </symbol>
  <symbol
     id="font_0_33"
     transform="translate(-166.79995,-235.87353)">
    <path
       d="M 0.08984375,0.6875 V 0.3984375 H 0.1796875 c 0.046875,0 0.0833333,0.0130208 0.109375,0.0390625 0.0234375,0.0234375 0.0351563,0.0585938 0.0351563,0.10546877 0,0.046875 -0.0117188,0.0820312 -0.0351563,0.10546873 C 0.26302085,0.6744792 0.2265625,0.6875 0.1796875,0.6875 H 0.08984375 M 0.203125,0.76171877 c 0.0625,0 0.11197917,-0.0182292 0.1484375,-0.0546875 0.0390625,-0.0390625 0.0585938,-0.09375 0.0585938,-0.1640625 0,-0.0703125 -0.0195313,-0.12500001 -0.0585938,-0.16406251 C 0.31510417,0.3424479 0.265625,0.32421876 0.203125,0.32421876 H 0.08984375 V 0 H 0 v 0.76171877 z"
       id="path329"
       inkscape:connector-curvature="0" />
  </symbol>
  <symbol
     id="font_0_4c"
     transform="translate(-166.79995,-235.87353)">
    <path
       d="M 0.078125,0 H 0 V 0.53515627 H 0.078125 V 0 m 0,0.76171877 V 0.66015627 H 0 v 0.1015625 z"
       id="path332"
       inkscape:connector-curvature="0" />
  </symbol>
  <symbol
     id="font_0_51"
     transform="translate(-166.79995,-235.87353)">
    <path
       d="m 0.3046875,0.3828125 c 0,0.0234375 -0.007813,0.0429688 -0.0234375,0.0585938 -0.015625,0.015625 -0.0364583,0.0234375 -0.0625,0.0234375 -0.0286458,0 -0.0572917,-0.0143229 -0.0859375,-0.0429688 C 0.09635417,0.38541667 0.078125,0.33854167 0.078125,0.28125 V 0 H 0 V 0.53515627 H 0.078125 V 0.43359376 c 0.01302084,0.0182291 0.02864584,0.0364583 0.046875,0.0546875 0.03125,0.03125 0.0703125,0.046875 0.1171875,0.046875 0.0416667,0 0.0755208,-0.0130208 0.1015625,-0.0390625 C 0.36979167,0.4700521 0.3828125,0.43489585 0.3828125,0.390625 V 0 h -0.078125 z"
       id="path335"
       inkscape:connector-curvature="0" />
  </symbol>
  <symbol
     id="font_0_8c1"
     transform="translate(-166.79995,-235.87353)">
    <path
       d="M 0.79296877,0.01953125 C 0.72786459,0.22526042 0.6432292,0.3893229 0.5390625,0.51171877 l 0.0820313,0.0625 C 0.75130209,0.41015626 0.84375,0.23697917 0.8984375,0.0546875 L 0.79296877,0.01953125 M 0.32421876,0.484375 C 0.3450521,0.47135417 0.3424479,0.4596354 0.31640626,0.44921876 0.26953126,0.28515626 0.19401042,0.13541667 0.08984375,0 L 0,0.05859375 C 0.11458334,0.19661458 0.19140625,0.3528646 0.23046875,0.52734377 Z"
       id="path338"
       inkscape:connector-curvature="0" />
  </symbol>
  <symbol
     id="font_0_898"
     transform="translate(-166.79995,-235.87353)">
    <path
       d="M 0.73828127,0.62890627 C 0.73828127,0.3450521 0.6015625,0.13541667 0.328125,0 L 0.25390626,0.07421875 C 0.50651046,0.18880208 0.63411459,0.3606771 0.63671877,0.58984377 H 0.09375 L 0.1015625,0.359375 H 0.01171875 L 0,0.67578127 h 0.30859376 v 0.1953125 h 0.078125 c 0.03125,-0.002604 0.0351562,-0.0130208 0.0117187,-0.03125 v -0.1640625 h 0.29296877 z"
       id="path341"
       inkscape:connector-curvature="0" />
  </symbol>
  <symbol
     id="font_0_8aa"
     transform="translate(-166.79995,-235.87353)">
    <path
       d="M 0.796875,0.4856771 C 0.6640625,0.2721354 0.45833335,0.12109375 0.1796875,0.03255208 0.171875,0.00130208 0.15885417,0 0.140625,0.02864583 l -0.0546875,0.0859375 c 0.28385417,0.0625 0.4973958,0.20963543 0.640625,0.44140626 L 0.796875,0.4856771 M 0.1953125,0.38020835 C 0.1171875,0.4375 0.05208333,0.47916667 0,0.5052083 l 0.05859375,0.0820313 c 0.06510417,-0.0338541 0.13151042,-0.0755208 0.19921875,-0.125 l -0.0625,-0.0820313 M 0.3125,0.61067709 c -0.0703125,0.0494792 -0.13541667,0.0911459 -0.1953125,0.125 l 0.0507813,0.0820312 C 0.23828125,0.7786458 0.3046875,0.7369792 0.3671875,0.6927083 L 0.3125,0.61067709 m 0.32421877,0.265625 C 0.68098959,0.84244796 0.72526046,0.8020833 0.76953127,0.7552083 L 0.71875,0.70442709 c -0.046875,0.0520834 -0.0911458,0.09375 -0.1328125,0.125 l 0.0507813,0.046875 m -0.09375,-0.0664063 c 0.0442708,-0.0364583 0.0885417,-0.078125 0.1328125,-0.125 L 0.625,0.6380208 C 0.5807292,0.6848958 0.5351563,0.7278646 0.48828126,0.76692709 Z"
       id="path344"
       inkscape:connector-curvature="0" />
  </symbol>
  <symbol
     id="font_0_8a2"
     transform="translate(-166.79995,-235.87353)">
    <path
       d="M 0.67578127,0.609375 C 0.62630209,0.32552085 0.46354167,0.12239584 0.1875,0 L 0.1171875,0.07421875 C 0.37239585,0.17838542 0.5260417,0.3580729 0.578125,0.61328127 h -0.3125 C 0.20572917,0.51432296 0.14322917,0.43489585 0.078125,0.375 L 0,0.42578126 c 0.13541667,0.12239583 0.22265625,0.26562501 0.26171876,0.42968751 l 0.0898437,-0.03125 c 0.015625,-0.007813 0.0130208,-0.015625 -0.007813,-0.0234375 -0.0104167,-0.0338542 -0.0247396,-0.0677083 -0.0429687,-0.1015625 H 0.58203127 L 0.6171875,0.71875 0.6875,0.6484375 C 0.7057292,0.6302083 0.701823,0.6171875 0.6757813,0.609375 m 0.0234375,0.09375 C 0.65755209,0.7630208 0.6171875,0.80859377 0.578125,0.83984377 l 0.0507813,0.0429687 c 0.0442708,-0.0390625 0.0859375,-0.0846354 0.125,-0.13671873 L 0.69921877,0.703125 M 0.8125,0.75 C 0.7708333,0.8020833 0.73307296,0.84375 0.69921877,0.875 l 0.046875,0.046875 C 0.78515627,0.8854167 0.8229167,0.84375 0.859375,0.796875 Z"
       id="path347"
       inkscape:connector-curvature="0" />
  </symbol>
  <symbol
     id="font_0_2b"
     transform="translate(-166.79995,-235.87353)">
    <path
       d="M 0,0 V 0.76171877 H 0.08984375 V 0.45703126 H 0.3125 V 0.76171877 H 0.4023438 V 0 H 0.3125 V 0.19140625 0.3828125 H 0.08984375 V 0 Z"
       id="path350"
       inkscape:connector-curvature="0" />
  </symbol>
  <symbol
     id="font_0_52"
     transform="translate(-166.79995,-235.87353)">
    <path
       d="m 0.0625,0.47265626 c 0.04166667,0.0416667 0.09114583,0.0625 0.1484375,0.0625 0.0546875,0 0.1028646,-0.0208333 0.14453126,-0.0625 0.0416666,-0.0416667 0.0625,-0.11067709 0.0625,-0.20703126 0,-0.09375 -0.0208334,-0.16145833 -0.0625,-0.203125 C 0.3138021,0.02083333 0.265625,0 0.2109375,0 0.15364583,0 0.10416667,0.02083333 0.0625,0.0625 0.02083333,0.10416667 0,0.171875 0,0.265625 0,0.36197917 0.02083333,0.4309896 0.0625,0.47265626 m 0.1484375,-0.007813 c -0.03125,0 -0.0585938,-0.0117188 -0.0820313,-0.0351563 C 0.10026042,0.40104167 0.0859375,0.34635417 0.0859375,0.265625 c 0,-0.078125 0.01432292,-0.13151042 0.04296875,-0.16015625 0.0234375,-0.0234375 0.0507813,-0.03515625 0.0820313,-0.03515625 0.0286458,0 0.0546875,0.01171875 0.078125,0.03515625 0.0286458,0.0286458 0.0429688,0.0820313 0.0429688,0.16015625 0,0.0807292 -0.0143229,0.13541667 -0.0429688,0.1640625 -0.0234375,0.0234375 -0.0494792,0.0351563 -0.078125,0.0351558 z"
       id="path353"
       inkscape:connector-curvature="0" />
  </symbol>
  <symbol
     id="font_0_58"
     transform="translate(-166.79995,-235.87353)">
    <path
       d="M 0.30078126,0.078125 C 0.2591146,0.02604167 0.20572917,0 0.140625,0 0.09635417,0 0.0625,0.01171875 0.0390625,0.03515625 0.01302083,0.06119792 0,0.09375 0,0.1328125 V 0.53515627 H 0.078125 V 0.15234375 c 0,-0.03125 0.0065104,-0.05338541 0.01953125,-0.06640625 C 0.11067709,0.07291667 0.1328125,0.06640625 0.1640625,0.06640625 c 0.0364583,0 0.0677083,0.01302084 0.09375,0.0390625 0.0286458,0.0286458 0.0429688,0.0651042 0.0429688,0.109375 v 0.32031252 h 0.078125 V 0 h -0.078125 z"
       id="path356"
       inkscape:connector-curvature="0" />
  </symbol>
  <symbol
     id="font_0_4a"
     transform="translate(-166.79995,-235.87353)">
    <path
       d="m 0.08203125,0.375 c -0.03125,0.0286458 -0.046875,0.0677083 -0.046875,0.1171875 0,0.0572917 0.015625,0.1015625 0.046875,0.1328125 0.02864584,0.0286458 0.06510417,0.0429688 0.109375,0.0429688 0.0442708,0 0.0794271,-0.0130208 0.10546875,-0.0390625 0.0390625,0.03125 0.0820313,0.0442708 0.12890626,0.0390625 V 0.59375 c -0.0364584,0.0104167 -0.0716146,0.0104167 -0.10546876,0 0.0182292,-0.0208333 0.0273438,-0.0546875 0.0273438,-0.1015625 0,-0.0494792 -0.015625,-0.0898437 -0.046875,-0.12109374 C 0.2721354,0.3424479 0.23567708,0.328125 0.19140625,0.328125 c -0.0234375,0 -0.0455729,0.005208 -0.0664063,0.015625 C 0.10156245,0.3307292 0.0898437,0.3164063 0.0898437,0.3007813 c 0,-0.0104167 0.0052083,-0.0208334 0.015625,-0.03125 C 0.11848959,0.2565104 0.15494792,0.25 0.21484375,0.25 0.2955729,0.25 0.34895835,0.23697917 0.375,0.2109375 0.3984375,0.1875 0.41015626,0.16145833 0.41015626,0.1328125 0.41015626,0.09895834 0.3984375,0.0703125 0.375,0.046875 0.34375,0.015625 0.2877604,0 0.20703125,0 0.12109375,0 0.0625,0.015625 0.03125,0.046875 0.01041667,0.06770834 0,0.08984375 0,0.11328125 c 0,0.0338542 0.0234375,0.0651042 0.0703125,0.09375 -0.03385417,0.0182292 -0.05078125,0.0442708 -0.05078125,0.078125 0,0.0338541 0.02083333,0.0638021 0.0625,0.0898437 M 0.125,0.1875 C 0.08854167,0.16666667 0.0703125,0.14453125 0.0703125,0.12109375 c 0,-0.0104167 0.0065104,-0.02213541 0.01953125,-0.03515625 0.02083334,-0.02083333 0.06119792,-0.03125 0.12109375,-0.03125 0.0520833,0 0.0872396,0.0091146 0.10546876,0.02734375 C 0.3294271,0.09505209 0.3359375,0.109375 0.3359375,0.125 c 0,0.0130208 -0.005208,0.0247396 -0.015625,0.0351563 -0.0130208,0.0130208 -0.0429687,0.0195313 -0.0898438,0.0195313 -0.0234375,0 -0.0585938,0.002604 -0.10546875,0.007813 m 0.0664063,0.4140625 c -0.0208333,0 -0.0390625,-0.007813 -0.0546875,-0.0234375 -0.015625,-0.015625 -0.0234375,-0.0442708 -0.0234375,-0.0859375 0,-0.0338542 0.007813,-0.0585937 0.0234375,-0.0742187 0.015625,-0.015625 0.0338542,-0.0234375 0.0546875,-0.0234375 0.0208333,0 0.0390625,0.007813 0.0546875,0.0234375 0.015625,0.015625 0.0234375,0.0403646 0.0234375,0.0742187 0,0.0416667 -0.007813,0.0703125 -0.0234375,0.0859375 -0.015625,0.015625 -0.0338542,0.0234375 -0.0546875,0.0234375 z"
       id="path359"
       inkscape:connector-curvature="0" />
  </symbol>
  <symbol
     id="font_0_3"
     transform="translate(-166.79995,-235.87353)">
    <path
       d="M 0,0 Z"
       id="path362"
       inkscape:connector-curvature="0" />
  </symbol>
  <symbol
     id="font_0_b"
     transform="translate(-166.79995,-235.87353)">
    <path
       d="M 0.1953125,0 C 0.06510417,0.12760417 0,0.27734376 0,0.44921876 0,0.62109377 0.06510417,0.7708333 0.1953125,0.8984375 L 0.2382812,0.8554688 C 0.11848959,0.74348959 0.05859375,0.60807296 0.05859375,0.44921876 c 0,-0.15885416 0.05989584,-0.29427084 0.1796875,-0.40625001 z"
       id="path365"
       inkscape:connector-curvature="0" />
  </symbol>
  <symbol
     id="font_0_45"
     transform="translate(-166.79995,-235.87353)">
    <path
       d="m 0.078125,0.44921876 c 0.04166667,0.0572917 0.08984375,0.0859375 0.14453125,0.0859375 0.0416667,0 0.078125,-0.015625 0.10937501,-0.046875 0.0416666,-0.0416667 0.0625,-0.11197916 0.0625,-0.2109375 0,-0.10416668 -0.0208334,-0.17708334 -0.0625,-0.21875001 C 0.29296876,0.01953125 0.25260417,0 0.2109375,0 0.16145833,0 0.1171875,0.02213542 0.078125,0.06640625 V 0 H 0 V 0.76171877 H 0.078125 V 0.44921876 m 0,-0.1953125 c 0,-0.0755208 0.01302084,-0.12630209 0.0390625,-0.15234376 C 0.140625,0.078125 0.1653646,0.06640625 0.1914063,0.06640625 c 0.03125,0 0.0559896,0.0091146 0.0742188,0.02734375 0.0338542,0.03385417 0.0507813,0.09244792 0.0507813,0.17578126 0,0.0807291 -0.015625,0.13671874 -0.046875,0.16796874 C 0.2513022,0.4557292 0.2278647,0.4648438 0.1992189,0.4648438 0.1705731,0.4648438 0.1432293,0.4518229 0.1171876,0.4257813 0.09114584,0.3997396 0.078125,0.3424479 0.078125,0.25390626 Z"
       id="path368"
       inkscape:connector-curvature="0" />
  </symbol>
  <symbol
     id="font_0_c"
     transform="translate(-166.79995,-235.87353)">
    <path
       d="M 0.23828125,0.44921876 C 0.23828125,0.27734376 0.17317708,0.12760417 0.04296875,0 L 0,0.04296875 C 0.11979167,0.15494792 0.1796875,0.2903646 0.1796875,0.44921876 0.1796875,0.60807296 0.11979167,0.74348959 0,0.85546877 L 0.04296875,0.8984375 C 0.17317708,0.7708333 0.23828125,0.62109377 0.23828125,0.44921876 Z"
       id="path371"
       inkscape:connector-curvature="0" />
  </symbol>
  <symbol
     id="font_0_46"
     transform="translate(-166.79995,-235.87353)">
    <path
       d="m 0.30859376,0.3515625 c -0.005208,0.0416667 -0.0169271,0.0716146 -0.0351563,0.0898438 -0.015625,0.015625 -0.0351563,0.0234375 -0.0585938,0.0234375 -0.0286458,0 -0.0546875,-0.0117188 -0.078125,-0.0351563 -0.03125,-0.03125 -0.046875,-0.0898437 -0.046875,-0.17578124 0,-0.0703125 0.01432292,-0.11979168 0.04296875,-0.14843751 0.0234375,-0.0234375 0.0494792,-0.03515625 0.078125,-0.03515625 0.0260417,0 0.0494792,0.01041667 0.0703125,0.03125 0.0260417,0.0260417 0.0377604,0.0677083 0.0351563,0.125 H 0.40625 C 0.40885417,0.15364583 0.3893229,0.09635417 0.34765626,0.0546875 0.3111979,0.01822917 0.265625,0 0.2109375,0 0.15625,0 0.10807292,0.02083333 0.06640625,0.0625 0.02213542,0.10677084 0,0.17057292 0,0.25390626 c 0,0.0963541 0.02473958,0.16927084 0.07421875,0.21875 0.04166667,0.0416667 0.08854167,0.0625 0.140625,0.0625 0.0520833,0 0.09375,-0.015625 0.12500001,-0.046875 0.0338541,-0.0338542 0.0520833,-0.0794271 0.0546875,-0.13671876 z"
       id="path374"
       inkscape:connector-curvature="0" />
  </symbol>
  <symbol
     id="font_0_f"
     transform="translate(-166.79995,-235.87353)">
    <path
       d="M 0.0390625,0 H 0 L 0.0390625,0.10546875 H 0 v 0.0859375 h 0.08984375 v -0.0859375 z"
       id="path377"
       inkscape:connector-curvature="0" />
  </symbol>
  <symbol
     id="font_0_47"
     transform="translate(-166.79995,-235.87353)">
    <path
       d="M 0.3203125,0.078125 C 0.27864585,0.02604167 0.23177083,0 0.1796875,0 0.140625,0 0.10286459,0.01822917 0.06640625,0.0546875 0.02213542,0.09895834 0,0.17317708 0,0.27734376 c 0,0.0859375 0.02473958,0.15364584 0.07421875,0.203125 0.03645834,0.0364583 0.07682292,0.0546875 0.12109375,0.0546875 0.046875,0 0.0885417,-0.0195313 0.125,-0.0585938 v 0.28515627 h 0.078125 V 0 H 0.3203125 V 0.078125 M 0.203125,0.46484376 c -0.0234375,0 -0.0455729,-0.0104167 -0.0664063,-0.03125 -0.0338541,-0.0338542 -0.0507812,-0.0885417 -0.0507812,-0.1640625 0,-0.0859375 0.01432292,-0.14322918 0.04296875,-0.17187501 0.0182292,-0.01822916 0.0416667,-0.02734375 0.0703125,-0.02734375 0.0234375,0 0.046875,0.01171875 0.0703125,0.03515625 0.0338541,0.0338542 0.0507812,0.0911458 0.0507812,0.17187501 0,0.0729166 -0.0169271,0.12630209 -0.0507812,0.16015624 -0.0182292,0.0182292 -0.0403646,0.0273438 -0.0664063,0.0273438 z"
       id="path380"
       inkscape:connector-curvature="0" />
  </symbol>
  <symbol
     id="font_0_48"
     transform="translate(-166.79995,-235.87353)">
    <path
       d="M 0.3984375,0.18359375 C 0.390625,0.12630208 0.37109376,0.08203125 0.33984376,0.05078125 0.3059896,0.01692708 0.26302085,0 0.2109375,0 0.15364583,0 0.10807292,0.01692708 0.07421875,0.05078125 0.02473958,0.10026042 0,0.171875 0,0.265625 c 0,0.0963542 0.02213542,0.16666667 0.06640625,0.2109375 0.0390625,0.0390625 0.0859375,0.0585938 0.140625,0.0585938 0.0442708,0 0.0846354,-0.015625 0.12109375,-0.046875 C 0.375,0.44921876 0.3971354,0.375 0.39453126,0.265625 H 0.0859375 c 0,-0.0859375 0.015625,-0.140625 0.046875,-0.1640625 0.0182292,-0.01822916 0.0442708,-0.02734375 0.078125,-0.02734375 0.0286458,0 0.0520833,0.0091146 0.0703125,0.02734375 0.015625,0.015625 0.0247396,0.0429687 0.0273438,0.0820313 H 0.3984375 M 0.3046875,0.328125 C 0.3072915,0.3802083 0.2955725,0.4179688 0.2695313,0.44140626 0.24609375,0.4622396 0.22265625,0.47135417 0.19921875,0.46875 0.17317708,0.46614585 0.1484375,0.453125 0.125,0.4296875 0.10416667,0.40885417 0.09114584,0.375 0.0859375,0.328125 Z"
       id="path383"
       inkscape:connector-curvature="0" />
  </symbol>
  <g
     id="use386"
     style="fill:#191924"
     transform="matrix(11.547204,0,0,-11.5447,56.45905,288.98484)">
    <path
       inkscape:connector-curvature="0"
       id="path8652"
       d="m 0.0859375,0.11458333 c 0.28385417,0.0625 0.4973958,0.20963543 0.640625,0.44140626 L 0.796875,0.4856771 C 0.6640625,0.2721354 0.45833335,0.12109375 0.1796875,0.03255208 0.171875,0.00130208 0.15885417,0 0.140625,0.02864583 L 0.0859375,0.11458333 M 0.05859375,0.58723959 C 0.12369792,0.55338546 0.19010417,0.51171877 0.2578125,0.4622396 l -0.0625,-0.0820313 C 0.1171875,0.4375 0.05208333,0.47916667 0,0.5052083 l 0.05859375,0.0820313 m 0.109375,0.23046871 C 0.23828125,0.7786458 0.3046875,0.7369792 0.3671875,0.6927083 L 0.3125,0.61067709 c -0.0703125,0.0494792 -0.13541667,0.0911459 -0.1953125,0.125 z" />
  </g>
  <g
     id="use388"
     style="fill:#191924"
     transform="matrix(11.547204,0,0,-11.5447,68.09645,289.15024)">
    <path
       inkscape:connector-curvature="0"
       id="path8656"
       d="m 0.3046875,0.48828126 0.3203125,0.078125 0.0195313,0.0117187 0.0625,-0.0625 C 0.71744796,0.5052083 0.7135417,0.49739585 0.6953125,0.4921875 0.6484375,0.41666667 0.5989583,0.34375 0.546875,0.2734375 L 0.4804688,0.3164063 C 0.5221355,0.3710938 0.561198,0.42838544 0.59765631,0.4882813 L 0.328125,0.421875 0.4609375,0.02734375 0.3828125,0 0.25390626,0.40625 0.02734375,0.34375 0,0.421875 l 0.2265625,0.0507813 -0.0625,0.18750001 0.0820313,0.015625 c 0.0234375,0 0.0273438,-0.009115 0.0117188,-0.0273438 z" />
  </g>
  <g
     id="use390"
     style="fill:#191924"
     transform="matrix(11.547204,0,0,-11.5447,79.91435,288.65414)">
    <path
       inkscape:connector-curvature="0"
       id="path8660"
       d="M 0.07421875,0.0859375 C 0.3997396,0.16145833 0.5703125,0.3346354 0.5859375,0.60546877 H 0 v 0.0859375 H 0.59375 L 0.6484375,0.703125 0.69140627,0.6640625 C 0.68098959,0.31770835 0.4986979,0.09635417 0.14453125,0 Z" />
  </g>
  <g
     id="use392"
     style="fill:#191924"
     transform="matrix(11.547204,0,0,-11.5447,93.89725,288.78944)">
    <path
       inkscape:connector-curvature="0"
       id="path8664"
       d="M 0.08984375,0.50390627 C 0.21744792,0.4674479 0.34635417,0.41796876 0.4765625,0.35546876 L 0.4296875,0.265625 C 0.29166667,0.3359375 0.17838542,0.3828125 0.08984375,0.40625 V 0 H 0 V 0.78125 H 0.078125 C 0.109375,0.7786458 0.11328125,0.7682292 0.08984375,0.75 Z" />
  </g>
  <g
     id="use394"
     style="fill:#191924"
     transform="matrix(11.547204,0,0,-11.5447,55.33135,301.05024)">
    <path
       inkscape:connector-curvature="0"
       id="path8668"
       d="M 0.1640625,0.4765625 C 0.21875,0.4296875 0.2734375,0.390625 0.328125,0.359375 0.3880208,0.3255208 0.4179688,0.2760417 0.4179688,0.2109375 0.4179688,0.1458333 0.3984375,0.09375 0.359375,0.0546875 0.32291667,0.01822917 0.2721354,0 0.20703125,0 0.14453125,0 0.09635417,0.01692708 0.0625,0.05078125 0.02083333,0.09244792 0,0.14192708 0,0.19921875 v 0.0390625 H 0.08984375 V 0.203125 c 0,-0.0416667 0.01041667,-0.0729167 0.03125,-0.09375 0.0208333,-0.02083333 0.046875,-0.03125 0.078125,-0.03125 0.0416667,0 0.0729167,0.01041667 0.09375,0.03125 0.0234375,0.0234375 0.0351562,0.0533854 0.0351562,0.0898438 0,0.0390625 -0.0182292,0.0703125 -0.0546875,0.09375 C 0.20833333,0.3346354 0.14713542,0.37890626 0.08984375,0.42578126 0.04817708,0.4596354 0.02604167,0.5052083 0.0234375,0.5625 0.0208333,0.6197917 0.04036458,0.66796877 0.08203125,0.70703127 c 0.0390625,0.0364583 0.08203125,0.0546875 0.12890625,0.0546875 0.0572917,0 0.1015625,-0.015625 0.1328125,-0.046875 0.0390625,-0.0390625 0.0572917,-0.09375 0.0546875,-0.1640625 H 0.3085938 C 0.3138018,0.59505207 0.3033858,0.63020827 0.2773438,0.65625 0.2591146,0.6744792 0.2369792,0.6835938 0.2109375,0.6835938 0.1848958,0.6835938 0.1627604,0.6744788 0.1445312,0.65625 0.12109375,0.6328125 0.109375,0.60546877 0.109375,0.57421877 c 0,-0.0338542 0.0182292,-0.0664063 0.0546875,-0.0976563 z" />
  </g>
  <g
     id="use396"
     style="fill:#191924"
     transform="matrix(11.547204,0,0,-11.5447,61.28545,301.05024)">
    <path
       inkscape:connector-curvature="0"
       id="path8672"
       d="m 0.078125,0.44140626 c 0.015625,0.0208333 0.02864584,0.0364583 0.0390625,0.046875 0.03125,0.03125 0.0729167,0.046875 0.125,0.046875 0.0442708,0 0.0794271,-0.0130208 0.10546876,-0.0390625 0.0234375,-0.0234375 0.0351562,-0.0559896 0.0351562,-0.0976563 V 0 h -0.078125 v 0.37109376 c 0,0.0338541 -0.009115,0.0598958 -0.0273437,0.078125 -0.015625,0.015625 -0.0364583,0.0234375 -0.0625,0.0234375 -0.0260417,0 -0.0533854,-0.0143229 -0.0820313,-0.0429688 C 0.09635417,0.39322917 0.078125,0.3450521 0.078125,0.28515626 V 0 H 0 v 0.76171877 h 0.078125 z" />
  </g>
  <g
     id="use398"
     style="fill:#191924"
     transform="matrix(11.547204,0,0,-11.5447,66.96875,301.05024)">
    <path
       inkscape:connector-curvature="0"
       id="path8676"
       d="M 0.296875,0.29296876 C 0.265625,0.2747396 0.22916667,0.2591146 0.1875,0.24609375 0.15625,0.23567708 0.13151042,0.22135417 0.11328125,0.203125 0.10026042,0.19010417 0.09375,0.171875 0.09375,0.1484375 c 0,-0.0260417 0.0065104,-0.0455729 0.01953125,-0.05859375 0.0130208,-0.01302083 0.0338542,-0.01953125 0.0625,-0.01953125 0.046875,0 0.0872396,0.02734375 0.12109375,0.08203125 v 0.14062501 m 0,-0.23437501 C 0.2578125,0.01953125 0.20963542,0 0.15234375,0 0.10546875,0 0.06770834,0.01432292 0.0390625,0.04296875 0.01302083,0.06901042 0,0.1015625 0,0.140625 0,0.18229167 0.01432292,0.21744792 0.04296875,0.24609375 0.06901042,0.2721354 0.09895834,0.2903646 0.1328125,0.30078126 0.22135417,0.3294271 0.26953126,0.34895835 0.27734376,0.359375 0.2903646,0.375 0.296875,0.390625 0.296875,0.40625 c 0,0.015625 -0.007813,0.0299479 -0.0234375,0.0429688 -0.0130208,0.0104166 -0.0364583,0.015625 -0.0703125,0.015625 -0.0260417,0 -0.046875,-0.007813 -0.0625,-0.0234375 C 0.11979167,0.4205729 0.10807292,0.39322917 0.10546875,0.359375 h -0.0859375 c 0.0026042,0.0520833 0.02083333,0.0950521 0.0546875,0.12890626 0.03125,0.03125 0.07421875,0.046875 0.12890625,0.046875 0.0625,0 0.10677085,-0.0130208 0.1328125,-0.0390625 C 0.36197917,0.4700521 0.375,0.4375 0.375,0.3984375 V 0.08984375 C 0.375,0.05859375 0.38541667,0.02864583 0.40625,0 H 0.3125 C 0.30208335,0.01041667 0.296875,0.02994792 0.296875,0.05859375 Z" />
  </g>
  <g
     id="use400"
     style="fill:#191924"
     transform="matrix(11.547204,0,0,-11.5447,72.74235,301.05024)">
    <path
       inkscape:connector-curvature="0"
       id="path8680"
       d="m 0.2109375,0.53515627 h 0.16015626 v -0.0625 H 0.2109375 V 0 H 0.1328125 V 0.23828125 0.47265626 H 0 v 0.0625 h 0.1328125 v 0.0976562 c 0,0.0859375 0.0481771,0.12890627 0.14453126,0.12890627 0.0572916,0 0.0989583,-0.00651 0.125,-0.0195313 V 0.6640625 C 0.37890626,0.6770833 0.3359375,0.6848958 0.2734375,0.6875 0.2317708,0.690104 0.2109375,0.6731771 0.2109375,0.6367188 Z" />
  </g>
  <g
     id="use402"
     style="fill:#191924"
     transform="matrix(11.547204,0,0,-11.5447,78.42575,301.05024)">
    <path
       inkscape:connector-curvature="0"
       id="path8684"
       d="M 0.125,0.47265626 H 0 v 0.0625 h 0.125 v 0.171875 h 0.078125 v -0.171875 h 0.17578126 v -0.0625 H 0.203125 V 0.1171875 c 0,-0.02864583 0.0208333,-0.04296875 0.0625,-0.04296875 0.0442708,0 0.0898438,0.01041667 0.13671876,0.03125 V 0.0234375 C 0.3372396,0.0078125 0.2877604,0 0.25390626,0 0.16796875,0 0.125,0.03385417 0.125,0.1015625 Z" />
  </g>
  <g
     id="use404"
     style="fill:#191924"
     transform="matrix(11.547204,0,0,-11.5447,177.21495,288.47374)">
    <path
       inkscape:connector-curvature="0"
       id="path8688"
       d="m 0.58984377,0.66015627 c 0.0208333,0 0.0377604,0.00651 0.0507812,0.0195312 0.0130208,0.0130208 0.0195313,0.029948 0.0195313,0.0507813 0,0.0208333 -0.00651,0.0377604 -0.0195313,0.0507812 -0.0130208,0.0130208 -0.0299479,0.0195313 -0.0507812,0.0195313 -0.0208333,0 -0.0377605,-0.00651 -0.0507813,-0.0195313 -0.0130208,-0.0130208 -0.0195312,-0.0299479 -0.0195312,-0.0507812 0,-0.0208333 0.00651,-0.0377605 0.0195312,-0.0507813 0.0130208,-0.0130208 0.029948,-0.0195312 0.0507813,-0.0195312 m 0,-0.0390625 c -0.03125,0 -0.0572917,0.0104167 -0.078125,0.03125 -0.0208334,0.0208333 -0.03125,0.046875 -0.03125,0.078125 0,0.03125 0.0104166,0.0572917 0.03125,0.078125 0.0208333,0.0208333 0.046875,0.03125 0.078125,0.03125 0.03125,0 0.0572917,-0.0104167 0.078125,-0.03125 0.0208333,-0.0208333 0.03125,-0.046875 0.03125,-0.078125 0,-0.03125 -0.0104167,-0.0572917 -0.03125,-0.078125 -0.0208333,-0.0208333 -0.046875,-0.03125 -0.078125,-0.03125 M 0.5859375,0.4921875 C 0.5989583,0.46875 0.58723959,0.46484376 0.55078127,0.48046876 0.4049479,0.44140626 0.2513021,0.41145835 0.08984375,0.390625 V 0.13671875 c 0,-0.0338542 0.01692709,-0.05078125 0.05078125,-0.05078125 H 0.58984377 L 0.58203127,0 H 0.125 C 0.04166667,0 0,0.03385417 0,0.1015625 v 0.61328127 h 0.078125 c 0.02864584,-0.005208 0.03255209,-0.015625 0.01171875,-0.03125 V 0.484375 C 0.2669271,0.5052083 0.421875,0.53776046 0.5546875,0.58203127 Z" />
  </g>
  <g
     id="use406"
     style="fill:#191924"
     transform="matrix(11.547204,0,0,-11.5447,188.04045,288.80444)">
    <path
       inkscape:connector-curvature="0"
       id="path8692"
       d="M 0.765625,0.48958335 C 0.6276042,0.203125 0.39583335,0.05208333 0.0703125,0.03645833 0.05729167,0.00260417 0.04427083,0 0.03125,0.02864583 L 0,0.13020833 c 0.33854167,0.007813 0.56640627,0.14713543 0.68359377,0.41796876 L 0.765625,0.48958335 m -0.55078125,0 C 0.14453125,0.5546875 0.078125,0.60807296 0.015625,0.64973959 L 0.08203125,0.7317708 C 0.13671875,0.6979167 0.20572917,0.64192709 0.2890625,0.56380209 Z" />
  </g>
  <g
     id="use408"
     style="fill:#191924"
     transform="matrix(11.547204,0,0,-11.5447,175.23025,301.05024)">
    <path
       inkscape:connector-curvature="0"
       id="path8696"
       d="M 0.08984375,0.6875 V 0.3984375 H 0.1796875 c 0.046875,0 0.0833333,0.0130208 0.109375,0.0390625 0.0234375,0.0234375 0.0351563,0.0585938 0.0351563,0.10546877 0,0.046875 -0.0117188,0.0820312 -0.0351563,0.10546873 C 0.26302085,0.6744792 0.2265625,0.6875 0.1796875,0.6875 H 0.08984375 M 0.203125,0.76171877 c 0.0625,0 0.11197917,-0.0182292 0.1484375,-0.0546875 0.0390625,-0.0390625 0.0585938,-0.09375 0.0585938,-0.1640625 0,-0.0703125 -0.0195313,-0.12500001 -0.0585938,-0.16406251 C 0.31510417,0.3424479 0.265625,0.32421876 0.203125,0.32421876 H 0.08984375 V 0 H 0 v 0.76171877 z" />
  </g>
  <g
     id="use410"
     style="fill:#191924"
     transform="matrix(11.547204,0,0,-11.5447,182.76305,301.05024)">
    <path
       inkscape:connector-curvature="0"
       id="path8700"
       d="M 0.078125,0 H 0 V 0.53515627 H 0.078125 V 0 m 0,0.76171877 V 0.66015627 H 0 v 0.1015625 z" />
  </g>
  <g
     id="use412"
     style="fill:#191924"
     transform="matrix(11.547204,0,0,-11.5447,186.82265,301.05024)">
    <path
       inkscape:connector-curvature="0"
       id="path8704"
       d="m 0.3046875,0.3828125 c 0,0.0234375 -0.007813,0.0429688 -0.0234375,0.0585938 -0.015625,0.015625 -0.0364583,0.0234375 -0.0625,0.0234375 -0.0286458,0 -0.0572917,-0.0143229 -0.0859375,-0.0429688 C 0.09635417,0.38541667 0.078125,0.33854167 0.078125,0.28125 V 0 H 0 V 0.53515627 H 0.078125 V 0.43359376 c 0.01302084,0.0182291 0.02864584,0.0364583 0.046875,0.0546875 0.03125,0.03125 0.0703125,0.046875 0.1171875,0.046875 0.0416667,0 0.0755208,-0.0130208 0.1015625,-0.0390625 C 0.36979167,0.4700521 0.3828125,0.43489585 0.3828125,0.390625 V 0 h -0.078125 z" />
  </g>
  <g
     id="use414"
     style="fill:#191924"
     transform="matrix(11.547204,0,0,-11.5447,318.32795,287.97774)">
    <path
       inkscape:connector-curvature="0"
       id="path8708"
       d="M 0.79296877,0.01953125 C 0.72786459,0.22526042 0.6432292,0.3893229 0.5390625,0.51171877 l 0.0820313,0.0625 C 0.75130209,0.41015626 0.84375,0.23697917 0.8984375,0.0546875 L 0.79296877,0.01953125 M 0.32421876,0.484375 C 0.3450521,0.47135417 0.3424479,0.4596354 0.31640626,0.44921876 0.26953126,0.28515626 0.19401042,0.13541667 0.08984375,0 L 0,0.05859375 C 0.11458334,0.19661458 0.19140625,0.3528646 0.23046875,0.52734377 Z" />
  </g>
  <g
     id="use416"
     style="fill:#191924"
     transform="matrix(11.547204,0,0,-11.5447,330.86755,289.28554)">
    <path
       inkscape:connector-curvature="0"
       id="path8712"
       d="M 0.73828127,0.62890627 C 0.73828127,0.3450521 0.6015625,0.13541667 0.328125,0 L 0.25390626,0.07421875 C 0.50651046,0.18880208 0.63411459,0.3606771 0.63671877,0.58984377 H 0.09375 L 0.1015625,0.359375 H 0.01171875 L 0,0.67578127 h 0.30859376 v 0.1953125 h 0.078125 c 0.03125,-0.002604 0.0351562,-0.0130208 0.0117187,-0.03125 v -0.1640625 h 0.29296877 z" />
  </g>
  <g
     id="use418"
     style="fill:#191924"
     transform="matrix(11.547204,0,0,-11.5447,342.41475,288.98484)">
    <path
       inkscape:connector-curvature="0"
       id="path8716"
       d="M 0.796875,0.4856771 C 0.6640625,0.2721354 0.45833335,0.12109375 0.1796875,0.03255208 0.171875,0.00130208 0.15885417,0 0.140625,0.02864583 l -0.0546875,0.0859375 c 0.28385417,0.0625 0.4973958,0.20963543 0.640625,0.44140626 L 0.796875,0.4856771 M 0.1953125,0.38020835 C 0.1171875,0.4375 0.05208333,0.47916667 0,0.5052083 l 0.05859375,0.0820313 c 0.06510417,-0.0338541 0.13151042,-0.0755208 0.19921875,-0.125 l -0.0625,-0.0820313 M 0.3125,0.61067709 c -0.0703125,0.0494792 -0.13541667,0.0911459 -0.1953125,0.125 l 0.0507813,0.0820312 C 0.23828125,0.7786458 0.3046875,0.7369792 0.3671875,0.6927083 L 0.3125,0.61067709 m 0.32421877,0.265625 C 0.68098959,0.84244796 0.72526046,0.8020833 0.76953127,0.7552083 L 0.71875,0.70442709 c -0.046875,0.0520834 -0.0911458,0.09375 -0.1328125,0.125 l 0.0507813,0.046875 m -0.09375,-0.0664063 c 0.0442708,-0.0364583 0.0885417,-0.078125 0.1328125,-0.125 L 0.625,0.6380208 C 0.5807292,0.6848958 0.5351563,0.7278646 0.48828126,0.76692709 Z" />
  </g>
  <g
     id="use420"
     style="fill:#191924"
     transform="matrix(11.547204,0,0,-11.5447,354.27765,288.80444)">
    <path
       inkscape:connector-curvature="0"
       id="path8720"
       d="M 0.765625,0.48958335 C 0.6276042,0.203125 0.39583335,0.05208333 0.0703125,0.03645833 0.05729167,0.00260417 0.04427083,0 0.03125,0.02864583 L 0,0.13020833 c 0.33854167,0.007813 0.56640627,0.14713543 0.68359377,0.41796876 L 0.765625,0.48958335 m -0.55078125,0 C 0.14453125,0.5546875 0.078125,0.60807296 0.015625,0.64973959 L 0.08203125,0.7317708 C 0.13671875,0.6979167 0.20572917,0.64192709 0.2890625,0.56380209 Z" />
  </g>
  <g
     id="use422"
     style="fill:#191924"
     transform="matrix(11.547204,0,0,-11.5447,365.19335,289.24044)">
    <path
       inkscape:connector-curvature="0"
       id="path8558"
       d="M 0.67578127,0.609375 C 0.62630209,0.32552085 0.46354167,0.12239584 0.1875,0 L 0.1171875,0.07421875 C 0.37239585,0.17838542 0.5260417,0.3580729 0.578125,0.61328127 h -0.3125 C 0.20572917,0.51432296 0.14322917,0.43489585 0.078125,0.375 L 0,0.42578126 c 0.13541667,0.12239583 0.22265625,0.26562501 0.26171876,0.42968751 l 0.0898437,-0.03125 c 0.015625,-0.007813 0.0130208,-0.015625 -0.007813,-0.0234375 -0.0104167,-0.0338542 -0.0247396,-0.0677083 -0.0429687,-0.1015625 H 0.58203127 L 0.6171875,0.71875 0.6875,0.6484375 C 0.7057292,0.6302083 0.701823,0.6171875 0.6757813,0.609375 m 0.0234375,0.09375 C 0.65755209,0.7630208 0.6171875,0.80859377 0.578125,0.83984377 l 0.0507813,0.0429687 c 0.0442708,-0.0390625 0.0859375,-0.0846354 0.125,-0.13671873 L 0.69921877,0.703125 M 0.8125,0.75 C 0.7708333,0.8020833 0.73307296,0.84375 0.69921877,0.875 l 0.046875,0.046875 C 0.78515627,0.8854167 0.8229167,0.84375 0.859375,0.796875 Z" />
  </g>
  <g
     id="use424"
     style="fill:#191924"
     transform="matrix(11.547204,0,0,-11.5447,318.28285,301.05024)">
    <path
       inkscape:connector-curvature="0"
       id="path8724"
       d="M 0,0 V 0.76171877 H 0.08984375 V 0.45703126 H 0.3125 V 0.76171877 H 0.4023438 V 0 H 0.3125 V 0.19140625 0.3828125 H 0.08984375 V 0 Z" />
  </g>
  <g
     id="use426"
     style="fill:#191924"
     transform="matrix(11.547204,0,0,-11.5447,323.96625,301.05024)">
    <path
       inkscape:connector-curvature="0"
       id="path8728"
       d="m 0.0625,0.47265626 c 0.04166667,0.0416667 0.09114583,0.0625 0.1484375,0.0625 0.0546875,0 0.1028646,-0.0208333 0.14453126,-0.0625 0.0416666,-0.0416667 0.0625,-0.11067709 0.0625,-0.20703126 0,-0.09375 -0.0208334,-0.16145833 -0.0625,-0.203125 C 0.3138021,0.02083333 0.265625,0 0.2109375,0 0.15364583,0 0.10416667,0.02083333 0.0625,0.0625 0.02083333,0.10416667 0,0.171875 0,0.265625 0,0.36197917 0.02083333,0.4309896 0.0625,0.47265626 m 0.1484375,-0.007813 c -0.03125,0 -0.0585938,-0.0117188 -0.0820313,-0.0351563 C 0.10026042,0.40104167 0.0859375,0.34635417 0.0859375,0.265625 c 0,-0.078125 0.01432292,-0.13151042 0.04296875,-0.16015625 0.0234375,-0.0234375 0.0507813,-0.03515625 0.0820313,-0.03515625 0.0286458,0 0.0546875,0.01171875 0.078125,0.03515625 0.0286458,0.0286458 0.0429688,0.0820313 0.0429688,0.16015625 0,0.0807292 -0.0143229,0.13541667 -0.0429688,0.1640625 -0.0234375,0.0234375 -0.0494792,0.0351563 -0.078125,0.0351558 z" />
  </g>
  <g
     id="use428"
     style="fill:#191924"
     transform="matrix(11.547204,0,0,-11.5447,329.92015,301.05024)">
    <path
       inkscape:connector-curvature="0"
       id="path8732"
       d="M 0.30078126,0.078125 C 0.2591146,0.02604167 0.20572917,0 0.140625,0 0.09635417,0 0.0625,0.01171875 0.0390625,0.03515625 0.01302083,0.06119792 0,0.09375 0,0.1328125 V 0.53515627 H 0.078125 V 0.15234375 c 0,-0.03125 0.0065104,-0.05338541 0.01953125,-0.06640625 C 0.11067709,0.07291667 0.1328125,0.06640625 0.1640625,0.06640625 c 0.0364583,0 0.0677083,0.01302084 0.09375,0.0390625 0.0286458,0.0286458 0.0429688,0.0651042 0.0429688,0.109375 v 0.32031252 h 0.078125 V 0 h -0.078125 z" />
  </g>
  <g
     id="use430"
     style="fill:#191924"
     transform="matrix(11.547204,0,0,-11.5447,335.75405,301.05024)">
    <path
       inkscape:connector-curvature="0"
       id="path8736"
       d="m 0.2799479,0.375 c -0.002604,0.0286458 -0.0117187,0.0507813 -0.0273437,0.0664063 -0.015625,0.015625 -0.0364583,0.0234375 -0.0625,0.0234375 -0.0338542,0 -0.0572917,-0.00651 -0.0703125,-0.0195313 -0.015625,-0.015625 -0.0234375,-0.0325521 -0.0234375,-0.0507812 0,-0.0130209 0.0065104,-0.0260417 0.01953125,-0.0390625 C 0.13411458,0.3372396 0.17317708,0.31770835 0.23307292,0.296875 0.2799479,0.28125 0.3138021,0.26302085 0.3346354,0.2421875 0.3580729,0.21875 0.36979167,0.1875 0.36979167,0.1484375 c 0,-0.0364583 -0.0130208,-0.06770833 -0.0390625,-0.09375 C 0.29427085,0.01822917 0.24739583,0 0.19010417,0 c -0.0625,0 -0.109375,0.015625 -0.140625,0.046875 C 0.015625,0.08072917 0,0.13411458 0.00260417,0.20703125 h 0.078125 c 0,-0.0572917 0.0078125,-0.09375 0.0234375,-0.109375 0.0182292,-0.01822916 0.0455729,-0.02734375 0.0820312,-0.02734375 0.0364583,0 0.0638021,0.0091146 0.0820313,0.02734375 0.015625,0.015625 0.0234375,0.03385417 0.0234375,0.0546875 0,0.015625 -0.007813,0.03125 -0.0234375,0.046875 -0.015625,0.015625 -0.0455729,0.03125 -0.0898438,0.046875 -0.0651042,0.0234375 -0.10807291,0.0455729 -0.12890625,0.0664063 -0.0234375,0.0234375 -0.03515625,0.0520833 -0.03515625,0.0859375 0,0.0338542 0.01432291,0.0651042 0.04296875,0.09375 0.02864583,0.0286458 0.07291666,0.0429688 0.1328125,0.0429688 0.0520833,0 0.09375,-0.015625 0.125,-0.046875 0.03125,-0.03125 0.0455729,-0.0690104 0.0429687,-0.11328126 z" />
  </g>
  <g
     id="use432"
     style="fill:#191924"
     transform="matrix(11.547204,0,0,-11.5447,343.22655,301.05024)">
    <path
       inkscape:connector-curvature="0"
       id="path8740"
       d="M 0.078125,0 H 0 V 0.53515627 H 0.078125 V 0 m 0,0.76171877 V 0.66015627 H 0 v 0.1015625 z" />
  </g>
  <g
     id="use434"
     style="fill:#191924"
     transform="matrix(11.547204,0,0,-11.5447,347.28615,301.05024)">
    <path
       inkscape:connector-curvature="0"
       id="path8744"
       d="m 0.3046875,0.3828125 c 0,0.0234375 -0.007813,0.0429688 -0.0234375,0.0585938 -0.015625,0.015625 -0.0364583,0.0234375 -0.0625,0.0234375 -0.0286458,0 -0.0572917,-0.0143229 -0.0859375,-0.0429688 C 0.09635417,0.38541667 0.078125,0.33854167 0.078125,0.28125 V 0 H 0 V 0.53515627 H 0.078125 V 0.43359376 c 0.01302084,0.0182291 0.02864584,0.0364583 0.046875,0.0546875 0.03125,0.03125 0.0703125,0.046875 0.1171875,0.046875 0.0416667,0 0.0755208,-0.0130208 0.1015625,-0.0390625 C 0.36979167,0.4700521 0.3828125,0.43489585 0.3828125,0.390625 V 0 h -0.078125 z" />
  </g>
  <g
     id="use436"
     style="fill:#191924"
     transform="matrix(11.547204,0,0,-11.5447,352.87925,302.58354)">
    <path
       inkscape:connector-curvature="0"
       id="path8748"
       d="m 0.08203125,0.375 c -0.03125,0.0286458 -0.046875,0.0677083 -0.046875,0.1171875 0,0.0572917 0.015625,0.1015625 0.046875,0.1328125 0.02864584,0.0286458 0.06510417,0.0429688 0.109375,0.0429688 0.0442708,0 0.0794271,-0.0130208 0.10546875,-0.0390625 0.0390625,0.03125 0.0820313,0.0442708 0.12890626,0.0390625 V 0.59375 c -0.0364584,0.0104167 -0.0716146,0.0104167 -0.10546876,0 0.0182292,-0.0208333 0.0273438,-0.0546875 0.0273438,-0.1015625 0,-0.0494792 -0.015625,-0.0898437 -0.046875,-0.12109374 C 0.2721354,0.3424479 0.23567708,0.328125 0.19140625,0.328125 c -0.0234375,0 -0.0455729,0.005208 -0.0664063,0.015625 C 0.10156245,0.3307292 0.0898437,0.3164063 0.0898437,0.3007813 c 0,-0.0104167 0.0052083,-0.0208334 0.015625,-0.03125 C 0.11848959,0.2565104 0.15494792,0.25 0.21484375,0.25 0.2955729,0.25 0.34895835,0.23697917 0.375,0.2109375 0.3984375,0.1875 0.41015626,0.16145833 0.41015626,0.1328125 0.41015626,0.09895834 0.3984375,0.0703125 0.375,0.046875 0.34375,0.015625 0.2877604,0 0.20703125,0 0.12109375,0 0.0625,0.015625 0.03125,0.046875 0.01041667,0.06770834 0,0.08984375 0,0.11328125 c 0,0.0338542 0.0234375,0.0651042 0.0703125,0.09375 -0.03385417,0.0182292 -0.05078125,0.0442708 -0.05078125,0.078125 0,0.0338541 0.02083333,0.0638021 0.0625,0.0898437 M 0.125,0.1875 C 0.08854167,0.16666667 0.0703125,0.14453125 0.0703125,0.12109375 c 0,-0.0104167 0.0065104,-0.02213541 0.01953125,-0.03515625 0.02083334,-0.02083333 0.06119792,-0.03125 0.12109375,-0.03125 0.0520833,0 0.0872396,0.0091146 0.10546876,0.02734375 C 0.3294271,0.09505209 0.3359375,0.109375 0.3359375,0.125 c 0,0.0130208 -0.005208,0.0247396 -0.015625,0.0351563 -0.0130208,0.0130208 -0.0429687,0.0195313 -0.0898438,0.0195313 -0.0234375,0 -0.0585938,0.002604 -0.10546875,0.007813 m 0.0664063,0.4140625 c -0.0208333,0 -0.0390625,-0.007813 -0.0546875,-0.0234375 -0.015625,-0.015625 -0.0234375,-0.0442708 -0.0234375,-0.0859375 0,-0.0338542 0.007813,-0.0585937 0.0234375,-0.0742187 0.015625,-0.015625 0.0338542,-0.0234375 0.0546875,-0.0234375 0.0208333,0 0.0390625,0.007813 0.0546875,0.0234375 0.015625,0.015625 0.0234375,0.0403646 0.0234375,0.0742187 0,0.0416667 -0.007813,0.0703125 -0.0234375,0.0859375 -0.015625,0.015625 -0.0338542,0.0234375 -0.0546875,0.0234375 z" />
  </g>
  <g
     id="use438"
     style="fill:#191924"
     transform="matrix(11.547204,0,0,-11.5447,358.15685,301.14044)">
    <path
       inkscape:connector-curvature="0"
       id="path8752"
       d="M 0,0 Z" />
  </g>
  <g
     id="use440"
     style="fill:#191924"
     transform="matrix(11.547204,0,0,-11.5447,366.59175,302.17764)">
    <path
       inkscape:connector-curvature="0"
       id="path8756"
       d="M 0.1953125,0 C 0.06510417,0.12760417 0,0.27734376 0,0.44921876 0,0.62109377 0.06510417,0.7708333 0.1953125,0.8984375 L 0.2382812,0.8554688 C 0.11848959,0.74348959 0.05859375,0.60807296 0.05859375,0.44921876 c 0,-0.15885416 0.05989584,-0.29427084 0.1796875,-0.40625001 z" />
  </g>
  <g
     id="use442"
     style="fill:#191924"
     transform="matrix(11.547204,0,0,-11.5447,370.24525,301.05024)">
    <path
       inkscape:connector-curvature="0"
       id="path8760"
       d="M 0,0 V 0.76171877 H 0.08984375 V 0.45703126 H 0.3125 V 0.76171877 H 0.4023438 V 0 H 0.3125 V 0.19140625 0.3828125 H 0.08984375 V 0 Z" />
  </g>
  <g
     id="use444"
     style="fill:#191924"
     transform="matrix(11.547204,0,0,-11.5447,376.10905,301.05024)">
    <path
       inkscape:connector-curvature="0"
       id="path8764"
       d="M 0.30078126,0.078125 C 0.2591146,0.02604167 0.20572917,0 0.140625,0 0.09635417,0 0.0625,0.01171875 0.0390625,0.03515625 0.01302083,0.06119792 0,0.09375 0,0.1328125 V 0.53515627 H 0.078125 V 0.15234375 c 0,-0.03125 0.0065104,-0.05338541 0.01953125,-0.06640625 C 0.11067709,0.07291667 0.1328125,0.06640625 0.1640625,0.06640625 c 0.0364583,0 0.0677083,0.01302084 0.09375,0.0390625 0.0286458,0.0286458 0.0429688,0.0651042 0.0429688,0.109375 v 0.32031252 h 0.078125 V 0 h -0.078125 z" />
  </g>
  <g
     id="use446"
     style="fill:#191924"
     transform="matrix(11.547204,0,0,-11.5447,381.83765,301.05024)">
    <path
       inkscape:connector-curvature="0"
       id="path8768"
       d="m 0.078125,0.44921876 c 0.04166667,0.0572917 0.08984375,0.0859375 0.14453125,0.0859375 0.0416667,0 0.078125,-0.015625 0.10937501,-0.046875 0.0416666,-0.0416667 0.0625,-0.11197916 0.0625,-0.2109375 0,-0.10416668 -0.0208334,-0.17708334 -0.0625,-0.21875001 C 0.29296876,0.01953125 0.25260417,0 0.2109375,0 0.16145833,0 0.1171875,0.02213542 0.078125,0.06640625 V 0 H 0 V 0.76171877 H 0.078125 V 0.44921876 m 0,-0.1953125 c 0,-0.0755208 0.01302084,-0.12630209 0.0390625,-0.15234376 C 0.140625,0.078125 0.1653646,0.06640625 0.1914063,0.06640625 c 0.03125,0 0.0559896,0.0091146 0.0742188,0.02734375 0.0338542,0.03385417 0.0507813,0.09244792 0.0507813,0.17578126 0,0.0807291 -0.015625,0.13671874 -0.046875,0.16796874 C 0.2513022,0.4557292 0.2278647,0.4648438 0.1992189,0.4648438 0.1705731,0.4648438 0.1432293,0.4518229 0.1171876,0.4257813 0.09114584,0.3997396 0.078125,0.3424479 0.078125,0.25390626 Z" />
  </g>
  <g
     id="use448"
     style="fill:#191924"
     transform="matrix(11.547204,0,0,-11.5447,387.34055,302.17764)">
    <path
       inkscape:connector-curvature="0"
       id="path8772"
       d="M 0.23828125,0.44921876 C 0.23828125,0.27734376 0.17317708,0.12760417 0.04296875,0 L 0,0.04296875 C 0.11979167,0.15494792 0.1796875,0.2903646 0.1796875,0.44921876 0.1796875,0.60807296 0.11979167,0.74348959 0,0.85546877 L 0.04296875,0.8984375 C 0.17317708,0.7708333 0.23828125,0.62109377 0.23828125,0.44921876 Z" />
  </g>
  <g
     id="use450"
     style="fill:#191924"
     transform="matrix(11.547204,0,0,-11.5447,548.09175,24.162142)">
    <path
       inkscape:connector-curvature="0"
       id="path8776"
       d="M 0.296875,0.29296876 C 0.265625,0.2747396 0.22916667,0.2591146 0.1875,0.24609375 0.15625,0.23567708 0.13151042,0.22135417 0.11328125,0.203125 0.10026042,0.19010417 0.09375,0.171875 0.09375,0.1484375 c 0,-0.0260417 0.0065104,-0.0455729 0.01953125,-0.05859375 0.0130208,-0.01302083 0.0338542,-0.01953125 0.0625,-0.01953125 0.046875,0 0.0872396,0.02734375 0.12109375,0.08203125 v 0.14062501 m 0,-0.23437501 C 0.2578125,0.01953125 0.20963542,0 0.15234375,0 0.10546875,0 0.06770834,0.01432292 0.0390625,0.04296875 0.01302083,0.06901042 0,0.1015625 0,0.140625 0,0.18229167 0.01432292,0.21744792 0.04296875,0.24609375 0.06901042,0.2721354 0.09895834,0.2903646 0.1328125,0.30078126 0.22135417,0.3294271 0.26953126,0.34895835 0.27734376,0.359375 0.2903646,0.375 0.296875,0.390625 0.296875,0.40625 c 0,0.015625 -0.007813,0.0299479 -0.0234375,0.0429688 -0.0130208,0.0104166 -0.0364583,0.015625 -0.0703125,0.015625 -0.0260417,0 -0.046875,-0.007813 -0.0625,-0.0234375 C 0.11979167,0.4205729 0.10807292,0.39322917 0.10546875,0.359375 h -0.0859375 c 0.0026042,0.0520833 0.02083333,0.0950521 0.0546875,0.12890626 0.03125,0.03125 0.07421875,0.046875 0.12890625,0.046875 0.0625,0 0.10677085,-0.0130208 0.1328125,-0.0390625 C 0.36197917,0.4700521 0.375,0.4375 0.375,0.3984375 V 0.08984375 C 0.375,0.05859375 0.38541667,0.02864583 0.40625,0 H 0.3125 C 0.30208335,0.01041667 0.296875,0.02994792 0.296875,0.05859375 Z" />
  </g>
  <g
     id="use452"
     style="fill:#191924"
     transform="matrix(11.547204,0,0,-11.5447,499.64905,18.793842)">
    <path
       inkscape:connector-curvature="0"
       id="path8780"
       d="m 0.078125,0.44921876 c 0.04166667,0.0572917 0.08984375,0.0859375 0.14453125,0.0859375 0.0416667,0 0.078125,-0.015625 0.10937501,-0.046875 0.0416666,-0.0416667 0.0625,-0.11197916 0.0625,-0.2109375 0,-0.10416668 -0.0208334,-0.17708334 -0.0625,-0.21875001 C 0.29296876,0.01953125 0.25260417,0 0.2109375,0 0.16145833,0 0.1171875,0.02213542 0.078125,0.06640625 V 0 H 0 V 0.76171877 H 0.078125 V 0.44921876 m 0,-0.1953125 c 0,-0.0755208 0.01302084,-0.12630209 0.0390625,-0.15234376 C 0.140625,0.078125 0.1653646,0.06640625 0.1914063,0.06640625 c 0.03125,0 0.0559896,0.0091146 0.0742188,0.02734375 0.0338542,0.03385417 0.0507813,0.09244792 0.0507813,0.17578126 0,0.0807291 -0.015625,0.13671874 -0.046875,0.16796874 C 0.2513022,0.4557292 0.2278647,0.4648438 0.1992189,0.4648438 0.1705731,0.4648438 0.1432293,0.4518229 0.1171876,0.4257813 0.09114584,0.3997396 0.078125,0.3424479 0.078125,0.25390626 Z" />
  </g>
  <g
     id="use454"
     style="fill:#191924"
     transform="matrix(11.547204,0,0,-11.5447,562.90465,116.54284)">
    <path
       inkscape:connector-curvature="0"
       id="path8784"
       d="m 0.30859376,0.3515625 c -0.005208,0.0416667 -0.0169271,0.0716146 -0.0351563,0.0898438 -0.015625,0.015625 -0.0351563,0.0234375 -0.0585938,0.0234375 -0.0286458,0 -0.0546875,-0.0117188 -0.078125,-0.0351563 -0.03125,-0.03125 -0.046875,-0.0898437 -0.046875,-0.17578124 0,-0.0703125 0.01432292,-0.11979168 0.04296875,-0.14843751 0.0234375,-0.0234375 0.0494792,-0.03515625 0.078125,-0.03515625 0.0260417,0 0.0494792,0.01041667 0.0703125,0.03125 0.0260417,0.0260417 0.0377604,0.0677083 0.0351563,0.125 H 0.40625 C 0.40885417,0.15364583 0.3893229,0.09635417 0.34765626,0.0546875 0.3111979,0.01822917 0.265625,0 0.2109375,0 0.15625,0 0.10807292,0.02083333 0.06640625,0.0625 0.02213542,0.10677084 0,0.17057292 0,0.25390626 c 0,0.0963541 0.02473958,0.16927084 0.07421875,0.21875 0.04166667,0.0416667 0.08854167,0.0625 0.140625,0.0625 0.0520833,0 0.09375,-0.015625 0.12500001,-0.046875 0.0338541,-0.0338542 0.0520833,-0.0794271 0.0546875,-0.13671876 z" />
  </g>
  <g
     id="use456"
     style="fill:#191924"
     transform="matrix(11.547204,0,0,-11.5447,569.17445,117.76044)">
    <path
       inkscape:connector-curvature="0"
       id="path8788"
       d="M 0.0390625,0 H 0 L 0.0390625,0.10546875 H 0 v 0.0859375 h 0.08984375 v -0.0859375 z" />
  </g>
  <g
     id="use458"
     style="fill:#191924"
     transform="matrix(11.547204,0,0,-11.5447,574.40665,116.54284)">
    <path
       inkscape:connector-curvature="0"
       id="path8792"
       d="M 0.3203125,0.078125 C 0.27864585,0.02604167 0.23177083,0 0.1796875,0 0.140625,0 0.10286459,0.01822917 0.06640625,0.0546875 0.02213542,0.09895834 0,0.17317708 0,0.27734376 c 0,0.0859375 0.02473958,0.15364584 0.07421875,0.203125 0.03645834,0.0364583 0.07682292,0.0546875 0.12109375,0.0546875 0.046875,0 0.0885417,-0.0195313 0.125,-0.0585938 v 0.28515627 h 0.078125 V 0 H 0.3203125 V 0.078125 M 0.203125,0.46484376 c -0.0234375,0 -0.0455729,-0.0104167 -0.0664063,-0.03125 -0.0338541,-0.0338542 -0.0507812,-0.0885417 -0.0507812,-0.1640625 0,-0.0859375 0.01432292,-0.14322918 0.04296875,-0.17187501 0.0182292,-0.01822916 0.0416667,-0.02734375 0.0703125,-0.02734375 0.0234375,0 0.046875,0.01171875 0.0703125,0.03515625 0.0338541,0.0338542 0.0507812,0.0911458 0.0507812,0.17187501 0,0.0729166 -0.0169271,0.12630209 -0.0507812,0.16015624 -0.0182292,0.0182292 -0.0403646,0.0273438 -0.0664063,0.0273438 z" />
  </g>
  <g
     id="use460"
     style="fill:#191924"
     transform="matrix(11.547204,0,0,-11.5447,574.20475,94.711842)">
    <path
       inkscape:connector-curvature="0"
       id="path8796"
       d="M 0.3984375,0.18359375 C 0.390625,0.12630208 0.37109376,0.08203125 0.33984376,0.05078125 0.3059896,0.01692708 0.26302085,0 0.2109375,0 0.15364583,0 0.10807292,0.01692708 0.07421875,0.05078125 0.02473958,0.10026042 0,0.171875 0,0.265625 c 0,0.0963542 0.02213542,0.16666667 0.06640625,0.2109375 0.0390625,0.0390625 0.0859375,0.0585938 0.140625,0.0585938 0.0442708,0 0.0846354,-0.015625 0.12109375,-0.046875 C 0.375,0.44921876 0.3971354,0.375 0.39453126,0.265625 H 0.0859375 c 0,-0.0859375 0.015625,-0.140625 0.046875,-0.1640625 0.0182292,-0.01822916 0.0442708,-0.02734375 0.078125,-0.02734375 0.0286458,0 0.0520833,0.0091146 0.0703125,0.02734375 0.015625,0.015625 0.0247396,0.0429687 0.0273438,0.0820313 H 0.3984375 M 0.3046875,0.328125 C 0.3072915,0.3802083 0.2955725,0.4179688 0.2695313,0.44140626 0.24609375,0.4622396 0.22265625,0.47135417 0.19921875,0.46875 0.17317708,0.46614585 0.1484375,0.453125 0.125,0.4296875 0.10416667,0.40885417 0.09114584,0.375 0.0859375,0.328125 Z" />
  </g>
  <g
     id="use462"
     style="fill:#191924"
     transform="matrix(11.547204,0,0,-11.5447,580.38425,95.929442)">
    <path
       inkscape:connector-curvature="0"
       id="path8800"
       d="M 0.0390625,0 H 0 L 0.0390625,0.10546875 H 0 v 0.0859375 h 0.08984375 v -0.0859375 z" />
  </g>
  <g
     id="use464"
     style="fill:#191924"
     transform="matrix(11.547204,0,0,-11.5447,585.70685,94.711842)">
    <path
       inkscape:connector-curvature="0"
       id="path8804"
       d="m 0.2109375,0.53515627 h 0.16015626 v -0.0625 H 0.2109375 V 0 H 0.1328125 V 0.23828125 0.47265626 H 0 v 0.0625 h 0.1328125 v 0.0976562 c 0,0.0859375 0.0481771,0.12890627 0.14453126,0.12890627 0.0572916,0 0.0989583,-0.00651 0.125,-0.0195313 V 0.6640625 C 0.37890626,0.6770833 0.3359375,0.6848958 0.2734375,0.6875 0.2317708,0.690104 0.2109375,0.6731771 0.2109375,0.6367188 Z" />
  </g>
  <g
     id="use466"
     style="fill:#191924"
     transform="matrix(11.547204,0,0,-11.5447,473.81405,46.937642)">
    <path
       inkscape:connector-curvature="0"
       id="path8808"
       d="m 0.08203125,0.375 c -0.03125,0.0286458 -0.046875,0.0677083 -0.046875,0.1171875 0,0.0572917 0.015625,0.1015625 0.046875,0.1328125 0.02864584,0.0286458 0.06510417,0.0429688 0.109375,0.0429688 0.0442708,0 0.0794271,-0.0130208 0.10546875,-0.0390625 0.0390625,0.03125 0.0820313,0.0442708 0.12890626,0.0390625 V 0.59375 c -0.0364584,0.0104167 -0.0716146,0.0104167 -0.10546876,0 0.0182292,-0.0208333 0.0273438,-0.0546875 0.0273438,-0.1015625 0,-0.0494792 -0.015625,-0.0898437 -0.046875,-0.12109374 C 0.2721354,0.3424479 0.23567708,0.328125 0.19140625,0.328125 c -0.0234375,0 -0.0455729,0.005208 -0.0664063,0.015625 C 0.10156245,0.3307292 0.0898437,0.3164063 0.0898437,0.3007813 c 0,-0.0104167 0.0052083,-0.0208334 0.015625,-0.03125 C 0.11848959,0.2565104 0.15494792,0.25 0.21484375,0.25 0.2955729,0.25 0.34895835,0.23697917 0.375,0.2109375 0.3984375,0.1875 0.41015626,0.16145833 0.41015626,0.1328125 0.41015626,0.09895834 0.3984375,0.0703125 0.375,0.046875 0.34375,0.015625 0.2877604,0 0.20703125,0 0.12109375,0 0.0625,0.015625 0.03125,0.046875 0.01041667,0.06770834 0,0.08984375 0,0.11328125 c 0,0.0338542 0.0234375,0.0651042 0.0703125,0.09375 -0.03385417,0.0182292 -0.05078125,0.0442708 -0.05078125,0.078125 0,0.0338541 0.02083333,0.0638021 0.0625,0.0898437 M 0.125,0.1875 C 0.08854167,0.16666667 0.0703125,0.14453125 0.0703125,0.12109375 c 0,-0.0104167 0.0065104,-0.02213541 0.01953125,-0.03515625 0.02083334,-0.02083333 0.06119792,-0.03125 0.12109375,-0.03125 0.0520833,0 0.0872396,0.0091146 0.10546876,0.02734375 C 0.3294271,0.09505209 0.3359375,0.109375 0.3359375,0.125 c 0,0.0130208 -0.005208,0.0247396 -0.015625,0.0351563 -0.0130208,0.0130208 -0.0429687,0.0195313 -0.0898438,0.0195313 -0.0234375,0 -0.0585938,0.002604 -0.10546875,0.007813 m 0.0664063,0.4140625 c -0.0208333,0 -0.0390625,-0.007813 -0.0546875,-0.0234375 -0.015625,-0.015625 -0.0234375,-0.0442708 -0.0234375,-0.0859375 0,-0.0338542 0.007813,-0.0585937 0.0234375,-0.0742187 0.015625,-0.015625 0.0338542,-0.0234375 0.0546875,-0.0234375 0.0208333,0 0.0390625,0.007813 0.0546875,0.0234375 0.015625,0.015625 0.0234375,0.0403646 0.0234375,0.0742187 0,0.0416667 -0.007813,0.0703125 -0.0234375,0.0859375 -0.015625,0.015625 -0.0338542,0.0234375 -0.0546875,0.0234375 z" />
  </g>
  <path
     stroke-miterlimit="10"
     d="m 10.50005,171.01647 v 0.7 l 0.1,0.7 0.2,0.7 0.2,0.7 0.2,0.7 0.3,0.6 0.4,0.6 0.4,0.6 0.5,0.5 0.5,0.6 0.5,0.4 0.6,0.4 0.6,0.4 0.7,0.3 0.6,0.3 0.7,0.2 0.7,0.1 0.7,0.1 h 0.7 0.7 l 0.8,-0.1 0.7,-0.1 0.6,-0.2 0.7,-0.3 0.6,-0.3 0.7,-0.4 0.5,-0.4 0.6,-0.4 0.5,-0.6 0.4,-0.5 0.5,-0.6 0.3,-0.6 0.3,-0.6 0.3,-0.7 0.2,-0.7 0.1,-0.7 0.1,-0.7 0.1,-0.7 m 0,-22.5 -0.1,-0.7 -0.1,-0.7 -0.1,-0.7 -0.2,-0.7 -0.3,-0.7 -0.3,-0.6 -0.3,-0.6 -0.5,-0.6 -0.4,-0.6 -0.5,-0.5 -0.6,-0.4 -0.5,-0.4 -0.7,-0.4 -0.6,-0.3 -0.7,-0.3 -0.6,-0.2 -0.7,-0.1 -0.8,-0.1 h -0.7 -0.7 l -0.7,0.1 -0.7,0.1 -0.7,0.2 -0.6,0.3 -0.7,0.3 -0.6,0.4 -0.6,0.4 -0.5,0.4 -0.5,0.5 -0.5,0.6 -0.4,0.6 -0.4,0.6 -0.3,0.6 -0.2,0.7 -0.2,0.7 -0.2,0.7 -0.1,0.7 v 0.7 m 384.6,8.3 v 0.7 l 0.1,0.7 0.1,0.7 0.2,0.7 0.3,0.7 0.3,0.6 0.4,0.7 0.4,0.5 0.4,0.6 0.5,0.5 0.6,0.4 0.6,0.5 0.6,0.3 0.6,0.3 0.7,0.3 0.7,0.2 0.7,0.1 0.7,0.1 0.7,0.1 0.7,-0.1 0.7,-0.1 0.7,-0.1 0.7,-0.2 0.7,-0.3 0.6,-0.3 0.6,-0.3 0.6,-0.5 0.5,-0.4 0.5,-0.5 0.5,-0.6 0.4,-0.5 0.4,-0.7 0.3,-0.6 0.3,-0.7 0.2,-0.7 0.1,-0.7 0.1,-0.7 v -0.7 m 0,-22.5 v -0.7 l -0.1,-0.7 -0.1,-0.7 -0.2,-0.7 -0.3,-0.7 -0.3,-0.6 -0.4,-0.6 -0.4,-0.6 -0.5,-0.5 -0.5,-0.5 -0.5,-0.5 -0.6,-0.4 -0.6,-0.4 -0.6,-0.3 -0.7,-0.3 -0.7,-0.2 -0.7,-0.1 -0.7,-0.1 h -0.7 -0.7 l -0.7,0.1 -0.7,0.1 -0.7,0.2 -0.7,0.3 -0.6,0.3 -0.6,0.4 -0.6,0.4 -0.6,0.5 -0.5,0.5 -0.4,0.5 -0.4,0.6 -0.4,0.6 -0.3,0.6 -0.3,0.7 -0.2,0.7 -0.1,0.7 -0.1,0.7 v 0.7"
     id="path468"
     inkscape:connector-curvature="0"
     style="fill:none;stroke:#191924;stroke-width:1;stroke-linecap:butt;stroke-linejoin:miter;stroke-miterlimit:10" />
  <path
     stroke-miterlimit="10"
     d="m 250.50005,139.01647 -0.7,0.1 h -0.7 l -0.7,0.2 -0.7,0.2 -0.7,0.2 -0.6,0.4 -0.6,0.3 -0.6,0.4 -0.6,0.5 -0.5,0.5 -0.4,0.6 -0.4,0.5 -0.4,0.6 -0.3,0.7 -0.3,0.7 -0.2,0.6 -0.1,0.7 -0.1,0.7 v 0.8 0.7 l 0.1,0.7 0.1,0.7 0.2,0.7 0.3,0.6 0.3,0.7 0.4,0.6 0.4,0.6 0.4,0.5 0.5,0.5 0.6,0.5 0.6,0.4 0.6,0.3 0.6,0.4 0.7,0.2 0.7,0.2 0.7,0.2 0.7,0.1 h 0.7 m 22.5,0 h 0.7 l 0.7,-0.1 0.7,-0.2 0.7,-0.2 0.7,-0.2 0.6,-0.4 0.6,-0.3 0.6,-0.4 0.6,-0.5 0.5,-0.5 0.4,-0.5 0.4,-0.6 0.4,-0.6 0.3,-0.7 0.3,-0.6 0.2,-0.7 0.1,-0.7 0.1,-0.7 v -0.7 -0.8 l -0.1,-0.7 -0.1,-0.7 -0.2,-0.6 -0.3,-0.7 -0.3,-0.7 -0.4,-0.6 -0.4,-0.5 -0.4,-0.6 -0.5,-0.5 -0.6,-0.5 -0.6,-0.4 -0.6,-0.3 -0.6,-0.4 -0.7,-0.2 -0.7,-0.2 -0.7,-0.2 h -0.7 l -0.7,-0.1"
     id="path470"
     inkscape:connector-curvature="0"
     style="fill:none;stroke:#191924;stroke-width:1;stroke-linecap:butt;stroke-linejoin:miter;stroke-miterlimit:10" />
  <path
     d="m 215.52085,47.730307 v -8.504"
     id="path472"
     inkscape:connector-curvature="0"
     style="fill:none;stroke:#191924;stroke-width:1;stroke-linecap:round;stroke-linejoin:round;stroke-dasharray:86.4, 3.6, 3.6, 3.6" />
  <path
     d="m 201.34755,61.903527 h -140.54"
     id="path474"
     inkscape:connector-curvature="0"
     style="fill:none;stroke:#191924;stroke-width:1;stroke-linecap:round;stroke-linejoin:round;stroke-dasharray:86.4, 3.6, 3.6, 3.6;stroke-dashoffset:21.53000069" />
  <path
     d="m 215.52085,76.076807 v 8.504"
     id="path476"
     inkscape:connector-curvature="0"
     style="fill:none;stroke:#191924;stroke-width:1;stroke-linecap:round;stroke-linejoin:round;stroke-dasharray:86.4, 3.6, 3.6, 3.6" />
  <path
     d="m 229.69405,61.903527 h 140.204"
     id="path478"
     inkscape:connector-curvature="0"
     style="fill:none;stroke:#191924;stroke-width:1;stroke-linecap:round;stroke-linejoin:round;stroke-dasharray:86.4, 3.6, 3.6, 3.6;stroke-dashoffset:21.69799995" />
  <path
     d="M 529.70265,33.557077 V 13.714076"
     id="path480"
     inkscape:connector-curvature="0"
     style="fill:none;stroke:#191924;stroke-width:1;stroke-linecap:round;stroke-linejoin:round;stroke-dasharray:86.4, 3.6, 3.6, 3.6;stroke-dashoffset:81.8789978" />
  <path
     d="m 501.35625,61.903527 h -19.843"
     id="path482"
     inkscape:connector-curvature="0"
     style="fill:none;stroke:#191924;stroke-width:1;stroke-linecap:round;stroke-linejoin:round;stroke-dasharray:86.4, 3.6, 3.6, 3.6;stroke-dashoffset:81.8789978" />
  <path
     d="M 529.70265,90.250027 V 110.09202"
     id="path484"
     inkscape:connector-curvature="0"
     style="fill:none;stroke:#191924;stroke-width:1;stroke-linecap:round;stroke-linejoin:round;stroke-dasharray:86.4, 3.6, 3.6, 3.6;stroke-dashoffset:81.8789978" />
  <path
     d="m 558.04915,61.903527 h 19.843"
     id="path486"
     inkscape:connector-curvature="0"
     style="fill:none;stroke:#191924;stroke-width:1;stroke-linecap:round;stroke-linejoin:round;stroke-dasharray:86.4, 3.6, 3.6, 3.6;stroke-dashoffset:81.8789978" />
  <path
     d="m 215.50005,61.916527 v -14.1 m 0,14.1 h -14.2 m 14.2,0 v 14.2 m 0,-14.2 h 14.1"
     id="path488"
     inkscape:connector-curvature="0"
     style="fill:none;stroke:#191924;stroke-width:1;stroke-linecap:round;stroke-linejoin:round" />
  <path
     d="m 529.70005,61.916527 v -14.1 m 0,14.1 h -14.2 m 14.2,0 v 14.2 m 0,-14.2 h 14.1"
     id="path490"
     inkscape:connector-curvature="0"
     style="fill:none;stroke:#191924;stroke-width:1;stroke-linecap:round;stroke-linejoin:round" />
  <path
     d="m 67.39895,222.0721 h 297.184"
     id="path492"
     inkscape:connector-curvature="0"
     style="fill:none;stroke:#191924;stroke-width:1;stroke-linecap:round;stroke-linejoin:round;stroke-dasharray:86.4, 3.6, 3.6, 3.6;stroke-dashoffset:-8.19200039" />
  <path
     d="m 215.52085,260.62331 v -77.102"
     id="path494"
     inkscape:connector-curvature="0"
     style="fill:none;stroke:#191924;stroke-width:1;stroke-linecap:round;stroke-linejoin:round;stroke-dasharray:86.4, 3.6, 3.6, 3.6;stroke-dashoffset:53.24900055" />
  <path
     d="m 56.20005,302.81647 h 46.4 m 0,0 16.8,-58 m 0,0 1.5,10.2 m -8.2,-2.4 6.7,-7.8 m 56.6,58 h 23.2 m 0,0 11.5,-46.7 m 0,0 1.9,10.1 m -8.3,-2 6.4,-8.1 m 180.5,46.7 h -74.9 m 0,0 -16.7,-46.7 m 0,0 7.1,7.4 m -8,2.9 0.9,-10.3 m 252.1,-230.199993 h -5.6 m 0,0 -11,21.4 m -34.8,-26.7 h 5.9 m 0,0 11.1,16 m 60.8,81.799993 h -17.2 m 0,0 -26.2,-47.999993 m 0,0 8.2,6.2 m -7.4,4.1 -0.8,-10.3 m 54.6,26.1 h -17.1 m 0,0 -15.6,-26.1 m 0,0 8.4,5.9 m -7.3,4.4 -1.1,-10.3 m -81.9,-23.1 h 5.9 m 0,0 28,14.4 m 0,0 -10.2,-0.5 m 3.9,-7.5 6.3,8"
     id="path496"
     inkscape:connector-curvature="0"
     style="fill:none;stroke:#191924;stroke-width:1;stroke-linecap:round;stroke-linejoin:round" />
  <path
     d="m 508.68035,53.399617 v 17.008"
     id="path498"
     inkscape:connector-curvature="0"
     style="fill:none;stroke:#0000ff;stroke-width:1;stroke-linecap:round;stroke-linejoin:round;stroke-dasharray:86.4, 3.6, 3.6, 3.6;stroke-dashoffset:83.29599762" />
  <path
     d="m 550.72505,53.399617 v 17.008"
     id="path500"
     inkscape:connector-curvature="0"
     style="fill:none;stroke:#0000ff;stroke-width:1;stroke-linecap:round;stroke-linejoin:round;stroke-dasharray:86.4, 3.6, 3.6, 3.6;stroke-dashoffset:83.29599762" />
  <path
     d="m 10.50005,171.01647 v -22.5 m 17.3,0 v 22.5 m 44.8,28.4 h -44.2 m 44.2,45.4 h -44.2 m 2.8,-45.4 v -50.9 m 0,50.9 v 45.4 m 0,-45.4 4.3,9.4 m -8.5,0 4.2,-9.4 m 0,45.4 -4.2,-9.4 m 8.5,0 -4.3,9.4 m 363.9,-88 v -22.5 m 17.2,0 v 22.5 m -54,31.3 h 60.3 m -60.3,68 h 60.3 m -2.8,-68 v -53.8 m 0,53.8 v 68 m 0,-68 4.2,9.3 m -8.5,0 4.3,-9.3 m 0,68 -4.3,-9.3 m 8.5,0 -4.2,9.3"
     id="path502"
     inkscape:connector-curvature="0"
     style="fill:none;stroke:#191924;stroke-width:1;stroke-linecap:round;stroke-linejoin:round" />
  <path
     d="m 250.50005,139.01647 h 22.5 m 0,17.3 h -22.5 m -43.5,29 v -28.4 m 17,28.4 v -28.4 m -17,2.8 h -18 m 18,0 h 17 m 0,0 h 49 m -66,0 -9.4,4.3 m 0,-8.5 9.4,4.2 m 17,0 9.3,-4.2 m 0,8.5 -9.3,-4.3"
     id="path504"
     inkscape:connector-curvature="0"
     style="fill:none;stroke:#191924;stroke-width:1;stroke-linecap:round;stroke-linejoin:round" />
  <path
     d="m 533.80005,49.816477 0.4,0.2 0.4,0.1 h 0.4 0.4 l 0.4,-0.1 0.4,-0.1 0.3,-0.2 0.4,-0.2 0.3,-0.3 0.2,-0.3 0.2,-0.3 0.2,-0.4 0.1,-0.4 v -0.4 -0.4 -0.4 l -0.2,-0.4 -0.1,-0.3 -0.3,-0.4 -0.2,-0.3 -0.4,-0.2 -0.3,-0.2 -0.4,-0.2 -0.4,-0.1 h -0.4 -0.4 -0.4 l -0.3,0.2 -0.4,0.1 -0.3,0.3 -0.3,0.2 -0.3,0.4 -0.2,0.3 -0.2,0.4 -0.1,0.4 v 0.4 0.4 l 0.1,0.4 0.1,0.3 0.2,0.4 0.2,0.3 0.3,0.3 0.3,0.3 0.3,0.2 1.3,-2.5 m -16.1,-8.4 0.3,-0.3 0.2,-0.3 0.3,-0.3 0.2,-0.4 0.1,-0.4 0.1,-0.4 v -0.4 l -0.1,-0.4 -0.1,-0.3 -0.1,-0.4 -0.2,-0.4 -0.3,-0.3 -0.3,-0.3 -0.3,-0.2 -0.4,-0.2 -0.4,-0.1 -0.4,-0.1 h -0.4 l -0.4,0.1 -0.4,0.1 -0.3,0.1 -0.4,0.2 -0.3,0.3 -0.3,0.3 -0.2,0.3 -0.2,0.4 -0.1,0.4 -0.1,0.4 v 0.4 0.4 l 0.2,0.4 0.1,0.3 0.2,0.4 0.3,0.3 0.3,0.3 0.3,0.2 0.4,0.2 0.3,0.1 0.4,0.1 h 0.4 l 0.4,-0.1 0.4,-0.1 0.4,-0.1 0.4,-0.2 -1.7,-2.3"
     id="path506"
     inkscape:connector-curvature="0"
     style="fill:#191924" />
  <path
     d="m 75.40005,84.616477 h 94.7 m 0,-45.3 h -94.7 m 0,0 -1.7,1.7 m 0,41.9 1.7,1.7 m 280.1,11.4 1.7,-1.7 m 0,-64.7 -1.7,-1.7 m 0,0 h -183.7 m 0,68.1 h 183.7 m -183.7,-68.1 -1.7,1.7 m 0,64.7 1.7,1.7 m 43.7,-42.6 1.3,0.1 1.3,0.3 1.2,0.6 1.2,0.7 1,0.8 0.9,1 0.6,1.2 0.6,1.2 0.3,1.3 0.1,1.3 -0.1,1.4 -0.3,1.3 -0.6,1.2 -0.6,1.1 -0.9,1.1 -1,0.8 -1.2,0.7 -1.2,0.5 -1.3,0.3 -1.3,0.1 -1.4,-0.1 -1.3,-0.3 -1.2,-0.5 -1.1,-0.7 -1,-0.8 -0.9,-1.1 -0.7,-1.1 -0.5,-1.2 -0.3,-1.3 -0.1,-1.4 0.1,-1.3 0.3,-1.3 0.5,-1.2 0.7,-1.2 0.9,-1 1,-0.8 1.1,-0.7 1.2,-0.6 1.3,-0.3 1.4,-0.1 m 0,1.2 -1.3,0.1 -1.2,0.3 -1.1,0.5 -1.1,0.7 -0.9,0.9 -0.7,1 -0.6,1.1 -0.3,1.2 -0.2,1.2 0.1,1.3 0.2,1.2 0.5,1.2 0.6,1 0.9,1 0.9,0.7 1.1,0.7 1.2,0.4 1.2,0.2 h 1.3 l 1.2,-0.2 1.2,-0.4 1.1,-0.7 1,-0.7 0.8,-1 0.7,-1 0.4,-1.2 0.3,-1.2 v -1.3 l -0.1,-1.2 -0.4,-1.2 -0.6,-1.1 -0.7,-1 -0.9,-0.9 -1,-0.7 -1.2,-0.5 -1.2,-0.3 -1.2,-0.1 m -140.1,7.3 v 2.2 2.1 2.1 2.1 1.9 1.9 1.8 1.6 1.5 1.3 1.2 1 0.8 0.6 0.4 0.2 m 0,-45.3 v 0 0.2 0.4 0.6 0.8 1 1.2 1.3 1.5 1.6 1.8 1.8 2 2 2.1 2.2 2.1 m -1.7,0 v -2.1 -2 -2 -2 -1.9 -1.8 -1.6 -1.6 -1.4 -1.2 -1 -0.9 -0.7 -0.4 -0.3 m 0,41.9 v 0 -0.3 -0.5 -0.6 -0.9 -1 -1.3 -1.3 -1.6 -1.6 -1.8 -1.9 -2 -2 -2.1 -2.1 m 283.5,0 v 2.6 2.6 2.5 2.4 2.5 2.3 2.2 2.1 2 1.9 1.7 1.6 1.4 1.2 1.1 0.8 0.7 0.4 0.3 0.1 m 0,-64.7 v 0.1 0.2 0.5 0.6 0.9 1 1.3 1.4 1.5 1.8 1.8 2 2.2 2.2 2.3 2.4 2.5 2.5 2.6 2.5 m -1.7,0 v -2.6 -2.6 -2.6 -2.5 -2.5 -2.4 -2.3 -2.2 -2.1 -2 -1.8 -1.6 -1.5 -1.4 -1.1 -0.9 -0.8 -0.6 -0.3 -0.2 m 0,68.1 v -0.1 -0.1 -0.4 -0.5 -0.8 -0.9 -1.2 -1.3 -1.5 -1.6 -1.8 -2 -2.1 -2.2 -2.3 -2.4 -2.5 -2.5 -2.6 -2.6 -2.7 m -148.5,0 0.1,1.4 0.3,1.4 0.6,1.3 0.8,1.2 0.9,1 1.1,0.9 1.3,0.7 1.4,0.4 1.4,0.2 h 1.4 l 1.4,-0.3 1.3,-0.4 1.2,-0.7 1.1,-0.9 1,-1 0.7,-1.3 0.6,-1.3 0.3,-1.4 0.1,-1.4 -0.2,-1.4 -0.4,-1.4 -0.6,-1.2 -0.8,-1.2 -0.9,-1 -1.2,-0.8 -1.3,-0.7 -1.4,-0.4 -1.4,-0.2 -1.4,0.1 -1.4,0.3 -1.3,0.5 -1.2,0.7 -1,0.9 -1,1.1 -0.7,1.3 -0.5,1.3 -0.3,2.3 m -35.2,0 v 2.7 2.6 2.6 2.5 2.5 2.4 2.3 2.2 2.1 2 1.8 1.6 1.5 1.3 1.2 0.9 0.8 0.5 0.4 0.1 0.1 m 0,-68.1 v 0 0.2 0.3 0.6 0.8 0.9 1.1 1.4 1.5 1.6 1.8 2 2.1 2.2 2.3 2.4 2.5 2.5 2.6 2.6 2.6 m -1.7,0 v -2.5 -2.6 -2.5 -2.5 -2.4 -2.3 -2.2 -2.2 -2 -1.8 -1.8 -1.5 -1.4 -1.3 -1 -0.9 -0.6 -0.5 -0.2 -0.1 m 0,64.7 v -0.1 -0.3 -0.4 -0.7 -0.8 -1.1 -1.2 -1.4 -1.6 -1.7 -1.9 -2 -2.1 -2.2 -2.3 -2.5 -2.4 -2.5 -2.6 -2.6"
     id="path508"
     inkscape:connector-curvature="0"
     style="fill:none;stroke:#000000;stroke-width:1;stroke-linecap:round;stroke-linejoin:round" />
  <path
     d="m 208.10005,256.1165 -1.1,-1.1 m 17,0 -1.2,1.1 m 1.2,-1.1 v -65.8 m -1.2,66.9 h -14.7 m -1.1,-66.9 v 65.8 m 0,-65.8 1.1,-1.1 m 14.7,0 h -14.7 m 14.7,0 1.2,1.1 m -17,55.6 h -131.6 m 183.7,0 h -35.1 m 0,-45.4 h 35.1 m -183.7,0 h 131.6 m 0,45.4 v -45.4 m 17,0 v 45.4 m -148.6,0 -1.7,-1.7 m 0,0 v -42 m 0,0 1.7,-1.7 m 183.7,0 1.7,1.7 m 0,42 v -42 m 0,42 -1.7,1.7 m -52.1,0 h -35.2 m 0,-45.4 h 35.2 m 17,0 h 131.5 m 0,45.4 v -0.1 -0.3 -0.5 -0.7 -0.9 -1.1 -1.3 -1.4 -1.5 -1.7 -1.9 -1.9 -2 -2 -2.2 -2.1 -2.2 -2.1 -2.1 -2.1 -2 -1.9 -1.8 -1.7 -1.6 -1.4 -1.3 -1.1 -0.8 -0.8 -0.5 -0.3 -0.1 m 0,45.4 h -131.5 m -17,-45.4 v -11.3 m 17,0 h -0.2 l -0.4,0.1 -0.3,0.1 m -15.2,0 h -0.1 l -0.5,-0.1 -0.3,-0.1 m 17,0 v 11.3 m -17,56.7 h 0.1 l 0.4,-0.1 0.4,-0.1 m 15.2,0 v 0 l 0.5,0.1 0.4,0.1 m -17,0 v -11.3 m 17,0 v 11.3 m 0,-68 h 131.5 m -183.7,0 h 35.2 m 0,68 h -35.2 m 183.7,0 h -131.5 m 133.2,-9.6 v 7.9 m 0,0 -1.7,1.7 m 0,-11.3 1.7,1.7 m -1.7,-58.4 1.7,1.7 m 0,7.9 -1.7,1.7 m 1.7,-9.6 v 7.9 m -185.4,58.4 -1.7,-1.7 m 0,-7.9 v 7.9 m 0,-7.9 1.7,-1.7 m -1.7,-55 1.7,-1.7 m 0,11.3 -1.7,-1.7 m 0,48.8 v -0.1 -0.3 -0.5 -0.8 m 0,-45.4 v 0 -0.7 -0.6 -0.3 -0.1 m 187.1,0 v 0.1 0.3 0.6 0.7 0.9 1.1 1.3 1.4 1.6 1.7 1.9 1.9 2.1 2.1 2.2 2.3 2.2 2.3 2.2 2.2 2.1 2.1 1.9 1.9 1.7 1.6 1.5 1.2 1.1 0.9 0.8 0.5 0.3 0.1 m -187.1,-56.7 v 7.9"
     id="path510"
     inkscape:connector-curvature="0"
     style="fill:none;stroke:#000000;stroke-width:1;stroke-linecap:round;stroke-linejoin:round" />
  <path
     d="m 173.10005,188.1165 -3,3 m 15.7,-3 -11.3,11.3 m 24.1,-11.3 -11.4,11.3 m 19.8,-7 -7,7 m 31,45.4 -7,7 m 19.7,-7 -11.3,11.3 m 24,-11.3 -11.3,11.3 m 24.1,-11.3 -11.4,11.3 m 24.1,-11.3 -11.3,11.3 m 24,-11.3 -11.3,11.3 m 24,-11.3 -11.3,11.3 m 24.1,-11.3 -11.4,11.3 m 24.1,-11.3 -11.3,11.3 m 24,-11.3 -11.3,11.3 m 22.7,-9.9 -10,9.9 m -122.9,-68 v 0 m 12.8,0 -11.4,11.3 m 24.1,-11.3 -11.4,11.3 m 24.1,-11.3 -11.3,11.3 m 24,-11.3 -11.3,11.3 m 24.1,-11.3 -11.4,11.3 m 24.1,-11.3 -11.3,11.3 m 24,-11.3 -11.3,11.3 m 24.1,-11.3 -11.4,11.3 m 24.1,-11.3 -11.4,11.3 m 24.1,-11.3 -11.3,11.3 m 17.2,-4.5 -4.5,4.5 m -172.6,45.4 -9.8,9.8 m 22.5,-9.8 -11.3,11.3 m 24,-11.3 -11.3,11.3 m 12.8,0 h -0.1 m 17.1,-13.1 6.6,1.8 m -6.6,-11.1 36.4,9.8 m -36.4,-19.1 36.8,9.9 m -36.8,-19.2 36.8,9.8 m -36.8,-19.2 36.8,9.9 m -25.6,-16.2 25.6,6.9 m -187.1,33.7 17.8,4.8 m -17.8,-14.1 52.5,14.1 m -52.5,-23.4 87.3,23.4 m -87.3,-32.7 122.1,32.7 m -122.1,-42 133.3,35.7 m -110.9,-39.1 110.9,29.7 m -76.2,-29.7 76.2,20.4 m -41.4,-20.4 41.4,11.1 m -6.6,-11.1 6.6,1.8 m 17,17.9 -8.3,-31 m 8.3,65.7 -17,-63.4 m 8.3,65.7 -8.3,-31"
     id="path512"
     inkscape:connector-curvature="0"
     style="fill:none;stroke:#191924;stroke-width:1;stroke-linecap:round;stroke-linejoin:round" />
  <path
     d="m 496.80005,70.416527 h 65.7 m -65.7,0 -1.2,-1.1 m 0,0 v -14.7 m 0,0 1.2,-1.2 m 65.7,0 h -65.7 m 65.7,0 1.2,1.2 m 0,14.7 v -14.7 m 0,14.7 -1.2,1.1 m -53.9,-17 h 42.1 m 0,17 h -42.1 m 42.1,0 -0.7,1.6 -0.8,1.5 -0.9,1.4 -1,1.3 -1.1,1.3 -1.2,1.2 -1.3,1 -1.4,1 -1.4,0.9 -1.5,0.8 -1.5,0.7 -1.6,0.5 -1.6,0.5 -1.7,0.3 -1.7,0.2 h -1.6 -1.7 l -1.7,-0.2 -1.7,-0.3 -1.6,-0.5 -1.6,-0.5 -1.5,-0.7 -1.5,-0.8 -1.4,-0.9 -1.4,-1 -1.3,-1 -1.2,-1.2 -1.1,-1.3 -1,-1.3 -0.9,-1.4 -0.8,-1.5 -0.7,-1.6 m 0,-17 0.7,-1.5 0.8,-1.5 0.9,-1.4 1,-1.3 1.1,-1.3 1.2,-1.2 1.3,-1.1 1.4,-1 1.4,-0.9 1.5,-0.7 1.5,-0.7 1.6,-0.5 1.6,-0.5 1.7,-0.3 1.7,-0.2 h 1.7 1.6 l 1.7,0.2 1.7,0.3 1.6,0.5 1.6,0.5 1.5,0.7 1.5,0.7 1.4,0.9 1.4,1 1.3,1.1 1.2,1.2 1.1,1.3 1,1.3 0.9,1.4 0.8,1.5 0.7,1.5 m 0,0 h 11.9 m 0,17 v 0 m 0,-16.9 v 0 -0.1 m 0,17 h -11.9 m -54,-17 v 0.1 m 0,16.9 v 0 m 0,-17 h 11.9 m 0,17 h -11.9 m 65.9,0 -0.6,2 -0.7,1.9 -0.8,1.9 -0.9,1.8 -1,1.8 -1.1,1.7 -1.2,1.6 -1.3,1.6 -1.5,1.4 -1.4,1.4 -1.6,1.3 -1.7,1.2 -1.7,1.1 -1.8,1 -1.8,0.9 -1.9,0.8 -1.9,0.6 -2,0.6 -2,0.4 -2,0.3 -2,0.2 -2,0.1 -2.1,-0.1 -2,-0.2 -2,-0.3 -2,-0.4 -2,-0.6 -1.9,-0.6 -1.9,-0.8 -1.8,-0.9 -1.8,-1 -1.7,-1.1 -1.7,-1.2 -1.6,-1.3 -1.4,-1.4 -1.4,-1.4 -1.4,-1.6 -1.2,-1.6 -1.1,-1.7 -1,-1.8 -0.9,-1.8 -0.8,-1.9 -0.7,-1.9 -0.6,-2 m 54,0 -0.7,1.6 -0.8,1.5 -0.9,1.4 -1,1.3 -1.1,1.3 -1.2,1.2 -1.3,1 -1.4,1 -1.4,0.9 -1.5,0.8 -1.5,0.7 -1.6,0.5 -1.6,0.5 -1.7,0.3 -1.7,0.2 h -1.6 -1.7 l -1.7,-0.2 -1.7,-0.3 -1.6,-0.5 -1.6,-0.5 -1.5,-0.7 -1.5,-0.8 -1.4,-0.9 -1.4,-1 -1.3,-1 -1.2,-1.2 -1.1,-1.3 -1,-1.3 -0.9,-1.4 -0.8,-1.5 -0.7,-1.6 m -11.9,-17 0.6,-1.9 0.7,-1.9 0.8,-1.9 0.9,-1.8 1,-1.8 1.1,-1.7 1.2,-1.6 1.4,-1.6 1.4,-1.5 1.4,-1.4 1.6,-1.3 1.7,-1.2 1.7,-1.1 1.8,-0.9 1.8,-0.9 1.9,-0.8 1.9,-0.7 2,-0.5 2,-0.4 2,-0.3 2,-0.2 2.1,-0.1 2,0.1 2,0.2 2,0.3 2,0.4 2,0.5 1.9,0.7 1.9,0.8 1.8,0.9 1.8,0.9 1.7,1.1 1.7,1.2 1.6,1.3 1.4,1.4 1.5,1.5 1.3,1.6 1.2,1.6 1.1,1.7 1,1.8 0.9,1.8 0.8,1.9 0.7,1.9 0.6,1.9 m -54,0 0.7,-1.5 0.8,-1.5 0.9,-1.4 1,-1.3 1.1,-1.3 1.2,-1.2 1.3,-1.1 1.4,-1 1.4,-0.9 1.5,-0.7 1.5,-0.7 1.6,-0.5 1.6,-0.5 1.7,-0.3 1.7,-0.2 h 1.7 1.6 l 1.7,0.2 1.7,0.3 1.6,0.5 1.6,0.5 1.5,0.7 1.5,0.7 1.4,0.9 1.4,1 1.3,1.1 1.2,1.2 1.1,1.3 1,1.3 0.9,1.4 0.8,1.5 0.7,1.5"
     id="path514"
     inkscape:connector-curvature="0"
     style="fill:none;stroke:#000000;stroke-width:1;stroke-linecap:round;stroke-linejoin:round" />
  <path
     d="m 525.20005,28.216517 -7,7 m 19.1,-6.4 -10.6,10.7 m 19.8,-7.1 -4.3,4.3 m 11.5,1.2 -8,8 m 13.5,-0.8 -8.3,8.3 m -42.5,17 -8.3,8.4 m 13.5,-0.8 -8,8 m 15.7,-3 -8.5,8.5 m 19.8,-7.1 -10.6,10.7 m 37.3,-24.7 -0.6,0.7 m -47,4.7 26.6,7.1 m -11.7,-12.5 7.6,2.1 m -22.3,-24.6 20.8,5.5 m -11.7,-12.4 13.9,3.7 m 25,25.7 -4.6,-17 m -4.7,17 -4.6,-17 m -4.8,17 -4.5,-17 m -4.8,17 -4.5,-17 m -4.8,17 -4.5,-17 m -4.8,17 -4.6,-17 m -4.7,17 -3,-11.2 m 36.7,-13.8 9.9,2.7 m -31.5,-10.8 -16.1,16.1 m 42.4,33.9 -8.3,8.4 m 3.9,-22.2 9.4,2.5 m 9.2,-2.8 -12.1,12.1 m -44.5,-29.9 -0.6,-2"
     id="path516"
     inkscape:connector-curvature="0"
     style="fill:none;stroke:#191924;stroke-width:1;stroke-linecap:round;stroke-linejoin:round" />
  <path
     d="m 555.90005,227.31647 -0.8,-0.5 m -10.4,0 -0.8,0.5 m -109,78.2 v 1.4 m 14.8,25.7 1.2,0.7 m 11.4,1.1 68.1,-39.4 m -22.7,-39.2 -68.1,39.3 m 55.4,-33.6 v 1.4 m 22.9,39.6 1.2,0.7 m 112.8,-132.2 -129.8,74.9 m 34,59 129.9,-75 m 7,-15.6 v -1.4 m -22.9,-39.6 -1.2,-0.7 m -93,54.7 0.3,0.1 0.9,0.7 0.7,0.8 0.5,0.8 0.1,0.9 -0.1,0.9 -0.3,0.9 -0.7,0.8 -0.8,0.7 -0.7,0.4 m -11.1,-7.5 -0.9,0.6 -0.7,0.8 -0.4,0.8 -0.1,0.8 0.1,0.8 0.4,0.8 0.7,0.8 0.9,0.6 1.1,0.5 1.3,0.4 1.4,0.3 1.4,0.1 1.5,-0.1 1.4,-0.3 1.2,-0.4 1.1,-0.5 1,-0.6 0.6,-0.8 0.5,-0.8 0.1,-0.8 -0.1,-0.8 -0.5,-0.8 -0.6,-0.8 -1,-0.6 -1.1,-0.5 -1.2,-0.4 -1.4,-0.3 h -1.5 -1.4 l -1.4,0.3 -1.3,0.4 -1.1,0.5 m -95,71.5 -1.7,-0.8 -1.6,-0.7 -1.7,-0.4 -1.5,-0.1 -1.5,0.1 -1.4,0.4 -1.2,0.6 -1.1,0.8 -1,1.1 -0.8,1.2 -0.6,1.5 -0.4,1.7 -0.3,1.7 v 2 l 0.1,2 0.4,2.1 0.5,2.2 0.7,2.2 0.9,2.1 1,2.2 1.2,2.1 1.3,2 1.4,1.8 1.5,1.8 1.6,1.6 1.7,1.4 1.7,1.2 1.7,0.9 1.6,0.8 1.7,0.5 1.6,0.3 h 1.5 l 1.4,-0.3 1.3,-0.4 1.2,-0.8 1.1,-0.9 0.8,-1.2 0.7,-1.4 0.6,-1.5 0.3,-1.7 0.1,-1.9 v -2 l -0.2,-2.1 -0.5,-2.1 -0.6,-2.2 -0.8,-2.2 -0.9,-2.1 -1.1,-2.1 -1.3,-2.1 -1.4,-1.9 -1.4,-1.8 -1.6,-1.7 -1.6,-1.5 -1.7,-1.3 -1.7,-1.1 m 1.2,-2.1 1.8,1.2 1.7,1.3 1.7,1.5 1.7,1.8 1.5,1.8 1.5,2 1.3,2.1 1.2,2.2 1,2.3 0.9,2.3 0.7,2.2 0.6,2.3 0.3,2.2 0.1,2.1 v 2 l -0.2,1.9 -0.5,1.7 -0.6,1.6 -0.8,1.3 -1,1.2 -1.1,0.9 -1.3,0.7 -1.3,0.4 -1.6,0.2 h -1.5 l -1.7,-0.3 -1.7,-0.6 -1.8,-0.8 -0.9,-0.4 m -16,-27.8 v -0.5 l 0.1,-2 0.4,-1.8 0.5,-1.6 0.7,-1.5 0.9,-1.2 1,-1.1 1.2,-0.8 1.4,-0.5 1.4,-0.4 h 1.6 l 1.6,0.1 1.7,0.5 1.8,0.6 1.7,0.9 m 68.2,-48.6 2.1,1.4 2.2,1.6 2.1,1.7 2,2 2,2.1 1.9,2.3 1.8,2.4 1.7,2.5 1.6,2.6 1.4,2.7 1.2,2.8 1.1,2.8 1,2.8 0.7,2.7 0.6,2.8 0.4,2.6 0.2,2.6 v 2.5 l -0.2,2.4 -0.4,2.2 -0.6,2.1 -0.7,1.9 -1,1.7 -1.1,1.5 -1.2,1.3 -1.5,1 -1.5,0.9 -1.7,0.5 -1.8,0.4 -1.9,0.1 -2,-0.2 -2,-0.4 -2.1,-0.7 -2.2,-0.9 -2.1,-1.1 m -24.1,-41.7 v -1.2 l 0.2,-2.4 0.4,-2.2 0.6,-2.1 0.7,-1.9 1,-1.7 1.1,-1.5 1.3,-1.3 1.4,-1 1.5,-0.8 1.7,-0.6 1.8,-0.4 h 1.9 l 2,0.1 2.1,0.4 2.1,0.7 2.1,0.9 2.2,1.1 m -1.2,2.1 -2.1,-1.1 -2.1,-0.9 -2.1,-0.6 -2,-0.4 -1.9,-0.1 -1.9,0.1 -1.7,0.4 -1.6,0.6 -1.5,0.9 -1.4,1.1 -1.2,1.3 -1,1.5 -0.8,1.8 -0.7,1.9 -0.5,2.1 -0.3,2.2 -0.1,2.4 v 0.2 m 22.7,39.3 0.2,0.1 2.1,1.1 2.1,0.9 2,0.6 2,0.4 1.9,0.1 1.9,-0.1 1.7,-0.4 1.7,-0.6 1.4,-0.9 1.4,-1.1 1.2,-1.3 1,-1.5 0.9,-1.8 0.6,-1.9 0.5,-2.1 0.3,-2.2 0.1,-2.4 -0.1,-2.5 -0.3,-2.6 -0.5,-2.6 -0.6,-2.7 -0.9,-2.8 -1,-2.7 -1.2,-2.7 -1.4,-2.6 -1.4,-2.6 -1.7,-2.5 -1.7,-2.4 -1.9,-2.2 -1.9,-2.1 -2,-2 -2,-1.7 -2.1,-1.6 -2.1,-1.3 m 26,-16.4 1.1,0.5 1.2,0.5 1.3,0.4 1.4,0.3 1.4,0.2 h 1.4 l 1.4,-0.1 1.3,-0.3 1.1,-0.4 1,-0.6 0.8,-0.7 0.6,-0.8 0.4,-0.9 0.1,-1 v -0.9 l -0.4,-1 -0.5,-0.9 -0.8,-0.7 -0.9,-0.7 -1.1,-0.4 -1.2,-0.4 -1.4,-0.1 h -1.3 l -1.5,0.1 -1.4,0.3 -1.3,0.4 -0.7,0.2 m -1.3,0.6 -0.5,0.2 -0.9,0.6 -0.8,0.6 -0.5,0.6 -0.4,0.7 -0.1,0.6 0.1,0.7 0.4,0.7 0.6,0.7 1.4,1 m 105,-60.7 -2.1,-1.1 -2.2,-0.9 -2.1,-0.7 -2,-0.4 -2,-0.1 h -1.9 l -1.8,0.4 -1.7,0.6 -1.2,0.6 m 34.1,58.9 0.3,-0.3 1.4,-1 1.3,-1.3 1.1,-1.5 1,-1.7 0.7,-1.9 0.6,-2.1 0.4,-2.2 0.2,-2.4 v -2.5 l -0.2,-2.6 -0.4,-2.6 -0.6,-2.8 -0.7,-2.7 -1,-2.8 -1.1,-2.8 -1.3,-2.7 -1.4,-2.7 -1.5,-2.7 -1.7,-2.5 -1.8,-2.4 -1.9,-2.3 -2,-2.1 -2.1,-2 -2.1,-1.7 -2.1,-1.6 -2.2,-1.4 m -131,83.6 1.8,1.2 1.8,1.3 1.8,1.6 1.7,1.8 1.6,1.9 1.5,2.1 1.5,2.1 1.2,2.3 1.2,2.3 0.9,2.4 0.8,2.3 0.7,2.4 0.4,2.3 0.2,2.2 0.1,2.2 -0.2,2 -0.3,1.9 -0.5,1.7 -0.7,1.6 -0.9,1.3 -1.1,1.1 -1.2,0.9 -1.3,0.7 -1.5,0.4 -1.6,0.1 h -1.1 m -22.7,-39.3 0.8,-1.3 1,-1.2 1.1,-1 1.3,-0.8 1.4,-0.5 1.5,-0.3 h 1.6 l 1.7,0.2 1.8,0.4 1.8,0.7 1.9,1 m 0.6,0.4 -1.2,-0.6 -1.7,-0.7 -1.7,-0.4 -1.7,-0.2 -1.5,0.1 -1.5,0.3 -1.3,0.6 -0.2,0.1 m 22.7,39.2 0.5,-0.2 1.1,-1 1,-1.1 0.7,-1.4 0.7,-1.5 0.4,-1.8 0.2,-1.8 0.1,-0.9 m 115,-112 2.2,1.4 2,1.5 2.1,1.7 2,2 1.9,2.1 1.9,2.2 1.7,2.4 1.6,2.5 1.5,2.6 1.4,2.6 1.2,2.7 1,2.8 0.9,2.7 0.6,2.7 0.5,2.6 0.3,2.6 0.1,2.5"
     id="path518"
     inkscape:connector-curvature="0"
     style="fill:none;stroke:#000000;stroke-width:1;stroke-linecap:round;stroke-linejoin:round" />
</svg>
