<?xml version="1.0" encoding="UTF-8" standalone="no"?>
<!-- Page 1 -->

<svg
   xmlns:dc="http://purl.org/dc/elements/1.1/"
   xmlns:cc="http://creativecommons.org/ns#"
   xmlns:rdf="http://www.w3.org/1999/02/22-rdf-syntax-ns#"
   xmlns:svg="http://www.w3.org/2000/svg"
   xmlns="http://www.w3.org/2000/svg"
   xmlns:xlink="http://www.w3.org/1999/xlink"
   xmlns:sodipodi="http://sodipodi.sourceforge.net/DTD/sodipodi-0.dtd"
   xmlns:inkscape="http://www.inkscape.org/namespaces/inkscape"
   x="0"
   y="0"
   width="576.5321"
   height="458.44391"
   viewBox="0 0 576.5321 458.44391"
   version="1.1"
   style="display:block"
   id="svg1222"
   sodipodi:docname="image1.svg"
   inkscape:version="0.92.3 (2405546, 2018-03-11)">
  <metadata
     id="metadata1226">
    <rdf:RDF>
      <cc:Work
         rdf:about="">
        <dc:format>image/svg+xml</dc:format>
        <dc:type
           rdf:resource="http://purl.org/dc/dcmitype/StillImage" />
        <dc:title></dc:title>
      </cc:Work>
    </rdf:RDF>
  </metadata>
  <sodipodi:namedview
     pagecolor="#ffffff"
     bordercolor="#666666"
     borderopacity="1"
     objecttolerance="10"
     gridtolerance="10"
     guidetolerance="10"
     inkscape:pageopacity="0"
     inkscape:pageshadow="2"
     inkscape:window-width="2560"
     inkscape:window-height="1490"
     id="namedview1224"
     showgrid="false"
     fit-margin-top="8"
     fit-margin-left="8"
     fit-margin-right="8"
     fit-margin-bottom="8"
     inkscape:zoom="3.0652721"
     inkscape:cx="344.29667"
     inkscape:cy="140.49931"
     inkscape:window-x="1878"
     inkscape:window-y="1878"
     inkscape:window-maximized="1"
     inkscape:current-layer="svg1222" />
  <defs
     id="defs1110">
    <style
       type="text/css"
       id="style1108"><![CDATA[
text { white-space: pre; }
path, image { pointer-events: none; }
text::-moz-selection {
	color: transparent;
	background: rgba(0, 106, 173, 0.4);
}
text::selection {
	color: transparent;
	background: rgba(0, 106, 173, 0.4);
}

.s1_1{
font-size: 17.64px;
font-family: MSGothic_j;
fill: TRANSPARENT;
}

.g0_1{
fill: none;
stroke: #191924;
stroke-width: 0.77916664;
stroke-linecap: butt;
stroke-linejoin: miter;
}
.g1_1{
fill: none;
stroke: #191924;
stroke-width: 0.77916664;
stroke-linecap: round;
stroke-linejoin: round;
stroke-dasharray: 132,6,6,6;
}
.g2_1{
fill: none;
stroke: #191924;
stroke-width: 0.77916664;
stroke-linecap: round;
stroke-linejoin: round;
}
.g3_1{
fill: none;
stroke: #000000;
stroke-width: 1.0831945;
stroke-linecap: round;
stroke-linejoin: round;
}

]]></style>
  </defs>
  <path
     d="m 23.789622,190.34931 h -0.6 l -0.8,0.2 -0.6,0.1 -0.6,0.3 -0.5,0.5 -0.4,0.3 -0.5,0.6 -0.3,0.4 -0.3,0.7 -0.3,0.6 v 2 l 0.2,0.6 0.3,0.6 0.3,0.6 0.3,0.6 0.4,0.5 0.7,0.4 0.4,0.3 0.6,0.2 0.6,0.3 h 2 l 0.8,-0.3 0.6,-0.2 0.5,-0.3 0.6,-0.4 0.4,-0.5 0.3,-0.6 0.3,-0.6 0.3,-0.6 0.2,-0.6 v -1.3 l -0.2,-0.7 -0.1,-0.6 -0.3,-0.7 -0.3,-0.4 -0.5,-0.6 -0.4,-0.3 -0.7,-0.5 -0.4,-0.3 -0.8,-0.1 -0.6,-0.2 h -0.6 m 7,7.6 -14,-5.6"
     class="g0_1"
     id="path1114"
     inkscape:connector-curvature="0"
     style="fill:none;stroke:#191924;stroke-width:0.77916664;stroke-linecap:butt;stroke-linejoin:miter" />
  <g
     id="g1120"
     style="fill:#191924"
     transform="translate(-408.11038,-429.45069)">
    <use
       xlink:href="#f0_14"
       transform="matrix(0,-11.5,11.5,0,438.3,616.4)"
       id="use1116"
       x="0"
       y="0"
       width="100%"
       height="100%" />
    <use
       xlink:href="#f0_2f"
       transform="matrix(0,-11.5,11.5,0,438.3,607.6)"
       id="use1118"
       x="0"
       y="0"
       width="100%"
       height="100%" />
  </g>
  <path
     d="m 212.48962,170.34931 v -0.6 l -0.2,-0.8 -0.1,-0.6 -0.3,-0.6 -0.5,-0.5 -0.3,-0.4 -0.6,-0.5 -0.5,-0.3 -0.6,-0.3 -0.6,-0.3 h -2 l -0.7,0.2 -0.6,0.3 -0.5,0.3 -0.6,0.3 -0.5,0.4 -0.4,0.6 -0.3,0.5 -0.2,0.6 -0.3,0.6 v 2 l 0.3,0.8 0.2,0.6 0.3,0.4 0.4,0.7 0.5,0.4 0.6,0.3 0.5,0.3 0.6,0.3 0.7,0.2 h 1.3 l 0.7,-0.2 0.6,-0.1 0.6,-0.3 0.5,-0.3 0.6,-0.5 0.3,-0.5 0.5,-0.6 0.3,-0.4 0.1,-0.8 0.2,-0.6 v -0.6 m -7.7,7 5.7,-14"
     class="g0_1"
     id="path1124"
     inkscape:connector-curvature="0"
     style="fill:none;stroke:#191924;stroke-width:0.77916664;stroke-linecap:butt;stroke-linejoin:miter" />
  <g
     id="g1130"
     style="fill:#191924"
     transform="translate(-408.11038,-429.45069)">
    <use
       xlink:href="#f0_14"
       transform="matrix(11.5,0,0,11.5,623.9,606)"
       id="use1126"
       x="0"
       y="0"
       width="100%"
       height="100%" />
    <use
       xlink:href="#f0_2c"
       transform="matrix(11.5,0,0,11.5,632.8,606)"
       id="use1128"
       x="0"
       y="0"
       width="100%"
       height="100%" />
  </g>
  <path
     d="m 317.58962,179.54931 h -0.8 l -0.6,0.1 -0.6,0.2 -0.6,0.3 -0.5,0.4 -0.4,0.5 -0.5,0.4 -0.4,0.5 -0.2,0.6 -0.3,0.8 v 0.6 l -0.1,0.6 0.1,0.6 0.2,0.8 0.1,0.6 0.3,0.4 0.5,0.7 0.4,0.4 0.5,0.5 0.6,0.3 0.6,0.3 0.6,0.1 h 2 l 0.6,-0.1 0.6,-0.3 0.6,-0.3 0.5,-0.5 0.5,-0.4 0.4,-0.7 0.3,-0.4 0.3,-0.6 0.2,-0.8 v -1.2 l -0.2,-0.6 -0.1,-0.8 -0.3,-0.6 -0.3,-0.5 -0.5,-0.4 -0.4,-0.5 -0.7,-0.4 -0.6,-0.3 -0.6,-0.2 -0.6,-0.1 h -0.6 m 7,7.6 -14,-5.5"
     class="g0_1"
     id="path1134"
     inkscape:connector-curvature="0"
     style="fill:none;stroke:#191924;stroke-width:0.77916664;stroke-linecap:butt;stroke-linejoin:miter" />
  <g
     id="g1142"
     style="fill:#191924"
     transform="translate(-408.11038,-429.45069)">
    <use
       xlink:href="#f0_14"
       transform="matrix(0,-11.5,11.5,0,732.1,605.6)"
       id="use1136"
       x="0"
       y="0"
       width="100%"
       height="100%" />
    <use
       xlink:href="#f0_24"
       transform="matrix(0,-11.5,11.5,0,732.1,596.8)"
       id="use1138"
       x="0"
       y="0"
       width="100%"
       height="100%" />
    <use
       xlink:href="#f0_1x"
       transform="matrix(11.5,0,0,11.5,896.5,779.3)"
       id="use1140"
       x="0"
       y="0"
       width="100%"
       height="100%" />
  </g>
  <g
     id="g1150"
     style="fill:#191924"
     transform="translate(-408.11038,-429.45069)">
    <use
       xlink:href="#f0_1y"
       transform="matrix(11.5,0,0,11.5,835.9,779.3)"
       id="use1146"
       x="0"
       y="0"
       width="100%"
       height="100%" />
    <use
       xlink:href="#f0_1z"
       transform="matrix(11.5,0,0,11.5,906.9,876.8)"
       id="use1148"
       x="0"
       y="0"
       width="100%"
       height="100%" />
  </g>
  <g
     id="g1162"
     style="fill:#191924"
     transform="translate(-408.11038,-429.45069)">
    <use
       xlink:href="#f0_g"
       transform="matrix(11.5,0,0,11.5,915.7,876.8)"
       id="use1156"
       x="0"
       y="0"
       width="100%"
       height="100%" />
    <use
       xlink:href="#f0_20"
       transform="matrix(11.5,0,0,11.5,924.5,876.8)"
       id="use1158"
       x="0"
       y="0"
       width="100%"
       height="100%" />
    <use
       xlink:href="#f0_21"
       transform="matrix(11.5,0,0,11.5,925.9,789.7)"
       id="use1160"
       x="0"
       y="0"
       width="100%"
       height="100%" />
  </g>
  <g
     id="g1172"
     style="fill:#191924"
     transform="translate(-408.11038,-429.45069)">
    <use
       xlink:href="#f0_g"
       transform="matrix(11.5,0,0,11.5,934.8,789.7)"
       id="use1166"
       x="0"
       y="0"
       width="100%"
       height="100%" />
    <use
       xlink:href="#f0_22"
       transform="matrix(11.5,0,0,11.5,943.6,789.7)"
       id="use1168"
       x="0"
       y="0"
       width="100%"
       height="100%" />
    <use
       xlink:href="#f0_23"
       transform="matrix(11.5,0,0,11.5,803.3,800.7)"
       id="use1170"
       x="0"
       y="0"
       width="100%"
       height="100%" />
  </g>
  <path
     d="m 8.3896223,203.74931 0.1,1.1 0.2,1.1 0.1,1.1 0.3,1 0.5,1.1 0.4999997,0.9 0.4,0.9 0.8,0.9 0.6,1 0.7,0.7 1,0.6 0.9,0.8 0.9,0.5 0.9,0.4 1.1,0.5 1.1,0.3 1,0.1 1.1,0.2 1.1,0.1 1,-0.1 1.1,-0.2 1.1,-0.1 1,-0.3 1,-0.5 1,-0.4 0.9,-0.5 1,-0.8 0.7,-0.6 0.8,-0.7 0.8,-1 0.6,-0.9 0.6,-0.9 0.4,-0.9 0.3,-1.1 0.3,-1 0.4,-1.1 0.1,-1.1 v -1.1 m 0,-34.3 v -1.1 l -0.1,-1.1 -0.4,-1 -0.3,-1.1 -0.3,-1.1 -0.4,-0.9 -0.6,-0.9 -0.6,-0.9 -0.8,-0.8 -0.8,-0.8 -0.7,-0.7 -1,-0.6 -0.9,-0.6 -1,-0.5 -1,-0.5 -1,-0.3 -1.1,-0.1 -1.1,-0.2 h -2.1 l -1.1,0.2 -1,0.1 -1.1,0.3 -1.1,0.5 -0.9,0.5 -0.9,0.6 -0.9,0.6 -1,0.7 -0.7,0.8 -0.6,0.8 -0.8,0.9 -0.4,0.9 -0.4999997,0.9 -0.5,1.1 -0.3,1.1 -0.1,1 -0.2,1.1 -0.1,1.1 m 293.7999977,23.5 0.1,1.1 v 1.2 l 0.3,1.1 0.3,0.9 0.5,1 0.4,1 0.5,1 0.6,0.8 0.8,0.9 0.7,0.8 1,0.7 0.7,0.7 0.9,0.4 1.1,0.5 1.1,0.4 0.9,0.3 1.1,0.3 h 1 l 1.3,0.2 1,-0.2 h 1.1 l 1.1,-0.3 1,-0.3 1,-0.4 1,-0.5 0.9,-0.4 1,-0.7 0.7,-0.7 0.8,-0.8 0.7,-0.9 0.7,-0.8 0.6,-1 0.4,-1 0.3,-1 0.3,-0.9 0.3,-1.1 0.2,-1.2 v -1.1 m 0,-34.4 v -1 l -0.2,-1.1 -0.3,-1.1 -0.3,-1.1 -0.3,-0.9 -0.4,-1 -0.6,-1 -0.7,-0.9 -0.7,-0.7 -0.8,-0.8 -0.7,-0.8 -1,-0.6 -0.9,-0.6 -1,-0.4 -1,-0.3 -1,-0.5 -1.1,-0.2 -1.1,-0.1 h -2.3 l -1,0.1 -1.1,0.2 -0.9,0.5 -1.1,0.3 -1.1,0.4 -0.9,0.6 -0.7,0.6 -1,0.8 -0.7,0.8 -0.8,0.7 -0.6,0.9 -0.5,1 -0.4,1 -0.5,0.9 -0.3,1.1 -0.3,1.1 v 1.1 l -0.1,1 m -103.2,-3.6 -1,0.1 -1.1,0.2 -1.1,0.1 -1,0.3 -1.1,0.5 -0.9,0.4 -1.1,0.5 -0.8,0.8 -0.9,0.6 -0.7,0.7 -0.6,1 -0.8,0.9 -0.5,0.9 -0.4,0.9 -0.5,1.1 -0.3,1 -0.1,1.1 -0.2,1.1 -0.2,1.1 0.2,1 0.2,1.1 0.1,1.1 0.3,1 0.5,0.9 0.4,1.1 0.5,0.9 0.8,0.9 0.6,0.8 0.7,0.8 0.9,0.7 0.8,0.7 1.1,0.6 0.9,0.4 1.1,0.3 1,0.3 1.1,0.3 1.1,0.2 h 1 m 34.4,0 h 1.1 l 1.1,-0.2 1,-0.3 1.1,-0.3 1.1,-0.3 0.9,-0.4 0.9,-0.6 0.9,-0.7 0.8,-0.7 0.7,-0.8 0.8,-0.8 0.6,-0.9 0.6,-0.9 0.5,-1.1 0.4,-0.9 0.3,-1 0.2,-1.1 0.2,-1.1 v -2.1 l -0.2,-1.1 -0.2,-1.1 -0.3,-1 -0.4,-1.1 -0.5,-0.9 -0.6,-0.9 -0.6,-0.9 -0.8,-1 -0.7,-0.7 -0.8,-0.6 -0.9,-0.8 -0.9,-0.5 -0.9,-0.4 -1.1,-0.5 -1.1,-0.3 -1,-0.1 -1.1,-0.2 -1.1,-0.1"
     class="g0_1"
     id="path1178"
     inkscape:connector-curvature="0"
     style="fill:none;stroke:#191924;stroke-width:0.77916664;stroke-linecap:butt;stroke-linejoin:miter" />
  <path
     d="m 180.88962,23.649311 v -6.5 m -10.8,17.4 H 62.689622 m 118.199998,10.8 v 6.5 m 10.8,-17.3 h 107.1 m -117.9,350.799999 v -6.5 m -10.8,17.4 H 65.789622 m 115.099998,10.8 v 6.5 m 10.8,-17.3 h 104.3 m 169.3,-21.7 v -15.2 m -21.7,36.9 h -15.2 m 36.9,21.6 v 15.2 m 21.6,-36.8 h 15.2"
     class="g1_1"
     id="path1180"
     inkscape:connector-curvature="0"
     style="fill:none;stroke:#191924;stroke-width:0.77916664;stroke-linecap:round;stroke-linejoin:round;stroke-dasharray:132, 6, 6, 6" />
  <path
     d="m 180.88962,34.549311 v -10.9 m 0,10.9 h -10.9 m 10.9,0 v 10.8 m 0,-10.8 h 10.8 m -10.8,361.699999 v -10.8 m 0,10.8 h -10.9 m 10.9,0 v 10.9 m 0,-10.9 h 10.8 m 273.5,0 v -10.8 m 0,10.8 h -10.9 m 10.9,0 v 10.9 m 0,-10.9 h 10.8"
     class="g2_1"
     id="path1182"
     inkscape:connector-curvature="0"
     style="fill:none;stroke:#191924;stroke-width:0.77916664;stroke-linecap:round;stroke-linejoin:round" />
  <path
     d="M 67.789622,234.14931 H 294.78962 m -113.9,33.8 v -67.5"
     class="g1_1"
     id="path1184"
     inkscape:connector-curvature="0"
     style="fill:none;stroke:#191924;stroke-width:0.77916664;stroke-linecap:round;stroke-linejoin:round;stroke-dasharray:132, 6, 6, 6" />
  <path
     d="m 494.98962,352.64931 h -8.7 m 0,0 -17,32.5 m 0,0 0.9,-15.7 m 11.5,5.9 -12.4,9.8 m -39.6,-32.5 h 9 m 0,0 17,24.2 m 0,0 -13.4,-7.9 m 10.7,-7.5 2.7,15.4 m 67.2,73.2 h -26.1 m 0,0 -22.2,-47.3 m 0,0 12.1,10.2 m -11.9,5.5 -0.2,-15.7 m 67.4,-39.8 h -26.3 m 0,0 -29.9,39.8 m 0,0 3.4,-15.3 m 10.4,7.8 -13.8,7.5 m -88.8,-28.9 h 9.2 m 0,0 42.9,22.3 m 0,0 -15.7,-0.8 m 6,-11.6 9.7,12.4"
     class="g2_1"
     id="path1186"
     inkscape:connector-curvature="0"
     style="fill:none;stroke:#191924;stroke-width:0.77916664;stroke-linecap:round;stroke-linejoin:round" />
  <path
     d="m 449.18962,389.74931 v 13"
     class="g1_1"
     id="path1188"
     inkscape:connector-curvature="0"
     style="fill:none;stroke:#191924;stroke-width:0.77916664;stroke-linecap:round;stroke-linejoin:round;stroke-dasharray:132, 6, 6, 6" />
  <path
     d="m 8.3896223,203.74931 v -34.3 m 26.3999997,0 v 34.3 m 34.7,13.2 h -33.8 m 33.8,34.7 h -33.8 m 4.4,-34.7 v -47.5 m 0,47.5 v 34.7 m 0,-34.7 6.5,14.3 m -13,0 6.5,-14.3 m 0,34.7 -6.5,-14.4 m 13,0 -6.5,14.4 m 262.099998,-58.7 v -34.4 m 26.4,0 v 34.4 m -36.5,15.3 h 46.1 m -46.1,52.1 h 46.1 m -4.4,-52.1 v -49.7 m 0,49.7 v 52.1 m 0,-52.1 6.6,14.3 m -13,0 6.4,-14.3 m 0,52.1 -6.4,-14.4 m 13,0 -6.6,14.4 m -134.8,-105.4 h 34.4 m 0,26.4 h -34.4 m -24.7,22.6 v -21.7 m 13,21.7 v -21.7 m -13,4.4 h -27.5 m 27.5,0 h 13 m 0,0 h 46.1 m -59.1,0 -14.2,6.5 m 0,-13 14.2,6.5 m 13,0 14.3,-6.5 m 0,13 -14.3,-6.5"
     class="g2_1"
     id="path1190"
     inkscape:connector-curvature="0"
     style="fill:none;stroke:#191924;stroke-width:0.77916664;stroke-linecap:round;stroke-linejoin:round" />
  <path
     d="m 73.889622,51.949311 h 72.299998 m 0,-34.7 H 73.889622 m 0,0 -1.4,1.2 m 0,32.1 1.4,1.4 m 213.899998,8.5 1.4,-1.2 m 0,-49.3000001 -1.4,-1.4 m 0,0 h -140.2 m 0,51.9000001 h 140.2 m -140.2,-51.9000001 -1.4,1.4 m 0,49.3000001 1.4,1.2 m 33.3,-32.3 h 1 l 0.9,0.3 1,0.3 0.9,0.6 0.7,0.6 0.7,0.8 0.6,0.9 0.3,0.9 0.3,1.1 v 1.9 l -0.3,1.1 -0.3,0.9 -0.6,0.8 -0.7,0.8 -0.7,0.7 -0.9,0.5 -1,0.4 -0.9,0.2 -1,0.1 -1.1,-0.1 -0.9,-0.2 -0.9,-0.4 -1,-0.5 -0.7,-0.7 -0.8,-0.8 -0.4,-0.8 -0.5,-0.9 -0.2,-1.1 -0.1,-1 0.1,-0.9 0.2,-1.1 0.5,-0.9 0.4,-0.9 0.8,-0.8 0.7,-0.6 1,-0.6 0.9,-0.3 0.9,-0.3 h 1.1 m 0,0.9 h -1 l -0.9,0.3 -0.9,0.3 -0.8,0.6 -0.7,0.6 -0.5,0.8 -0.4,0.9 -0.3,0.9 -0.2,0.9 v 0.9 l 0.3,1 0.3,0.9 0.5,0.7 0.6,0.8 0.7,0.6 1,0.5 0.9,0.3 0.9,0.1 h 0.9 l 0.9,-0.1 1,-0.3 0.9,-0.5 0.6,-0.6 0.7,-0.8 0.5,-0.7 0.3,-0.9 0.2,-1 0.1,-0.9 -0.1,-0.9 -0.3,-0.9 -0.5,-0.9 -0.5,-0.8 -0.7,-0.6 -0.8,-0.6 -0.9,-0.3 -0.9,-0.3 h -0.9 m -106.999998,5.5 v 17.4 m 0,-34.7 v 17.3 m -1.4,0 v -16.1 m 0,32.1 v -16 m 216.699998,0 v 24.7 m 0,-49.3000001 V 34.549311 m -1.4,0 V 8.5493109 m 0,51.9000001 v -25.9 m -113.5,0 0.1,1 0.3,1.1 0.4,1.1 0.6,0.7 0.7,1 0.9,0.6 1,0.4 1,0.5 1.1,0.1 h 1.1 l 1,-0.3 1.1,-0.3 0.9,-0.4 0.8,-0.8 0.8,-0.8 0.6,-0.9 0.3,-1 0.3,-1.1 v -2.2 l -0.3,-1 -0.5,-0.9 -0.6,-1 -0.8,-0.7 -0.9,-0.6 -0.9,-0.5 -1.1,-0.3 -1.2,-0.1 h -1.1 l -0.9,0.3 -1,0.3 -1,0.6 -0.7,0.6 -0.8,0.9 -0.4,0.9 -0.5,1.1 -0.3,1.7 m -26.7,0 v 25.9 m 0,-51.9000001 V 34.549311 m -1.4,0 V 9.9493109 m 0,49.3000001 v -24.7 m 29,225.799999 -0.9,-0.9 m 13,0 -0.8,0.9 m 0.8,-0.9 v -50.3 m -0.8,51.2 h -11.3 m -0.9,-51.2 v 50.3 m 0,-50.3 0.9,-0.9 m 11.3,0 h -11.3 m 11.3,0 0.8,0.9 m -13,42.5 H 73.889622 m 140.299998,0 h -26.9 m 0,-34.7 h 26.9 m -140.299998,0 H 174.28962 m 0,34.7 v -34.7 m 13,0 v 34.7 m -113.399998,0 -1.4,-1.4 m 0,0 v -31.9 m 0,0 1.4,-1.4 m 140.299998,0 1.3,1.4 m 0,31.9 v -31.9 m 0,31.9 -1.3,1.4 m -39.9,0 h -26.7 m 0,-34.7 h 26.7 m 13,0 h 100.5 m 0,34.7 v -34.7 m 0,34.7 h -100.5 m -13,-34.7 v -8.7 m 13,0 v 0.1 h -0.6 m -11.6,0 h -0.5 l -0.3,-0.1 m 13,0 v 8.7 m -13,43.4 0.1,-0.2 h 0.3 l 0.4,-0.1 m 11.6,0 v 0.1 h 0.4 l 0.2,0.2 m -13,0 v -8.7 m 13,0 v 8.7 m 0,-52.1 h 100.5 m -140.2,0 h 26.7 m 0,52.1 h -26.7 m 140.2,0 h -100.5 m 101.9,-7.5 v 6.1 m 0,0 -1.4,1.4 m 0,-8.7 1.4,1.2 m -1.4,-44.6 1.4,1.4 m 0,6.1 -1.4,1.2 m 1.4,-7.3 v 6.1 m -141.6,44.6 -1.4,-1.4 m 0,-6.1 v 6.1 m 0,-6.1 1.4,-1.2 m -1.4,-42 1.4,-1.4 m 0,8.7 -1.4,-1.2 m 0,37.1 v -1.2 m 0,-34.7 v -1.2 m 143,0 v 37.1 m -143,-43.2 v 6.1"
     class="g3_1"
     id="path1192"
     inkscape:connector-curvature="0"
     style="fill:none;stroke:#000000;stroke-width:1.08319449;stroke-linecap:round;stroke-linejoin:round" />
  <path
     d="m 148.48962,208.24931 -2.3,2.3 m 12,-2.3 -8.7,8.7 m 18.4,-8.7 -8.6,8.7 m 15,-5.4 -5.4,5.4 m 23.7,34.7 -5.3,5.3 m 15.1,-5.3 -8.7,8.7 m 18.5,-8.7 -8.7,8.7 m 18.3,-8.7 -8.6,8.7 m 18.4,-8.7 -8.7,8.7 m 18.5,-8.7 -8.8,8.7 m 18.4,-8.7 -8.6,8.7 m 18.4,-8.7 -8.7,8.7 m 18.4,-8.7 -8.7,8.7 m 18.4,-8.7 -8.7,8.7 m 17.4,-7.7 -7.7,7.7 m -93.8,-52.1 -0.1,0.1 m 9.8,-0.1 -8.6,8.7 m 18.3,-8.7 -8.7,8.7 m 18.5,-8.7 -8.7,8.7 m 18.3,-8.7 -8.5,8.7 m 18.3,-8.7 -8.7,8.7 m 18.5,-8.7 -8.7,8.7 m 18.3,-8.7 -8.7,8.7 m 18.5,-8.7 -8.7,8.7 m 18.3,-8.7 -8.5,8.7 m 18.3,-8.7 -8.7,8.7 m 13.3,-3.4 -3.5,3.4 m -131.9,34.7 -7.5,7.5 m 17.3,-7.5 -8.7,8.7 m 18.3,-8.7 -8.7,8.7 m 9.8,-0.2 v 0.2 m 13,-10.1 5,1.4 m -5,-8.6 27.9,7.5 m -27.9,-14.5 28.2,7.5 m -28.2,-14.7 28.2,7.6 m -28.2,-14.6 28.2,7.5 m -19.7,-12.4 19.7,5.2 m -142.999998,25.8 13.6,3.7 m -13.6,-10.7 40.199998,10.7 m -40.199998,-17.9 66.799998,17.9 m -66.799998,-25.1 93.199998,25.1 m -93.199998,-32.1 101.799998,27.2 m -84.699998,-29.8 84.699998,22.8 m -58.1,-22.8 58.1,15.6 m -31.5,-15.6 31.5,8.4 m -5.1,-8.4 5.1,1.4 m 13,13.6 -6.3,-23.7 m 6.3,50.2 -13,-48.4 m 6.4,50.3 -6.4,-23.7"
     class="g2_1"
     id="path1194"
     inkscape:connector-curvature="0"
     style="fill:none;stroke:#191924;stroke-width:0.77916664;stroke-linecap:round;stroke-linejoin:round" />
  <path
     d="m 180.88962,402.74931 h 1 l 0.9,-0.3 1,-0.3 0.9,-0.7 0.7,-0.6 0.7,-0.7 0.6,-0.9 0.3,-1 0.3,-0.9 v -2.1 l -0.3,-0.9 -0.3,-1 -0.6,-0.9 -0.7,-0.7 -0.7,-0.8 -0.9,-0.5 -1,-0.4 -0.9,-0.2 -1,-0.1 -1.1,0.1 -0.9,0.2 -0.9,0.4 -1,0.5 -0.7,0.8 -0.8,0.7 -0.4,0.9 -0.5,1 -0.2,0.9 -0.1,1 0.1,1.1 0.2,0.9 0.5,1 0.4,0.9 0.8,0.7 0.7,0.6 1,0.7 0.9,0.3 0.9,0.3 h 1.1 m 0,-13 1,0.1 0.9,0.2 1,0.4 0.9,0.5 0.7,0.8 0.7,0.7 0.6,0.9 0.3,1 0.3,0.9 v 2.1 l -0.3,0.9 -0.3,1 -0.6,0.9 -0.7,0.7 -0.7,0.6 -0.9,0.7 -1,0.3 -0.9,0.3 h -2.1 l -0.9,-0.3 -0.9,-0.3 -1,-0.7 -0.7,-0.6 -0.8,-0.7 -0.4,-0.9 -0.5,-1 -0.2,-0.9 -0.1,-1.1 0.1,-1 0.2,-0.9 0.5,-1 0.4,-0.9 0.8,-0.7 0.7,-0.8 1,-0.5 0.9,-0.4 0.9,-0.2 1.1,-0.1 m 33.3,23.8 H 73.889622 m 0,0 -1.4,-1.2 m 0,0 v -32.1 m 0,0 1.4,-1.2 m 0,0 H 214.18962 m 0,0 1.3,1.2 m 0,32.1 v -32.1 m 0,32.1 -1.3,1.2 m -66.6,-43.2 h 140.2 m 0,51.9 h -140.2 m -1.4,-50.7 1.4,-1.2 m 0,51.9 -1.4,-1.4 m 143,0 -1.4,1.4 m 0,-51.9 1.4,1.2 m -141.6,7.5 h 140.2 m 0,34.5 v -34.5 m 0,34.5 h -140.2 m 141.6,-35.9 -1.4,1.4 m 0,34.5 1.4,1.4 m 0,-37.3 v 37.3 m -143,0 1.4,-1.4 m 0,-34.5 -1.4,-1.4 m 0,37.3 v -1.4 m 0,-34.5 v -1.4 m 143,37.3 v 5.9 m -143,-5.9 v 5.9 m 143,-49.3 v 6.1 m -143,-6.1 v 6.1"
     class="g3_1"
     id="path1196"
     inkscape:connector-curvature="0"
     style="fill:none;stroke:#000000;stroke-width:1.08319449;stroke-linecap:round;stroke-linejoin:round" />
  <path
     d="m 153.78962,413.54931 -7.5,7.5 m 17.3,-7.5 -8.7,8.7 m 18.3,-8.7 -8.7,8.7 m 18.5,-8.7 -8.7,8.7 m 18.3,-8.7 -8.5,8.7 m 18.3,-8.7 -8.7,8.7 m 18.5,-8.7 -8.7,8.7 m 18.3,-8.7 -8.6,8.7 m 18.4,-8.7 -8.7,8.7 m 18.5,-8.7 -8.8,8.7 m 18.4,-8.7 -8.6,8.7 m 18.4,-8.7 -8.7,8.7 m 18.4,-8.7 -8.7,8.7 m 18.4,-8.7 -8.7,8.7 m 17.4,-7.6 -7.7,7.6 m -132.7,-51.9 -2.3,2.3 m 12,-2.3 -8.7,8.7 m 18.4,-8.7 -8.6,8.7 m 18.3,-8.7 -8.7,8.7 m 18.5,-8.7 -8.7,8.7 m 18.4,-8.7 -8.6,8.7 m 18.3,-8.7 -8.7,8.7 m 18.5,-8.7 -8.7,8.7 m 18.3,-8.7 -8.5,8.7 m 18.3,-8.7 -8.7,8.7 m 18.5,-8.7 -8.7,8.7 m 18.3,-8.7 -8.7,8.7 m 18.5,-8.7 -8.7,8.7 m 18.3,-8.7 -8.5,8.7 m 18.3,-8.7 -8.7,8.7 m 13.3,-3.5 -3.5,3.5 m -213.199998,31 13.6,3.5 m -13.6,-10.7 40.199998,10.7 m -40.199998,-17.9 66.799998,17.9 m -66.799998,-24.9 93.199998,24.9 m -93.199998,-32.1 119.799998,32.1 m -102.699998,-34.5 125.599998,33.6 m -28.1,-14.7 28.4,7.7 m -99.3,-26.6 58.4,15.6 m -31.8,-15.6 72.7,19.4 m -46.3,-19.4 46.3,12.2 m -19.7,-12.2 19.7,5.2 m -29.9,16.5 -2.9,-10.7 m -0.2,12.5 -3.3,-12.5 m -0.3,12.5 -2.8,-10.7"
     class="g2_1"
     id="path1198"
     inkscape:connector-curvature="0"
     style="fill:none;stroke:#191924;stroke-width:0.77916664;stroke-linecap:round;stroke-linejoin:round" />
  <path
     d="m 440.08962,402.74931 h 50.1 m -50.1,0 -0.9,-0.8 m 0,0 v -11.3 m 0,0 0.9,-0.9 m 50.1,0 h -50.1 m 50.1,0 1,0.9 m 0,11.3 v -11.3 m 0,11.3 -1,0.8 m -41.1,-13 h 32.1 m 0,13 h -32.1 m 32.1,0 -0.4,1.2 -0.6,1.1 -0.8,1.2 -0.8,0.9 -0.7,1.1 -1,0.9 -1,0.7 -1.1,0.8 -1.1,0.6 -1,0.6 -1.3,0.6 -1.2,0.3 -1.2,0.4 -1.2,0.3 -1.4,0.1 h -2.4 l -1.4,-0.1 -1.2,-0.3 -1.3,-0.4 -1.2,-0.3 -1.2,-0.6 -1.1,-0.6 -1,-0.6 -1.1,-0.8 -1.1,-0.7 -0.9,-0.9 -0.8,-1.1 -0.7,-0.9 -0.8,-1.2 -0.6,-1.1 -0.5,-1.2 m 0,-13 0.5,-1.1 0.6,-1.2 0.8,-1.1 0.7,-0.9 0.8,-1.1 0.9,-0.9 1.1,-0.7 1.1,-0.8 1,-0.8 1.1,-0.4 1.2,-0.6 1.2,-0.5 1.3,-0.3 1.2,-0.2 1.4,-0.1 h 2.4 l 1.4,0.1 1.2,0.2 1.2,0.3 1.2,0.5 1.3,0.6 1,0.4 1.1,0.8 1.1,0.8 1,0.7 1,0.9 0.7,1.1 0.8,0.9 0.8,1.1 0.6,1.2 0.4,1.1 m 0,0 h 9.2 m 0,0.1 v -0.1 m 0,13 h -9.2 m -41.2,-13 v 0.1 m 0,-0.1 h 9.1 m 0,13 h -9.1 m 50.4,0 -0.5,1.5 -0.6,1.5 -0.6,1.4 -0.6,1.4 -0.8,1.3 -0.9,1.4 -0.9,1.2 -0.9,1.3 -1.2,1 -1.1,1.1 -1.2,0.9 -1.3,0.9 -1.3,1 -1.4,0.7 -1.4,0.6 -1.4,0.6 -1.5,0.5 -1.5,0.5 -1.5,0.3 -1.6,0.3 -1.5,0.1 h -3 l -1.6,-0.1 -1.5,-0.3 -1.5,-0.3 -1.6,-0.5 -1.5,-0.5 -1.4,-0.6 -1.3,-0.6 -1.4,-0.7 -1.4,-1 -1.2,-0.9 -1.2,-0.9 -1.1,-1.1 -1.1,-1 -1,-1.3 -1,-1.2 -0.9,-1.4 -0.7,-1.3 -0.6,-1.4 -0.7,-1.4 -0.6,-1.5 -0.4,-1.5 m 41.2,0 -0.4,1.2 -0.6,1.1 -0.8,1.2 -0.8,0.9 -0.7,1.1 -1,0.9 -1,0.7 -1.1,0.8 -1.1,0.6 -1,0.6 -1.3,0.6 -1.2,0.3 -1.2,0.4 -1.2,0.3 -1.4,0.1 h -2.4 l -1.4,-0.1 -1.2,-0.3 -1.3,-0.4 -1.2,-0.3 -1.2,-0.6 -1.1,-0.6 -1,-0.6 -1.1,-0.8 -1.1,-0.7 -0.9,-0.9 -0.8,-1.1 -0.7,-0.9 -0.8,-1.2 -0.6,-1.1 -0.5,-1.2 m -9.1,-13 0.4,-1.4 0.6,-1.5 0.7,-1.4 0.6,-1.4 0.7,-1.3 0.9,-1.4 1,-1.2 1,-1.3 1.1,-1 1.1,-1.1 1.2,-1.1 1.2,-0.9 1.4,-0.8 1.4,-0.7 1.3,-0.6 1.4,-0.6 1.5,-0.7 1.6,-0.3 1.5,-0.3 1.5,-0.3 1.6,-0.1 h 3 l 1.5,0.1 1.6,0.3 1.5,0.3 1.5,0.3 1.5,0.7 1.4,0.6 1.4,0.6 1.4,0.7 1.3,0.8 1.3,0.9 1.2,1.1 1.1,1.1 1.2,1 0.9,1.3 0.9,1.2 0.9,1.4 0.8,1.3 0.6,1.4 0.6,1.4 0.6,1.5 0.5,1.4 m -41.3,0 0.5,-1.1 0.6,-1.2 0.8,-1.1 0.7,-0.9 0.8,-1.1 0.9,-0.9 1.1,-0.7 1.1,-0.8 1,-0.8 1.1,-0.4 1.2,-0.6 1.2,-0.5 1.3,-0.3 1.2,-0.2 1.4,-0.1 h 2.4 l 1.4,0.1 1.2,0.2 1.2,0.3 1.2,0.5 1.3,0.6 1,0.4 1.1,0.8 1.1,0.8 1,0.7 1,0.9 0.7,1.1 0.8,0.9 0.8,1.1 0.6,1.2 0.4,1.1"
     class="g3_1"
     id="path1200"
     inkscape:connector-curvature="0"
     style="fill:none;stroke:#000000;stroke-width:1.08319449;stroke-linecap:round;stroke-linejoin:round" />
  <path
     d="m 461.78962,370.44931 -4.6,4.6 m 13.8,-4.1 -8.1,8.1 m 15.1,-5.4 -0.8,1 m 6.3,3.3 -6.1,6.1 m 10.4,-0.6 -6.4,6.3 m -32.4,13 -6.4,6.4 m 10.4,-0.6 -6.2,6.1 m 12,-2.3 -6.5,6.6 m 15.2,-5.5 -8.1,8.2 m 27.6,-18 -6.4,6.2 m -29.2,-3 20.3,5.5 m -8.8,-9.6 10.8,3 m -22.1,-20.3 15.9,4.3 m -8.9,-9.5 9.5,2.6 m 18.8,14.8 -2.2,-7.9 m -3.5,13 -3.5,-13 m -3.7,13 -3.5,-13 m -3.6,13 -3.4,-13 m -3.7,13 -3.5,-13 m -3.6,13 -3.6,-13 m -3.5,13 -2,-7.1 m 28.8,-11.7 6.5,1.8 m -24.1,-8.2 -12.2,12.2 m 34.8,23.5 -8.9,8.9 m -26.4,-32.3 v -0.1"
     class="g2_1"
     id="path1202"
     inkscape:connector-curvature="0"
     style="fill:none;stroke:#191924;stroke-width:0.77916664;stroke-linecap:round;stroke-linejoin:round" />
  <path
     d="m 478.58962,106.04931 -0.6,-0.3 m -7.9,0 -0.6,0.3 m -83.5,59.7 v 1.1 m 11.5,19.5 0.9,0.6 m 8.6,0.8 52.1,-29.9 m -17.3,-30.1 -52.1,30.1 m 42.3,-25.7 v 1.1 m 17.4,30.2 1,0.5 m 86.3,-100.999999 -99.3,57.299999 m 25.9,45 99.4,-57.2 m 5.3,-11.999999 v -1 m -17.4,-30.3 -0.9,-0.4 m -71.1,41.699999 0.2,0.1 0.7,0.5 0.5,0.6 0.3,0.6 0.2,0.8 v 0.6 l -0.3,0.6 -0.5,0.6 -0.8,0.6 -0.4,0.3 m -8.4,-5.6 -0.8,0.4 -0.5,0.5 -0.4,0.6 v 1.4 l 0.4,0.6 0.5,0.4 0.8,0.6 0.7,0.4 0.9,0.3 1.1,0.1 1.2,0.2 1.1,-0.2 1.1,-0.1 0.9,-0.3 0.9,-0.4 0.6,-0.6 0.6,-0.4 0.3,-0.6 v -1.4 l -0.3,-0.6 -0.6,-0.5 -0.6,-0.4 -0.9,-0.5 -0.9,-0.3 -1.1,-0.2 -1.1,-0.1 -1.2,0.1 -1.1,0.2 -0.9,0.3 -0.7,0.5 m -72.6,54.5 -1.4,-0.6 -1.2,-0.5 -1.2,-0.3 -1.2,-0.1 -1.3,0.1 -0.9,0.2 -1.1,0.4 -0.7,0.8 -0.8,0.8 -0.6,0.9 -0.4,1.2 -0.4,1.2 -0.1,1.4 -0.2,1.4 0.2,1.7 0.3,1.5 0.3,1.7 0.6,1.7 0.6,1.6 0.8,1.6 0.9,1.6 1.1,1.6 1,1.3 1.3,1.4 1.2,1.2 1.2,1.1 1.2,0.9 1.4,0.8 1.2,0.4 1.3,0.5 1.2,0.2 h 1.2 l 1.1,-0.2 1,-0.3 1,-0.6 0.7,-0.8 0.6,-0.7 0.6,-1.1 0.3,-1.2 0.4,-1.4 0.1,-1.4 -0.1,-1.5 -0.2,-1.5 -0.3,-1.7 -0.5,-1.7 -0.6,-1.7 -0.7,-1.7 -0.8,-1.5 -1.1,-1.5 -0.9,-1.5 -1.2,-1.4 -1.2,-1.4 -1.3,-1.1 -1.2,-0.9 -1.2,-0.9 m 0.9,-1.5 1.2,0.7 1.4,1.1 1.4,1.2 1.2,1.3 1.2,1.5 1.1,1.5 0.9,1.5 0.9,1.7 1,1.7 0.6,1.8 0.6,1.7 0.3,1.7 0.3,1.7 0.1,1.7 -0.1,1.5 -0.2,1.4 -0.3,1.3 -0.4,1.3 -0.6,1 -0.8,0.8 -0.8,0.8 -1,0.4 -1.1,0.5 -1.1,0.1 -1.2,-0.1 -1.4,-0.2 -1.2,-0.4 -1.4,-0.7 -0.6,-0.3 m -12.4,-21.2 v -0.5 l 0.2,-1.3 0.3,-1.4 0.3,-1.4 0.6,-1 0.6,-1 0.9,-0.7 1,-0.6 0.9,-0.5 1.2,-0.3 h 1.1 l 1.2,0.2 1.4,0.3 1.3,0.4 1.4,0.8 m 52,-37.1 1.6,0.9 1.7,1.2 1.5,1.4 1.7,1.5 1.4,1.7 1.5,1.7 1.4,1.8 1.2,2 1.3,2 1,1.9 1.1,2.2 0.8,2.1 0.7,2.2 0.6,2.1 0.5,2 0.1,2.1 0.2,2 v 1.8 l -0.2,1.9 -0.1,1.7 -0.5,1.5 -0.6,1.5 -0.7,1.2 -0.8,1.3 -1.1,0.9 -1,0.9 -1.3,0.6 -1.2,0.5 -1.4,0.1 -1.5,0.2 -1.4,-0.2 -1.7,-0.3 -1.5,-0.4 -1.7,-0.8 -1.6,-0.9 m -18.4,-31.8 v -0.9 l 0.2,-1.9 0.3,-1.6 0.4,-1.6 0.7,-1.5 0.6,-1.2 0.9,-1.2 0.9,-1 1.1,-0.9 1.2,-0.6 1.4,-0.4 1.3,-0.2 1.4,-0.1 1.5,0.1 1.6,0.3 1.7,0.5 1.5,0.7 1.7,1 m -1,1.5 -1.5,-0.8 -1.7,-0.7 -1.5,-0.5 -1.5,-0.3 h -2.9 l -1.4,0.3 -1.2,0.5 -1.1,0.6 -1.1,0.9 -0.9,0.9 -0.7,1.2 -0.7,1.4 -0.6,1.4 -0.3,1.7 -0.3,1.6 v 2 m 17.3,30 0.1,0.1 1.7,0.8 1.6,0.7 1.6,0.5 1.6,0.3 h 2.7 l 1.4,-0.3 1.2,-0.5 1.2,-0.6 0.9,-0.9 1,-0.9 0.9,-1.2 0.6,-1.4 0.4,-1.4 0.5,-1.7 0.2,-1.6 v -3.7 l -0.2,-2 -0.5,-2.1 -0.4,-2 -0.6,-2.2 -0.9,-1.9 -1,-2.2 -0.9,-2 -1.2,-1.9 -1.2,-2 -1.4,-1.7 -1.4,-1.8 -1.3,-1.6 -1.6,-1.5 -1.6,-1.4 -1.6,-1 -1.7,-1.1 m 20.1,-12.5 0.7,0.4 0.9,0.3 1,0.3 1,0.3 h 1.1 l 1.1,0.2 1,-0.2 1.1,-0.1 0.9,-0.5 0.8,-0.4 0.4,-0.5 0.5,-0.6 0.3,-0.8 0.2,-0.6 v -0.7 l -0.3,-0.8 -0.5,-0.6 -0.6,-0.6 -0.6,-0.5 -0.9,-0.5 -1,-0.1 -0.9,-0.2 h -1 l -1.1,0.2 -1.1,0.1 -1.1,0.4 -0.6,0.1 m -0.9,0.5 -0.3,0.1 -0.8,0.5 -0.6,0.4 -0.4,0.5 -0.2,0.5 -0.1,0.6 0.1,0.4 0.2,0.5 0.4,0.6 1.3,0.8 m 80.2,-46.299999 -1.7,-1 -1.7,-0.6 -1.5,-0.6 -1.7,-0.3 -1.5,-0.1 -1.4,0.1 -1.4,0.2 -1.2,0.4 -0.9,0.5 m 26,45.099999 0.3,-0.2 1,-0.9 0.9,-0.9 1,-1.1 0.6,-1.4 0.6,-1.3 0.4,-1.7 0.3,-1.699999 0.2,-1.8 v -1.9 l -0.2,-2 -0.3,-2.1 -0.4,-2 -0.6,-2.1 -0.6,-2.2 -1,-2.1 -0.9,-2.1 -1,-2 -1.3,-2 -1.3,-2 -1.4,-1.8 -1.4,-1.7 -1.5,-1.7 -1.5,-1.5 -1.7,-1.4 -1.7,-1.2 -1.5,-0.9 m -100.3,63.699999 1.4,0.9 1.4,1.1 1.4,1.2 1.3,1.4 1.3,1.5 1.2,1.5 1.1,1.7 0.9,1.7 0.9,1.8 0.8,1.7 0.6,1.8 0.4,1.9 0.3,1.6 0.2,1.9 v 3.2 l -0.3,1.3 -0.5,1.4 -0.4,1.1 -0.8,1.1 -0.8,0.9 -0.9,0.6 -1.1,0.4 -1,0.4 -1.2,0.1 h -0.8 m -17.4,-29.9 0.6,-1.1 0.7,-0.9 0.8,-0.8 1.1,-0.6 1.1,-0.5 1,-0.1 h 1.4 l 1.2,0.1 1.4,0.3 1.4,0.7 1.3,0.6 m 0.5,0.3 -0.9,-0.5 -1.2,-0.4 -1.4,-0.3 -1.2,-0.2 h -1.3 l -1,0.3 -1.1,0.5 m 17.3,30.1 0.3,-0.3 0.9,-0.7 0.8,-0.9 0.6,-1 0.4,-1.3 0.3,-1.2 0.2,-1.5 v -0.6 m 88,-85.599999 1.5,1.1 1.7,1.2 1.5,1.2 1.5,1.6 1.6,1.5 1.3,1.8 1.4,1.9 1.2,1.8 1.1,2 1.1,2 0.9,2.1 0.8,2 0.6,2.1 0.6,2 0.3,2.2 0.1,1.9 0.2,1.9"
     class="g3_1"
     id="path1204"
     inkscape:connector-curvature="0"
     style="fill:none;stroke:#000000;stroke-width:1.08319449;stroke-linecap:round;stroke-linejoin:round" />
  <defs
     id="defs1218">
    <path
       d="m 275,125 c 0,0 107,0 190,84 0,0 90,89 90,382 0,0 0,298 -95,394 0,0 -78,77 -185,77 H 209 V 125 Z M 72,12 v 1164 h 203 c 0,0 185,0 292,-108 0,0 137,-137 137,-477 0,0 0,-334 -125,-460 0,0 -119,-119 -304,-119 z"
       id="f0_14"
       transform="matrix(0.001,0,0,-0.001,0,0)"
       inkscape:connector-curvature="0" />
    <path
       d="m 382,12 c 0,0 -143,0 -215,72 0,0 -77,77 -72,244 h 120 c 0,0 0,-131 36,-167 0,0 41,-42 125,-42 0,0 84,0 125,42 0,0 36,36 36,84 0,0 0,35 -36,71 0,0 -36,36 -137,72 0,0 -149,54 -197,101 0,0 -54,54 -54,132 0,0 0,77 66,143 0,0 66,66 203,66 0,0 119,0 191,-72 0,0 72,-72 66,-173 H 519 c 0,0 -6,65 -42,101 0,0 -35,36 -95,36 0,0 -78,0 -107,-30 0,0 -36,-36 -36,-77 0,0 0,-30 30,-60 0,0 41,-42 179,-90 0,0 107,-35 155,-83 0,0 53,-54 53,-143 0,0 0,-84 -59,-144 0,0 -84,-83 -215,-83 z"
       id="f0_2f"
       transform="matrix(0.001,0,0,-0.001,0,0)"
       inkscape:connector-curvature="0" />
    <path
       d="m 388,119 c 0,0 60,0 107,48 0,0 66,66 66,257 0,0 0,191 -66,256 0,0 -47,48 -101,48 0,0 -60,0 -125,-66 0,0 -72,-71 -72,-244 0,0 0,-167 83,-251 0,0 48,-48 108,-48 z M 78,-196 V 830 H 197 V 698 c 0,0 83,132 215,132 0,0 101,0 173,-72 0,0 107,-108 107,-340 0,0 0,-215 -107,-323 0,0 -84,-83 -179,-83 0,0 -137,0 -209,119 v -327 z"
       id="f0_2c"
       transform="matrix(0.001,0,0,-0.001,0,0)"
       inkscape:connector-curvature="0" />
    <path
       d="M 84,12 V 1176 H 203 V 686 c 0,0 36,48 60,72 0,0 71,72 191,72 0,0 101,0 161,-60 0,0 53,-54 53,-149 V 12 H 549 v 567 c 0,0 0,77 -42,119 0,0 -36,36 -95,36 0,0 -60,0 -126,-66 0,0 -83,-83 -83,-220 V 12 Z"
       id="f0_24"
       transform="matrix(0.001,0,0,-0.001,0,0)"
       inkscape:connector-curvature="0" />
    <path
       d="m 340,119 c 0,0 108,0 185,126 v 215 c 0,0 -71,-42 -167,-72 0,0 -72,-24 -113,-66 0,0 -30,-30 -30,-83 0,0 0,-60 30,-90 0,0 30,-30 95,-30 z M 304,12 c 0,0 -107,0 -173,66 0,0 -59,59 -59,149 0,0 0,95 65,161 0,0 60,60 138,83 0,0 202,66 220,90 0,0 30,36 30,72 0,0 0,35 -36,65 0,0 -29,24 -107,24 0,0 -60,0 -96,-36 0,0 -47,-47 -53,-125 H 101 c 0,0 6,119 84,197 0,0 72,72 197,72 0,0 143,0 203,-60 0,0 60,-60 60,-149 V 149 c 0,0 0,-71 47,-137 H 549 c 0,0 -24,24 -24,89 0,0 -89,-89 -221,-89 z"
       id="f0_1x"
       transform="matrix(0.001,0,0,-0.001,0,0)"
       inkscape:connector-curvature="0" />
    <path
       d="m 370,113 c 0,0 72,0 113,42 0,0 78,78 78,269 0,0 0,185 -72,256 0,0 -41,42 -107,42 0,0 -66,0 -125,-60 0,0 -60,-59 -60,-262 0,0 0,-173 60,-233 0,0 53,-54 113,-54 z M 78,12 V 1176 H 197 V 698 c 0,0 95,132 221,132 0,0 95,0 167,-72 0,0 95,-96 95,-322 0,0 0,-239 -95,-335 0,0 -90,-89 -185,-89 0,0 -114,0 -203,101 V 12 Z"
       id="f0_1y"
       transform="matrix(0.001,0,0,-0.001,0,0)"
       inkscape:connector-curvature="0" />
    <path
       d="m 388,12 c 0,0 -125,0 -221,95 0,0 -101,102 -101,293 0,0 0,221 113,334 0,0 96,96 215,96 0,0 119,0 191,-72 0,0 77,-78 83,-209 H 537 c 0,0 -12,96 -54,137 0,0 -35,36 -89,36 0,0 -66,0 -119,-54 0,0 -72,-71 -72,-268 0,0 0,-161 66,-227 0,0 53,-54 119,-54 0,0 60,0 107,48 0,0 60,60 54,191 h 137 c 0,0 6,-167 -89,-263 0,0 -84,-83 -209,-83 z"
       id="f0_1z"
       transform="matrix(0.001,0,0,-0.001,0,0)"
       inkscape:connector-curvature="0" />
    <path
       d="M 131,-148 191,12 H 131 V 143 H 269 V 12 l -78,-160 z"
       id="f0_g"
       transform="matrix(0.001,0,0,-0.001,0,0)"
       inkscape:connector-curvature="0" />
    <path
       d="m 364,119 c 0,0 54,0 107,54 0,0 78,78 78,263 0,0 0,167 -78,244 0,0 -41,42 -101,42 0,0 -54,0 -101,-48 0,0 -78,-77 -78,-250 0,0 0,-197 66,-263 0,0 41,-42 107,-42 z M 334,12 c 0,0 -89,0 -173,83 0,0 -101,102 -101,341 0,0 0,197 113,310 0,0 84,84 185,84 0,0 107,0 191,-90 v 436 H 668 V 12 H 549 V 131 C 549,131 454,12 334,12 Z"
       id="f0_20"
       transform="matrix(0.001,0,0,-0.001,0,0)"
       inkscape:connector-curvature="0" />
    <path
       d="m 543,513 c 0,0 6,120 -54,173 0,0 -47,43 -98,43 -3,0 -6,-1 -9,-1 0,0 -60,-6 -113,-60 0,0 -48,-47 -60,-155 z M 400,12 c 0,0 -131,0 -209,78 0,0 -113,113 -113,328 0,0 0,221 101,322 0,0 90,90 215,90 0,0 101,0 185,-72 0,0 107,-90 101,-340 H 209 c 0,0 0,-197 71,-251 0,0 42,-42 120,-42 0,0 65,0 107,42 0,0 36,36 42,125 h 137 c 0,0 -18,-131 -89,-202 0,0 -78,-78 -197,-78 z"
       id="f0_21"
       transform="matrix(0.001,0,0,-0.001,0,0)"
       inkscape:connector-curvature="0" />
    <path
       d="M 275,12 V 734 H 72 v 96 h 203 v 149 c 0,0 0,197 220,197 0,0 132,0 191,-30 v -120 c 0,0 -53,30 -197,36 0,0 -1,0 -4,0 -18,0 -91,-4 -91,-77 V 830 H 639 V 734 H 394 V 12 Z"
       id="f0_22"
       transform="matrix(0.001,0,0,-0.001,0,0)"
       inkscape:connector-curvature="0" />
    <path
       d="m 388,-106 c 0,0 119,0 161,41 0,0 30,30 30,65 0,0 0,30 -24,54 0,0 -30,30 -137,30 0,0 -54,0 -161,11 0,0 -84,-47 -84,-100 0,0 0,-24 30,-54 0,0 48,-47 185,-47 z m -30,518 c 0,0 48,0 84,36 0,0 35,35 35,113 0,0 0,95 -35,131 0,0 -36,36 -84,36 0,0 -48,0 -83,-36 0,0 -36,-36 -36,-131 0,0 0,-78 36,-113 0,0 35,-36 83,-36 z m 24,-602 c 0,0 -197,0 -269,72 0,0 -47,47 -47,101 0,0 0,77 107,142 0,0 -78,42 -78,120 0,0 0,77 96,137 0,0 -72,66 -72,179 0,0 0,131 72,203 0,0 66,66 167,66 0,0 102,0 161,-60 0,0 76,61 173,61 8,0 16,-1 24,-1 V 716 c 0,0 -37,11 -85,11 -24,0 -50,-3 -76,-11 0,0 42,-48 42,-155 0,0 0,-113 -72,-185 0,0 -65,-66 -167,-66 0,0 -54,0 -101,24 0,0 -54,-30 -54,-65 0,0 0,-24 24,-48 0,0 30,-30 167,-30 0,0 185,0 245,-60 0,0 53,-53 53,-119 0,0 0,-77 -53,-130 0,0 -72,-72 -257,-72 z"
       id="f0_23"
       transform="matrix(0.001,0,0,-0.001,0,0)"
       inkscape:connector-curvature="0" />
  </defs>
  <!-- Any embedded fonts defined here -->
  <style
     type="text/css"
     id="style1220"><![CDATA[

@font-face {
	font-family: MSGothic_j;
	src: url("fonts/MSGothic_j.woff") format("woff");
}

]]></style>
</svg>
